<?xml version="1.0" encoding="utf-8"?>
<!-- Generator: Adobe Illustrator 21.0.0, SVG Export Plug-In . SVG Version: 6.00 Build 0)  -->
<svg version="1.1" xmlns="http://www.w3.org/2000/svg" xmlns:xlink="http://www.w3.org/1999/xlink" x="0px" y="0px"
	 viewBox="0 0 501.7 501.7" style="enable-background:new 0 0 501.7 501.7;" xml:space="preserve">
<style type="text/css">
	.st0{fill:#DD8A2E;}
	.st1{fill:#FFFFFF;}
	.st2{fill:none;}
</style>
<g id="Laag_2">
</g>
<g id="Laag_3">
</g>
<g id="Laag_1">
	<g>
		<path class="st0" d="M262.9,385.4c-2.4,1.2-5.1,2.2-8.1,2.4c-0.7,0-1.2,0-2,0c-3.4,0-6.8-1-10-2.4c-2.6-1.1-4.9-2.7-7-4.6H4.4v104
			c0,6.6,5.4,12,12,12h470c6.6,0,12-5.4,12-12v-104h-228C268,382.6,265.6,384.2,262.9,385.4z"/>
		<path class="st0" d="M252.9,381c0.9,0,1.8,0,2.3-0.2h-5.2C251,381,252,381,252.9,381z"/>
		<rect x="4.4" y="54.5" class="st0" width="494" height="51.8"/>
		<path class="st0" d="M498.4,14.9c0-6.6-5.4-12-12-12h-470c-6.6,0-12,5.4-12,12v39.7h494V14.9z"/>
		<path class="st1" d="M252.9,387.9c0.7,0,1.2,0,2,0c2.9-0.2,5.6-1.2,8.1-2.4c2.7-1.3,5.2-2.8,7.5-4.6h-15.2
			c-0.5,0.2-1.4,0.2-2.3,0.2c-0.9,0-1.8,0-2.9-0.2h-14.1c2.1,1.9,4.4,3.5,7,4.6C246,386.9,249.5,387.9,252.9,387.9z"/>
		<path class="st2" d="M4.4,199.4v-42"/>
		<path class="st2" d="M4.4,152.5v-25.4"/>
		<path class="st2" d="M4.4,121.7v-15.4"/>
		<path class="st2" d="M498.4,153v21.7"/>
		<path class="st2" d="M499.3,365.5c-0.3,0-0.6,0-0.9,0.1v15.2"/>
		<path class="st0" d="M202.1,198.5c1-0.5,2-0.7,2.4-1.5c0.7-0.2,1.5-0.2,2.2-0.2c1.2,0,2.7,0.5,3.9,1c0.2,0.2,0.7,0.5,1,0.5
			s0.5,0,0.7-0.2c-1.2-4.4-3.2-8.3-5.9-12c-2.9-3.9-5.6-7.8-8.5-11.5c-3.9-5.1-7.1-10.7-9-16.8c-1-3.7-2-7.3-2.7-11.5
			c-0.5,1-0.7,1.2-0.7,1.5c-1.5,4.1-2.7,8.5-3.4,13.2c-0.5,3.2-0.2,6.3,0.5,9.5c1.5,5.4,4.1,10,7.8,14.2c1.7,2.2,3.7,4.1,5.6,6.1
			c2,2,3.7,4.1,5.1,6.6C201.4,197.8,201.9,198.3,202.1,198.5z"/>
		<path class="st0" d="M10.2,199.8c3.7,0,7.3-0.5,11-1c7.6-1.2,14.9-2.9,22.2-5.6c9.5-3.4,18.8-7.3,28.1-11.5
			c7.3-3.4,14.6-6.8,21.5-11c2.9-2,6.1-3.7,8.8-5.9c1.2-1,2.2-1.7,3.2-2.7c0.2-0.2,0.5-0.7,0.7-1c-0.2-1.2-1-2-2-2.7
			c-0.7,0-1.5-0.2-2.4-0.5c-4.6-1-9.5-1.7-14.4-2.2c-4.4-0.5-8.5-0.7-12.7-1.2c-4.1-0.5-8.1-0.7-12.2-1c-5.1-0.2-10.2-0.2-15.4-0.2
			c-7.1,0-14.2,0.2-21.2,0.7c-3.9,0.2-7.8,0.7-11.7,1.5c-3.1,0.6-6.2,1.2-9.2,1.8v42c0.5,0.1,1.1,0.1,1.6,0.2
			C7.5,199.8,8.7,199.8,10.2,199.8z"/>
		<path class="st0" d="M7.7,151.7c5.9-1.2,11.7-2.2,17.6-2.7c4.6-0.5,9.3-0.7,13.9-0.7c2.9,0,5.9,0,8.8,0c2.7,0,5.4,0,8.1,0
			c4.9,0.2,9.8,0.5,14.6,0.7c4.4,0.2,9,0.7,13.4,1.2c0,0,0.2,0,0.5,0s0.5,0,1,0c1-0.2,2.2-0.5,2.9-1.5c0-0.2,0.2-0.7,0.2-1.2
			c0.5-2,0-3.9-1-5.6c-1.2-2-2.4-3.7-4.1-5.1c-2.4-2.2-4.9-4.4-7.6-6.1c-3.7-2.4-7.6-4.4-12-5.9c-6.1-2.2-12.4-2.9-19-3.2
			c-1.2,0-2.2,0-3.2,0c-4.6,0-9.3,0.5-14.4,1c-5.9,0.5-11.5,1.7-17.1,2.9c-2,0.5-4,1-6,1.5v25.4C5.5,152.2,6.6,152,7.7,151.7z"/>
		<path class="st0" d="M436.3,349.9c12.5,4.4,22.9,7,32.8,8.2c3.4,0.4,8,1,12.7,1.2c3.2,0.1,5.6,0.2,7.9,0.2c3.1,0,6-0.1,8.7-0.4
			v-177c-1.1,0.3-2.2,0.6-3.3,1c-8.2,2.9-15.7,6.9-22.4,12.5c-3.4,2.8-6.5,5.9-9.4,9.3c-1.9,2.3-4,4.4-6.1,6.5
			c-4.1,4.1-8.7,7.4-13.8,10c-3.6,1.9-7.3,3.4-11,4.8c-4.1,1.5-8.2,2.9-12.2,4.4c-3.7,1.3-7.3,2.8-10.8,4.7c-1.8,1-3.4,2.1-5,3.3
			c-3.7,3-6.4,6.7-7.8,11.3c-1.2,3.8-2.3,7.7-3.1,11.6c-1.1,5.5-1.7,11.1-1.2,16.8c0.2,2.5,0.7,4.9,1.8,7.2c0.1,0.3,0.3,0.6,0.2,0.9
			c0,0,0,0,0,0h0h0l0,0c0,0,0,0,0,0c-0.1,0-0.1,0-0.2,0c-0.2,0-0.5-0.1-0.6-0.3c-0.5-0.7-1.1-1.4-1.5-2.1c-0.7-1.2-1.2-2.5-1.5-3.8
			c-0.8-2.7-1.2-5.5-1.4-8.3c-0.4-7.6,0.4-15.1,2.1-22.5c1-4.3,3.1-8.1,6-11.4c2.2-2.4,4.6-4.5,7.3-6.2c0.8-0.5,1.6-1.1,2.4-1.5
			c1.7-1,3.5-1.9,5.6-2.8c3.2-1.4,6.4-2.5,10-3.7c3.3-1.1,6.5-2.3,9.8-3.4l0,0c0.1,0,0.2-0.1,0.4-0.1c0.1-0.1,0.1-0.2,0.2-0.3
			c0,0,0-0.1,0-0.1c-0.3-2.4-0.7-4.9-1.1-7.4c-0.2-1.5-0.5-3-0.6-4.5c-0.2-2.2-0.2-4.5,0.4-6.7c0.8-3,2.3-5.3,4.9-6.7
			c0.5-0.4,1.1-0.7,1.7-1c0.7-0.3,1.5-0.6,2.3-0.9c0.5-0.2,1-0.4,1.5-0.6c0.2-0.1,0.3-0.1,0.4-0.2c0.5-1.2,1-2.4,1.3-3.7
			c0.2-1,0.5-2,0.8-3c0.7-2.4,1.5-4.8,2.2-7.1c0.1-0.4,0.3-0.7,0.1-1.2c0,0-0.1-0.1-0.1-0.1c-0.2,0-0.4-0.1-0.6-0.1
			c-0.1,0-0.1,0-0.2,0c-1,0.1-1.9,0.3-2.9,0.4c-6.5,0.9-12.6,2.9-18.7,5.3c-0.2,0.1-0.4,0.2-0.6,0.2c-7.2,3.4-13.9,7.6-19.9,12.8
			c-4.4,3.7-8.5,7.7-12.3,12c-7,7.8-12.4,16.9-16,26.8c-3.4,9.2-5.6,18.6-5.9,28.5c-0.1,3.1,0,6.3,0.3,9.4
			c0.6,5.6,1.7,11.1,3.3,16.5c3.4,11.1,8.6,21.2,16.2,30.1c4,4.7,8.4,9,13.2,13c6.2,5.1,12.8,9.4,20,12.9c0.8,0.4,1.6,0.8,2.5,1.1
			C428.3,347,432,348.4,436.3,349.9z"/>
		<path class="st0" d="M214.8,184.6v-0.2c-0.2-0.2-0.2-0.7-0.2-1c-1-4.4-1.2-8.5-1-12.9c0.2-4.6,1.2-9,2.4-13.4
			c0.2-0.5,0.2-1,0.2-1.7c-2.4,3.9-8.5,17.3-8.8,20C210.7,180.2,213.3,183.4,214.8,184.6z"/>
		<path class="st0" d="M489,366c-0.3,0-0.6,0-0.9,0c-4.7,0-9.5-0.3-14.2-0.8c-2.7-0.3-5.4-0.6-8.1-1c-5.5-0.8-10.9-2-16.2-3.5
			c-7.9-2.2-15.6-4.8-23.3-7.8c-11.7-4.6-22.1-11.3-31.5-19.7c-5-4.5-9.6-9.4-13.7-14.8c-6.4-8.5-10.9-17.9-14-28.1
			c-1.9-6.2-3.2-12.6-3.7-19.1c-0.4-5-0.4-9.9,0.2-14.9c1.1-9.9,3.7-19.4,7.5-28.5c3.8-9,9-17.2,15.5-24.5
			c4.2-4.8,8.8-9.2,13.7-13.2c2.9-2.5,6-4.7,9.2-6.7c3.2-2.1,6.6-3.9,10-5.5c6.1-2.8,11.7-4.9,17.2-6.4c4.3-1.2,7.9-1.8,11.3-1.8
			c0.4,0,0.8-0.1,1-0.2c0.1-0.3,0.3-0.7,0.4-1c0.2-0.6,0.4-1.2,0.6-1.8c1.6-5.5,5.1-9.6,9.7-12.8c0.3-0.2,0.7-0.4,1-0.6
			c0,0,0.1-0.1,0.1-0.1c1-0.7,2-1.3,3.5-2.1c3.9-2.1,7.5-3.8,11.1-5.3c4-1.6,8.1-3.3,12.3-5.1c-1.5,0.6-2.9,1.3-4.4,1.9
			c-1.7,0.8-3.5,1.5-5.3,2.2c-1.3,0.5-2.7,1.1-4,1.7c-2.9,1.2-5.9,2.7-8.9,4.3c3.1-1.6,6.3-3.2,9.6-4.5c7.4-3,14.7-6,21.9-9.3
			c0.5-0.2,1.1-0.5,1.6-0.7v-29.8H4.4v15.4c1.6-0.4,3.2-0.9,4.8-1.3c5.4-1.2,10.7-2.2,16.3-2.9c5.4-0.7,11-1,16.3-1
			c2.4,0,4.9,0.2,6.6,0c6.6,0.5,12.9,1.7,19,3.9c3.7,1.2,7.1,3.2,10.5,5.4c2.9,2,5.9,4.4,8.5,6.8c2.2,2,3.9,4.1,5.1,6.6
			c1.2,2.4,2,5.1,1.7,7.8c0,0.5,0,1,0,1.5c0.7,1.2,2,2,2.9,2.9c2,0.5,3.9,1,5.9,1.2c2.9,0.5,5.6,1.5,7.8,3.4c0.2,0,0.7,0,1.2-0.2
			c2.4-1,4.6-2,6.8-3.2c1.7-1,3.4-2,5.1-2.9c2.4-1.2,5.1-2.4,7.6-3.7c1.2-0.5,2.4-0.7,3.7-1.2c0,0,0.2,0,0.5,0c0.7,0,1.2,0.2,1.7,1
			c0.5,0.7,0.2,1.7-0.2,2.4c-0.2,0.2-0.5,0.5-0.7,0.7c-0.2,0.5-0.7,0.7-1.2,1c-4.1,2.4-7.1,5.9-10.2,9.3c-2.9,3.2-5.4,7.1-7.6,11
			c-0.2,0.5-0.2,0.7-0.5,1.2c-0.2,0.2-0.2,0.2-0.2,0.5c0.2,0.2,0.2,0.5,0.7,0.7c1.2,0.2,2.2,0.7,3.4,1c1.2,0.2,2.4,0.5,3.7,1
			c4.6,1.5,8.1,4.4,10.7,8.3c0.7,1.2,1.5,2.4,2.2,3.9c2.4,4.6,4.1,9.8,5.4,14.9c1.5,5.9,2.4,11.7,2.9,17.6
			c0.5,6.6,0.5,12.9,0.2,19.5c-0.7,12.2-3.4,23.7-8.1,34.9c-2.9,7.3-6.1,14.6-9.8,21.7c-7.1,13.9-15.9,26.4-26.8,37.3
			c-9.5,9.3-20,16.8-31.7,23.2c-5.1,2.9-10.5,4.9-16.3,6.1c-3.7,0.7-7.3,1.2-11.2,1.2c-0.5,0-1,0-1.5,0c-3.2-0.2-6.3-0.2-9.5-0.7
			c-3.4-0.5-6.6-1-10-2c-0.7-0.2-1.5-0.2-2.2-0.2c-0.5,0-1.2,0.2-1.7,0.2c-2.4,0.5-4.9,1.2-7.1,2.2c-1.5,0.7-3.2,1.5-4.8,2.2v15.8
			h231.5c-1-0.9-2-1.9-3-3c-1-1-1.5-2-2.2-2.9c-0.5-1-1-2-1.5-3.2c-0.7,0-1.2,0-2,0c-3.7,0.2-7.3,0.7-11,1c-0.7,0-1.2,0-1.7,0
			c-2.4,0-4.9-0.2-7.3-1c-6.6-2-11.2-5.9-13.9-12.2c-0.5-1-1.2-1.7-2.4-2c-4.1-1.5-7.8-3.7-11.2-6.3c-3.4-2.7-5.9-6.1-7.8-10
			c-2.4-4.9-2.9-10-1.5-15.1c0.2-0.2,0.2-0.2,0.2-0.5s0-0.2,0-0.5c-0.2-0.2-0.7-0.5-1.2-0.7c-8.8-4.1-13.7-11.2-15.6-20.5
			c-1-4.4-1-9,0.7-13.4c0.7-1.5,1.7-3.2,2.4-4.9c-0.2-0.5-0.5-1-0.7-1.5c-2.4-4.1-3.4-8.8-3.2-13.7c0.2-5.9,2.2-11.5,5.6-16.3
			c0.7-1.5,2-2.7,2.9-4.1c-0.2-0.2-0.5-0.7-0.7-1.2c-4.1-5.6-4.6-12-2.9-18.5c1.7-7.1,6.1-12,12.7-14.9c0.7-0.5,1.7-1,2.4-1
			c1.2-0.2,2.2-0.7,2.9-1.5c2.2-2.4,4.9-4.1,7.8-5.4c3.7-1.7,7.6-3.2,11.5-3.9c0.7,0,1.2-0.2,2.2-0.5c-0.5-1-0.7-1.7-1.2-2.4
			c-1.2-1.7-2.4-3.4-3.9-4.9c-1.7-2-3.7-3.7-5.4-5.6c-4.4-4.6-7.8-10-9.8-16.1c-1.5-5.1-1.7-10-0.7-15.1c1-4.9,2.9-9.5,5.1-13.9
			s5.1-8.8,8.1-12.7c0.5-0.7,1.2-1.2,1.7-2c1,0.5,0.5,1.2,0.5,1.7c0,5.9,0.5,11.7,1.7,17.3c1.5,6.8,3.9,13.4,8.1,19
			c0.5,0.5,1,1.2,1.5,2c0.5-0.7,0.7-1.2,1-1.7c1.5-2.9,2.9-6.1,4.4-9c2.7-5.4,6.1-10.5,10-15.1c1-1,2-2,2.9-2.9c0.7-0.5,1.2-1,2-1.5
			c0.5,0.7,0,1.2,0,1.7c-1,4.6-2.2,9-3.2,13.7c-1.5,7.3-1.7,14.6-1.2,22c0.2,1,0.2,2,0.7,3.2c0.5-0.5,0.5-0.7,0.7-1
			c3.2-5.9,6.6-11.7,10-17.6c0.7-1.5,1.2-2.9,1.5-4.4c0.7-6.1,1.7-12.2,2.4-18.3c0.5-4.4,1.2-8.8,1.7-13.2c0.2-2.2,0.5-4.6,1-7.1
			c0.2-0.2,0.2-0.5,0.2-1c1,1,1.2,2.2,1.5,3.2c0.2,1,0.7,2.2,1,3.2c0.2,1,0.7,2,1,2.9c0.5,1,0.7,2.2,1.2,3.2
			c0.5,1.2,0.7,2.2,1.2,3.2c1-0.2,0.7-0.7,1-1.2c0.7-2.4,1.5-4.9,2.2-7.3c1.2-3.7,2.7-7.1,3.9-10.7c0.2-0.5,0.5-1,0.7-1.5
			c1,0,1,0.5,1,0.7c3.4,14.2,8.1,28.1,12.2,42c2,7.8,4.4,15.9,5.6,23.9c0.5,2.2,0.7,4.6,1,7.1c0.5-0.2,0.7-0.2,1-0.5
			c3.9-3.4,7.8-7.1,11-11.5c2.2-2.9,3.9-6.1,4.6-9.8c0.7-2.7,1.5-5.6,2-8.3c0.7-4.1,0.7-8.5,0-12.7c0-0.2,0-0.2,0-0.5h0.2
			c0.5,0,0.5,0.2,0.7,0.5c0.7,1.2,1.5,2.4,2,3.7c2.7,6.3,4.6,13.2,5.9,20c0.2,2,0.2,4.1,0.5,6.3c0,0.5,0,1.2,0,2
			c0.5-0.2,0.7-0.2,1-0.5c2.4-1.5,3.9-3.9,4.4-6.6c0.5-1.5,0.5-3.2,0.5-4.6c-0.2-6.8-1.7-13.2-4.4-19.5c-0.2-0.5-0.5-1.2-0.7-1.7
			c0,0,0,0,0-0.2h0.2c0.2,0,0.5,0.2,0.7,0.5c5.1,6.1,9,12.7,11.7,20.3c2.2,5.9,2.2,12.2,1,18.3c-1.2,5.4-2.9,10.5-5.4,15.4
			c-0.2,0.7-0.5,1.5-1,2.2c0.7-0.2,1.2-0.2,1.7-0.2c1.5-0.2,3.2-0.5,4.6-0.5c0.7,0,1.2,0,2,0.2c3.2,0.5,6.1,2,8.3,4.4
			c3.4,3.7,5.4,8.1,6.1,12.9c0.2,2,0.2,3.9,0.5,5.9c0,0.7,0,1.2,0,1.7c6.1,2.2,10,6.6,13.4,11.7c2.4,3.9,4.4,8.1,5.6,12.4
			c1.2,5.1,1.2,10.2,0.2,15.4c-1.2,6.8-3.7,13.2-7.1,19.3c-0.2,0.2-0.2,0.7-0.5,1c0,0.2,0,0.2,0,0.5c2.7,6.6,1.7,13.2,0,19.8
			c-1,3.2-2.4,6.3-3.9,9.5c-3.2,6.8-8.1,11.7-14.2,15.6c-1,0.7-1.7,1.2-2.4,2.2c-0.2,0.5-0.7,1-1.2,1.2c-1.5,1.2-2.4,2.7-3.4,4.1
			c-1,1.5-2,2.9-2.9,4.4c-2.2,3.4-5.1,6.3-8.3,8.8c-2.2,1.7-4.6,3.4-7.8,3.7c0,0.5-0.2,1.2-0.5,1.7c-0.5,1.2-1,2.7-1.5,3.9
			c-2.4,5.4-6.1,9.3-11.7,11.2c-1.7,0.5-3.4,1.5-4.6,2.7c-1.7,1.7-3.4,3.2-5.1,4.9c-1.1,1-2.3,2-3.5,3h228v-15.2
			C495.3,365.9,492.2,366,489,366z"/>
		<path class="st0" d="M483.3,180.8c-0.3,0-0.7-0.1-1-0.1c0,0,0,0,0,0c-6.7,0.1-13.4,0.5-20.1,1.7c-2.4,0.4-4.7,0.9-7,1.8
			c-1.4,0.6-2.8,1.3-3.9,2.3c-1.5,1.3-2.8,2.7-3.8,4.3c-0.2,0.3-0.3,0.5-0.2,0.8c0,0,0,0.1,0.1,0.1c1.9,1.2,2.2,1.5,3.6,3.4
			c0.9,1.3,1.7,2.7,2.3,4.2c0.6,1.6,1.5,3,2.5,4.3c0,0,0,0,0,0c0.1,0,0.2,0,0.3,0c0.1,0,0.1,0,0.2,0c0.3,0,0.5-0.1,0.8-0.2
			c0,0,0,0,0,0c0.6-0.7,1.2-1.5,1.8-2.2c4.9-6.3,10.7-11.5,17.4-15.7c2.1-1.4,4.2-2.7,6.5-3.9c0.2-0.1,0.4-0.2,0.6-0.3
			c0-0.1,0-0.2,0.1-0.3C483.5,180.9,483.4,180.8,483.3,180.8z"/>
		<path class="st0" d="M39.9,357.4c0.5,0,1,0,1.5,0c3.7,0,7.3-0.2,11-1c5.4-1,10.5-2.9,15.4-5.6c11.5-6.3,22-13.9,31-23.2
			c9.8-10.2,17.8-21.7,24.4-34.2c3.4-6.6,6.3-13.4,9.3-20.3c3.7-9,6.6-18.3,7.6-28.1c0.2-3.7,0.7-7.1,0.7-10.7c0-2.9,0-5.9,0-8.8
			s-0.2-5.9-0.5-8.8c-0.7-6.3-2-12.4-3.9-18.3c-1.2-3.4-2.4-6.8-4.1-10c-2.2-4.4-5.6-7.6-10.5-9c-0.7-0.2-1.7-0.7-2.4-1
			c-2.4-1-4.9-2-7.3-2.9c-2-0.7-3.7-1.7-5.4-3.2c-0.5-0.2-1-0.7-1.5-1c-0.2,0-0.7,0-1,0c-1.2,0-2.4,0.2-3.7,0.5
			c-4.6,2.9-9.5,5.6-14.4,8.1c-11.7,6.1-23.9,11.2-36.1,15.9c-9.3,3.4-18.8,6.1-28.8,7.6c-2.9,0.2-6.1,0.7-9.3,0.7
			c-0.5,0-1,0-1.5-0.5H9.2c-2.9,1.7-3.4,1.9-4.8,3.7v140.5C15.6,353.7,27.3,357.2,39.9,357.4z"/>
		<path class="st0" d="M178,326.6c-0.2,0-0.5,0-0.7,0c-0.7,0-1.2,0.2-1.5,1.7c-0.2,0.5-0.5,1.2-0.5,1.7c-0.7,4.4,0,8.5,2.4,12.2
			c2.9,4.4,7.1,7.1,11.7,9c0.2,0.2,0.7,0.2,1,0.2s0.5,0,0.7-0.2c0.2,0,0.2,0,0.5,0c0.2-1.5,0.5-2.7,0.7-3.9c0.2-1.2,1-2.4,1.5-3.9
			c-4.1-4.4-7.3-9.5-8.3-15.6C182.8,327.6,180.4,327.1,178,326.6z"/>
		<path class="st0" d="M459.3,177.1c3.1-0.7,6.4-1.2,9.7-1.5c3.9-0.4,8.1-0.8,12.3-0.8c3.8,0,7.7-0.1,11.4-0.1c1.9,0,3.8,0,5.6,0
			V153c-1.9,0.6-3.7,1.3-5.6,1.9c-6,2.2-11.7,4.8-17.2,8c-6.3,3.7-12.1,8.1-17.2,13.5c-0.3,0.3-0.6,0.5-0.7,1c0.1,0,0.2,0,0.3,0
			C458.4,177.3,458.8,177.2,459.3,177.1z"/>
		<path class="st0" d="M250.7,359.1c2.4-3.7,5.1-7.1,7.3-10.7c0.2-0.5,0.7-1,1-1.5c0-0.2,0.5-0.5,0.7-0.7c0.2,0.7,0.2,1.2,0.2,1.7
			c-0.2,1.7-0.5,3.7-1,5.4c-0.2,1-0.2,2,0.5,2.7c1.5,1.5,2.7,3.2,4.1,4.6c1.7,1.7,3.9,2.7,6.3,3.2c2,0.5,3.7,0.7,5.6,0.7
			c0.5,0,0.7,0,1.2,0c3.7-0.2,6.8-1.5,9-4.6c2.2-3.2,3.7-6.8,4.1-10.7c0.7-4.9,1.2-10,1.5-15.1c0-0.2,0-0.7,0.5-0.7
			c0.2,0,0.5,0.2,0.5,0.2c0.2,0.7,0.5,1.2,0.7,2c1.5,4.1,1.7,8.5,1.7,12.9c0.5-0.2,1,0,1.2-0.2c4.9-2.4,8.8-5.9,11.2-11
			c0.2-0.2,0.2-0.5,0.2-1c-0.7-0.2-1.5-0.2-2-0.5c-1.2-0.2-2.4-0.7-3.4-1.5c-0.2-0.2-0.5-0.7-0.7-1.2c0.7-0.2,1.2-0.5,1.7-0.5
			c2.2-0.2,4.4-1,6.6-1.5c1.7-0.5,3.2-1.5,4.4-2.9c1.7-2.2,3.2-4.4,3.9-7.1c1.5-4.9,2-9.8,0.7-14.6c-0.7-3.2-1.5-6.6-2.2-9.8
			c-0.2-1-0.2-1,0.2-2.2c0.5,0.5,1,1.2,1.5,1.7c0.5,0.7,1,1.5,1.5,2.2c0.2,0.5,0.7,1.2,1,2c0.2,0.7,0.7,1.5,1,2.2
			c0.5,0.7,0.7,1.7,1,2.4c0.2,0.7,0.5,1.5,0.7,2.2c0.2,0.7,0.5,1.7,0.7,2.4c0.2,0.7,0.2,1.5,0.5,2.2c0.2,0.7,0.5,1.5,0.5,2.2
			c0.2,1,0.2,1.7,0.2,2.7c0,0.7-0.2,1.5,0.2,2.2c5.4-4.4,11-18.8,10.5-27.1c-2,1-3.7,1.5-5.1,2.9c-1,1-2,1.7-3.2,2.2
			c-1,0.5-2,0.7-2.9,0.7c-0.5,0-1-0.2-1.5-0.2c-0.7-0.2-1-0.5-1.2-1.2c0-0.7,0-1.2,0.7-1.7c0.5-0.2,0.7-0.2,1.2-0.5s1-0.5,1.5-0.7
			c2.2-2,4.4-3.7,5.6-6.1c3.9-7.3,4.9-14.9,2.4-22.7c-1-3.4-2.4-6.6-4.1-9.8c-2.4-4.1-5.1-8.3-7.8-12.2c-1.2-1.7-2.2-3.4-3.4-5.1
			c0-0.2,0-0.7-0.2-1.5c1,0.7,1.7,1.2,2.2,1.7c3.4,2.9,6.6,6.1,9.8,9.5c2.4,2.7,4.6,5.4,7.1,8.1c1,1,2.2,1.7,3.4,2.2
			c0.2,0.2,0.7,0.2,1,0.2c1,0,1.5-0.5,2-1.5c0.7-1.5,0.7-3.2,0.5-4.6c-1.5-7.1-4.9-13.2-9.8-18.5c-1-1-2.2-2-3.4-2.7
			c-0.7-0.5-1.7-0.7-2.4-0.7c-1,0-1.7,0.2-2.4,1h-0.2h-0.2c-0.7-2-1.5-3.9-2.2-6.1c1-1.7,0.7-3.9,0.5-5.9c-0.2-1.7-0.5-3.4-1-4.9
			c-0.7-2.4-2.2-4.6-3.9-6.6c-1.2-1.2-2.4-2.2-4.1-2.7c-1.7-0.5-3.7-0.7-5.4-0.7c-1.2,0-2.4,0-3.9,0.2c-2,0.5-2.7,1.5-2.9,3.4
			c-0.2,1.2-0.2,2.2-0.5,3.4c0,0.7-0.2,1.7-1.2,2.2c-0.5-0.7-1-1.7-1.5-2.4c-1.7-3.2-4.1-5.9-7.1-7.8c-1-0.7-2.2-1.5-3.2-2.2
			c-2.9-2-6.3-2.9-9.8-2.9c-1.7,0-3.7,0.2-5.4,0.7c-2.2,0.5-4.1,2-6.1,3.2c-0.2,0-0.2,0.2-0.2,0.5c2,0.5,3.9,1,5.9,1.5
			c1.7,0.5,3.9,1,5.4,2.9c-0.5,0-0.7,0.2-1,0.2c-3.2-0.2-6.1-0.2-9.3-0.5c-0.7,0-1.5,0-2.2,0c-2,0-3.7,0.2-5.6,0.5
			c-2,0.2-3.7,1-5.4,1.2c-2.7,0.7-5.4,1.2-7.8,2.2c-0.2,0-0.5,0.2-0.7,0.2c-0.2,0-0.2,0-0.5-0.2c-0.2-0.7,0.2-1.2,0.7-1.7
			c1.7-1.7,3.9-2.9,6.1-3.9c1-0.5,2-0.7,2.9-1.2c1.2-0.5,1.7-1.7,0.7-2.7c-0.7-0.7-1.5-1.7-2.4-2.2c-2.4-1.5-5.1-2.2-7.8-2.2
			c-0.7,0-1.2,0-2,0c-3.7,0.5-7.6,1-11.2,1.7c-2.9,0.5-5.6,1.5-8.5,2.2c-1.5,0.5-2.9,1.2-3.9,2.7c-0.7,1-1.5,2.2-2,3.2
			c-2.2,4.6-3.2,9.5-2.7,14.6c0,0.7,0.2,1.7,0,2.4c-0.7-0.2-1-0.7-1.2,0c-0.7-2-1.2-3.9-2-5.9c-0.5-1-0.5-2-1-2.7
			c-1.5-2.2-2.9-4.4-4.9-6.1c-1-0.7-2-1.5-3.4-1.5c-0.5,0.7-1.2,1.5-1.7,2.4c-1.2,1.7-2.2,3.7-3.2,5.6c-1,2.7-2,5.1-2.9,7.8
			c-0.2,0.2-0.2,0.7-1,0.7c-1.7-3.4-1.7-6.8-1.2-10.7c-4.4,1.7-8.3,3.4-11.5,6.3c-1.7,1.5-3.4,3.2-4.4,5.4
			c-2.2,4.1-3.7,8.3-3.7,12.9c-0.2,2-0.2,4.1-0.2,6.1c0,0.2,0.2,0.7-0.5,0.7c-0.2-0.5-0.5-1-0.7-1.5c-0.7-2.4-1.5-5.1-2.4-7.8
			c-1.2-3.2-1.5-6.6-0.7-9.8c0.2-1,0.2-2,0.5-2.9c-0.2,0.2-0.5,0.2-0.5,0.2c-0.7,1-1.7,2-2.4,3.2c-2.7,3.4-4.1,7.3-4.4,11.5
			c-0.2,3.9,0.7,7.6,3.4,10.5c-0.2,1.5-0.5,2.9-0.5,4.4c-0.2,2.7-0.5,5.4-2.4,7.6c-0.7,1-1.2,2.2-1.7,3.2c-1.7,3.2-2.4,6.8-2.4,10.5
			c0.2,4.1,1.2,8.1,4.4,11.2c0.2,0.2,0.2,0.5,0.2,0.5c0,1.2,0,2.2,0,3.4c0,1.2,0.2,2.4,0,3.7c-1-0.5-1.7-0.7-2.4-1
			c-2,1.5-2.4,3.4-2.4,5.6c0.2,5.1,1.2,10,3.9,14.6c2.2,3.7,5.1,6.6,9.3,8.5c0.2,0.2,0.5,0.2,0.7,0.2c0,0,0.2,0,0.5-0.2
			c-0.5-0.7-0.7-1.2-1.2-2c-2-3.2-3.4-6.6-4.4-10.2c0-0.7,0-1.2,0-1.7c0.5,0.2,0.7,0.7,1,1.2c1,1.5,1.7,2.9,2.7,4.1
			c3.4,4.6,7.8,8.3,12.4,11.5c0.7,0.5,1.2,0.7,2,1c6.6,2.9,13.7,4.4,21,4.4c0.7,0,1.5,0,2.2,0c0.2,0,0.5,0,0.7,0h0.2
			c0.5,0,0.7,0,1.2,0.2c-0.7,0.5-1,0.7-1.2,1c-1.7,0.7-3.4,1.5-5.1,1.7c-2,0.2-3.9,0.5-5.9,0.5s-3.7,0-5.4-0.5c0,0-0.2,0-0.5,0
			s-0.5,0.2-0.7,0.5c0.5,1.2,1,2.2,1.7,3.4c0.7,1.2,1.2,2.2,2,3.4c0.7,1,1.5,2.2,2.2,3.2c0.7,1.2,1.7,2.2,2.7,3.2c1,1,1.7,2,2.7,2.9
			c1,0.7,2,1.7,2.9,2.4c1,0.7,2.2,1.2,3.4,2.4c-1.2-0.2-1.7,0-2.4-0.2c-2.2-0.5-4.1-1.2-6.1-2.2c-0.7-0.5-1.2-0.7-2-1
			c-0.5-0.2-0.7-0.2-1-0.2c-0.7,0-1,0.2-1.2,1s-0.5,1.7-0.5,2.7c0.7,6.6,4.6,11.5,10.5,13.4c2.7,1,5.1,1.2,7.8,1.2
			c0.5,0,0.7,0,1.2,0c1-0.2,2-0.2,2.9-1c-2.7-3.4-4.1-7.1-5.6-11c-1-2.4-1.2-5.1-1.2-7.8c0-0.5,0-1,0.5-1.2c0.5,0.5,0.7,1.2,1,1.7
			c2.2,4.4,5.1,8.3,8.5,12c2.2,2.2,4.6,3.7,7.3,4.9c2.2,1,4.4,1.5,6.8,1.5C242.1,366.1,247.7,363.5,250.7,359.1z"/>
		<path class="st0" d="M453.8,179.9c0-0.1,0-0.1-0.1-0.2c-1.2,0.5-2.2,1-3.1,1.7c0.9-0.5,1.9-1,3-1.5
			C453.7,180,453.7,179.9,453.8,179.9z"/>
		<path class="st0" d="M222.4,194.4c2.4-1.2,5.1-2,7.8-2.4c5.1-1,10.2-2,15.4-2c0.2,0,0.2,0,0.2,0c4.4,0,8.3,1.2,12,3.4
			c0.2,0.2,0.7,0.5,1.2,0.7c1.7-2.7,2.9-5.9,3.4-9c0.7-5.1,0.2-10.2-1-15.1c-1-3.9-2.2-8.1-3.2-12c-2.2-8.5-4.4-17.1-6.1-25.9
			c-0.2-1.5-0.5-2.7-0.7-4.1c-0.2,0-0.2,0-0.5,0c-0.2,0.5-0.2,1.2-0.5,1.7c-2.4,10.5-6.6,20.3-11.7,29.5c-2.4,4.4-5.1,8.5-7.6,12.9
			c-2.4,4.4-4.9,9-7.3,13.4c-1.2,2.4-2.2,5.1-2.4,7.8c0,0.5,0.2,0.7,0.2,1.2C221.9,194.4,222.4,194.4,222.4,194.4z"/>
		<path class="st0" d="M288,193.1c4.4,1.5,7.8,4.6,10.2,8.5c6.1-6.1,11.7-23.9,10-29.8c-0.5,0.5-0.7,1.2-1,1.7
			c-1.7,3.2-3.9,5.6-7.1,7.1c-1.7,1-3.7,1.7-5.4,2.2c-3.2,1-6.6,2-10,3.2c-3.4,1.2-6.8,2.9-9.8,5.1c-0.2,0.2-0.2,0.5-0.7,1
			c1.7-0.2,3.4-0.5,4.9-0.5C282.2,191.7,285.1,192.2,288,193.1z"/>
		<path class="st0" d="M240.9,140.9c0.2-0.5,0.2-1.2,0-1.7c-0.5-1.5-1-3.2-1.5-4.6c0-0.2-0.2-0.2-0.5-0.2c-0.5,4.6-1.2,9.3-1.7,14.2
			c0.1,0,0.2,0,0.2,0C238.7,146,239.9,143.4,240.9,140.9z"/>
		<path class="st0" d="M275.1,369.3l0.2-0.2c-0.2,0-0.2,0-0.5,0C274.8,369.3,275.1,369.3,275.1,369.3z"/>
		<path class="st0" d="M266.3,375.7c1.2-0.7,2.4-1.7,3.4-2.4c0.5-0.2,1-0.7,0.7-1.2s-0.7-1-1.2-1c-0.5,0-0.7-0.2-1.2-0.2
			c-3.9-1-7.3-2.7-10.5-5.1c-0.7-0.5-1.5-1.2-2.2-1.7c-2.7,2.4-5.4,4.4-8.5,5.9c-3.4,1.5-6.8,2-10.2,2.4c0.2,0.5,0.2,0.7,0.2,0.7
			c3.7,3.7,7.8,6.6,12.9,7.8c0.1,0,0.2,0,0.3,0h5.2c0,0,0.1,0,0.1,0C259.5,379.8,262.9,377.9,266.3,375.7z"/>
		<path class="st0" d="M292.9,178.5c1-2.9,0.7-7.1-0.5-10.7c-1,2.4-2,4.6-3.2,6.8c-1.2,2-2.7,3.9-4.4,6.3c1.5-0.5,2.9-1,4.1-1.2
			C290.4,179.2,291.7,179,292.9,178.5z"/>
		<path class="st0" d="M453,174.1c0.2-0.2,0.4-0.4,0.6-0.6c5.1-5.8,10.9-10.6,17.4-14.6c1.2-0.8,2.4-1.5,3.7-2.3
			c5.8-3.3,12.4-6.3,20.3-9c1.2-0.4,2.3-0.8,3.4-1.1V141c0,0-0.1,0-0.1,0.1c-4.5,2-9.1,4-13.7,6c-3.1,1.3-6.2,2.6-9.3,3.9
			c-3.9,1.7-7.7,3.6-11.4,5.7c-2.2,1.3-4.1,2.8-5.7,4.7c-1.4,1.6-2.5,3.3-3.2,5.3c-0.8,2.3-1.6,4.5-2.4,6.8
			c-0.1,0.2-0.1,0.4-0.2,0.7c0,0,0,0,0.1,0C452.6,174.2,452.8,174.2,453,174.1z"/>
		<path class="st0" d="M437.2,219.4c1.4-0.6,2.8-1.3,4.2-2c1.8-0.9,3.5-2,5.2-3.1c-1.4,0.9-2.8,1.7-4.3,2.5
			c-1.6,0.8-3.3,1.6-5.1,2.4l0,0C437.2,219.3,437.2,219.3,437.2,219.4z"/>
		<path class="st0" d="M217.7,198c0,0,0,0.2,0,0.5C217.7,198.3,218,198.3,217.7,198z"/>
		<path class="st0" d="M491.6,179.6c-0.2,0-0.4,0-0.6,0c-1,0.4-2.1,0.8-3.1,1.3c0,0.1,0,0.1,0,0.2
			C489.2,180.5,490.4,180,491.6,179.6z"/>
		<path class="st1" d="M249.7,380.8c-5.1-1.2-9.3-4.1-12.9-7.8c0,0,0-0.2-0.2-0.7c3.4-0.5,6.8-1,10.2-2.4c3.2-1.5,5.9-3.4,8.5-5.9
			c0.7,0.5,1.5,1.2,2.2,1.7c3.2,2.4,6.6,4.1,10.5,5.1c0.5,0,0.7,0.2,1.2,0.2c0.5,0,1,0.5,1.2,1s-0.2,1-0.7,1.2
			c-1,0.7-2.2,1.7-3.4,2.4c-3.4,2.2-6.8,4.1-11,5.1c0,0-0.1,0-0.1,0h15.2c1.2-0.9,2.4-1.9,3.5-3c1.7-1.7,3.4-3.2,5.1-4.9
			c1.2-1.2,2.9-2.2,4.6-2.7c5.6-2,9.3-5.9,11.7-11.2c0.5-1.2,1-2.7,1.5-3.9c0.2-0.5,0.5-1.2,0.5-1.7c3.2-0.2,5.6-2,7.8-3.7
			c3.2-2.4,6.1-5.4,8.3-8.8c1-1.5,2-2.9,2.9-4.4c1-1.5,2-2.9,3.4-4.1c0.5-0.2,1-0.7,1.2-1.2c0.7-1,1.5-1.5,2.4-2.2
			c6.1-3.9,11-8.8,14.2-15.6c1.5-3.2,2.9-6.3,3.9-9.5c1.7-6.6,2.7-13.2,0-19.8c0-0.2,0-0.2,0-0.5c0.2-0.2,0.2-0.7,0.5-1
			c3.4-6.1,5.9-12.4,7.1-19.3c1-5.1,1-10.2-0.2-15.4c-1.2-4.4-3.2-8.5-5.6-12.4c-3.4-5.1-7.3-9.5-13.4-11.7c0-0.5,0-1,0-1.7
			c-0.2-2-0.2-3.9-0.5-5.9c-0.7-4.9-2.7-9.3-6.1-12.9c-2.2-2.4-5.1-3.9-8.3-4.4c-0.7-0.2-1.2-0.2-2-0.2c-1.5,0-3.2,0.2-4.6,0.5
			c-0.5,0-1,0-1.7,0.2c0.5-0.7,0.7-1.5,1-2.2c2.4-4.9,4.1-10,5.4-15.4c1.2-6.1,1.2-12.4-1-18.3c-2.7-7.6-6.6-14.2-11.7-20.3
			c-0.2-0.2-0.5-0.5-0.7-0.5h-0.2c0,0.2,0,0.2,0,0.2c0.2,0.5,0.5,1.2,0.7,1.7c2.7,6.3,4.1,12.7,4.4,19.5c0,1.5,0,3.2-0.5,4.6
			c-0.5,2.7-2,5.1-4.4,6.6c-0.2,0.2-0.5,0.2-1,0.5c0-0.7,0-1.5,0-2c-0.2-2.2-0.2-4.4-0.5-6.3c-1.2-6.8-3.2-13.7-5.9-20
			c-0.5-1.2-1.2-2.4-2-3.7c-0.2-0.2-0.2-0.5-0.7-0.5h-0.2c0,0.2,0,0.2,0,0.5c0.7,4.1,0.7,8.5,0,12.7c-0.5,2.7-1.2,5.6-2,8.3
			c-0.7,3.7-2.4,6.8-4.6,9.8c-3.2,4.4-7.1,8.1-11,11.5c-0.2,0.2-0.5,0.2-1,0.5c-0.2-2.4-0.5-4.9-1-7.1c-1.2-8.1-3.7-16.1-5.6-23.9
			c-4.1-13.9-8.8-27.8-12.2-42c0-0.2,0-0.7-1-0.7c-0.2,0.5-0.5,1-0.7,1.5c-1.2,3.7-2.7,7.1-3.9,10.7c-0.7,2.4-1.5,4.9-2.2,7.3
			c-0.2,0.5,0,1-1,1.2c-0.5-1-0.7-2-1.2-3.2c-0.5-1-0.7-2.2-1.2-3.2c-0.2-1-0.7-2-1-2.9c-0.2-1-0.7-2.2-1-3.2
			c-0.2-1-0.5-2.2-1.5-3.2c0,0.5,0,0.7-0.2,1c-0.5,2.4-0.7,4.9-1,7.1c-0.5,4.4-1.2,8.8-1.7,13.2c-0.7,6.1-1.7,12.2-2.4,18.3
			c-0.2,1.5-0.7,2.9-1.5,4.4c-3.4,5.9-6.8,11.7-10,17.6c-0.2,0.2-0.2,0.5-0.7,1c-0.5-1.2-0.5-2.2-0.7-3.2c-0.5-7.3-0.2-14.6,1.2-22
			c1-4.6,2.2-9,3.2-13.7c0-0.5,0.5-1,0-1.7c-0.7,0.5-1.2,1-2,1.5c-1,1-2,2-2.9,2.9c-3.9,4.6-7.3,9.8-10,15.1c-1.5,2.9-2.9,6.1-4.4,9
			c-0.2,0.5-0.5,1-1,1.7c-0.5-0.7-1-1.5-1.5-2c-4.1-5.6-6.6-12.2-8.1-19c-1.2-5.6-1.7-11.5-1.7-17.3c0-0.5,0.5-1.2-0.5-1.7
			c-0.5,0.7-1.2,1.2-1.7,2c-2.9,3.9-5.9,8.3-8.1,12.7s-4.1,9-5.1,13.9c-1,5.1-0.7,10,0.7,15.1c2,6.1,5.4,11.5,9.8,16.1
			c1.7,2,3.7,3.7,5.4,5.6c1.5,1.5,2.7,3.2,3.9,4.9c0.5,0.7,0.7,1.5,1.2,2.4c-1,0.2-1.5,0.5-2.2,0.5c-3.9,0.7-7.8,2.2-11.5,3.9
			c-2.9,1.2-5.6,2.9-7.8,5.4c-0.7,0.7-1.7,1.2-2.9,1.5c-0.7,0-1.7,0.5-2.4,1c-6.6,2.9-11,7.8-12.7,14.9c-1.7,6.6-1.2,12.9,2.9,18.5
			c0.2,0.5,0.5,1,0.7,1.2c-1,1.5-2.2,2.7-2.9,4.1c-3.4,4.9-5.4,10.5-5.6,16.3c-0.2,4.9,0.7,9.5,3.2,13.7c0.2,0.5,0.5,1,0.7,1.5
			c-0.7,1.7-1.7,3.4-2.4,4.9c-1.7,4.4-1.7,9-0.7,13.4c2,9.3,6.8,16.3,15.6,20.5c0.5,0.2,1,0.5,1.2,0.7c0,0.2,0,0.2,0,0.5
			s0,0.2-0.2,0.5c-1.5,5.1-1,10.2,1.5,15.1c2,3.9,4.4,7.3,7.8,10c3.4,2.7,7.1,4.9,11.2,6.3c1.2,0.2,2,1,2.4,2
			c2.7,6.3,7.3,10.2,13.9,12.2c2.4,0.7,4.9,1,7.3,1c0.5,0,1,0,1.7,0c3.7-0.2,7.3-0.7,11-1c0.7,0,1.2,0,2,0c0.5,1.2,1,2.2,1.5,3.2
			c0.7,1,1.2,2,2.2,2.9c1,1.1,2,2,3,3h14.1C249.9,380.8,249.8,380.8,249.7,380.8z M275.1,369.3c0,0-0.2,0-0.2-0.2c0.2,0,0.2,0,0.5,0
			L275.1,369.3z M289.2,174.6c1.2-2.2,2.2-4.4,3.2-6.8c1.2,3.7,1.5,7.8,0.5,10.7c-1.2,0.5-2.4,0.7-3.9,1.2c-1.2,0.2-2.7,0.7-4.1,1.2
			C286.5,178.5,288,176.5,289.2,174.6z M275.1,191.2c2.9-2.2,6.3-3.9,9.8-5.1c3.4-1.2,6.8-2.2,10-3.2c1.7-0.5,3.7-1.2,5.4-2.2
			c3.2-1.5,5.4-3.9,7.1-7.1c0.2-0.5,0.5-1.2,1-1.7c1.7,5.9-3.9,23.7-10,29.8c-2.4-3.9-5.9-7.1-10.2-8.5c-2.9-1-5.9-1.5-8.8-1.5
			c-1.5,0-3.2,0.2-4.9,0.5C274.8,191.7,274.8,191.4,275.1,191.2z M239,134.3c0.2,0,0.5,0,0.5,0.2c0.5,1.5,1,3.2,1.5,4.6
			c0.2,0.5,0.2,1.2,0,1.7c-1,2.4-2.2,5.1-3.4,7.6c0.1,0,0.1,0,0.1,0c0,0,0,0-0.1,0c-0.1,0-0.2,0-0.2,0
			C237.7,143.6,238.5,139,239,134.3z M223.8,185.6c2.4-4.4,4.9-9,7.3-13.4c2.4-4.4,5.1-8.5,7.6-12.9c5.1-9.3,9.3-19,11.7-29.5
			c0.2-0.5,0.2-1.2,0.5-1.7c0.2,0,0.2,0,0.5,0c0.2,1.5,0.5,2.7,0.7,4.1c1.7,8.8,3.9,17.3,6.1,25.9c1,3.9,2.2,8.1,3.2,12
			c1.2,4.9,1.7,10,1,15.1c-0.5,3.2-1.7,6.3-3.4,9c-0.5-0.2-1-0.5-1.2-0.7c-3.7-2.2-7.6-3.4-12-3.4c0,0,0,0-0.2,0
			c-5.1,0-10.2,1-15.4,2c-2.7,0.5-5.4,1.2-7.8,2.4c0,0-0.5,0-0.7,0.2c0-0.5-0.2-0.7-0.2-1.2C221.6,190.7,222.6,188,223.8,185.6z
			 M217.7,198c0,0,0.1,0,0.1,0C217.9,198,217.7,198,217.7,198c0.2,0.2,0,0.2,0,0.5C217.7,198.3,217.7,198,217.7,198z M216.3,155.3
			c0,0.7,0,1.2-0.2,1.7c-1.2,4.4-2.2,8.8-2.4,13.4c-0.2,4.4,0,8.5,1,12.9c0,0.2,0,0.7,0.2,1v0.2c-1.5-1.2-4.1-4.4-7.3-9.3
			C207.7,172.6,213.8,159.2,216.3,155.3z M196,190.7c-2-2-3.9-3.9-5.6-6.1c-3.7-4.1-6.3-8.8-7.8-14.2c-0.7-3.2-1-6.3-0.5-9.5
			c0.7-4.6,2-9,3.4-13.2c0-0.2,0.2-0.5,0.7-1.5c0.7,4.1,1.7,7.8,2.7,11.5c2,6.1,5.1,11.7,9,16.8c2.9,3.7,5.6,7.6,8.5,11.5
			c2.7,3.7,4.6,7.6,5.9,12c-0.2,0.2-0.5,0.2-0.7,0.2s-0.7-0.2-1-0.5c-1.2-0.5-2.7-1-3.9-1c-0.7,0-1.5,0-2.2,0.2
			c-0.5,0.7-1.5,1-2.4,1.5c-0.2-0.2-0.7-0.7-1-1.2C199.7,194.8,198,192.6,196,190.7z M192.4,347.4c-0.2,1.2-0.5,2.4-0.7,3.9
			c-0.2,0-0.2,0-0.5,0c-0.2,0.2-0.5,0.2-0.7,0.2s-0.7,0-1-0.2c-4.6-2-8.8-4.6-11.7-9c-2.4-3.7-3.2-7.8-2.4-12.2
			c0-0.5,0.2-1.2,0.5-1.7c0.2-1.5,0.7-1.7,1.5-1.7c0.2,0,0.5,0,0.7,0c2.4,0.5,4.9,1,7.6,1.2c1,6.1,4.1,11.2,8.3,15.6
			C193.3,344.9,192.6,346.1,192.4,347.4z M229.7,364.7c-2.7-1.2-5.1-2.7-7.3-4.9c-3.4-3.7-6.3-7.6-8.5-12c-0.2-0.5-0.5-1.2-1-1.7
			c-0.5,0.2-0.5,0.7-0.5,1.2c0,2.7,0.2,5.4,1.2,7.8c1.5,3.9,2.9,7.6,5.6,11c-1,0.7-2,0.7-2.9,1c-0.5,0-0.7,0-1.2,0
			c-2.7,0-5.1-0.2-7.8-1.2c-5.9-2-9.8-6.8-10.5-13.4c0-1,0.2-2,0.5-2.7s0.5-1,1.2-1c0.2,0,0.5,0,1,0.2c0.7,0.2,1.2,0.5,2,1
			c2,1,3.9,1.7,6.1,2.2c0.7,0.2,1.2,0,2.4,0.2c-1.2-1.2-2.4-1.7-3.4-2.4c-1-0.7-2-1.7-2.9-2.4c-1-1-1.7-2-2.7-2.9c-1-1-2-2-2.7-3.2
			c-0.7-1-1.5-2.2-2.2-3.2c-0.7-1.2-1.2-2.2-2-3.4c-0.7-1.2-1.2-2.2-1.7-3.4c0.2-0.2,0.5-0.5,0.7-0.5s0.5,0,0.5,0
			c1.7,0.5,3.4,0.5,5.4,0.5s3.9-0.2,5.9-0.5c1.7-0.2,3.4-1,5.1-1.7c0.2-0.2,0.5-0.5,1.2-1c-0.5-0.2-0.7-0.2-1.2-0.2h-0.2
			c-0.2,0-0.5,0-0.7,0c-0.7,0-1.5,0-2.2,0c-7.3,0-14.4-1.5-21-4.4c-0.7-0.2-1.2-0.5-2-1c-4.6-3.2-9-6.8-12.4-11.5
			c-1-1.2-1.7-2.7-2.7-4.1c-0.2-0.5-0.5-1-1-1.2c0,0.5,0,1,0,1.7c1,3.7,2.4,7.1,4.4,10.2c0.5,0.7,0.7,1.2,1.2,2
			c-0.2,0.2-0.5,0.2-0.5,0.2c-0.2,0-0.5,0-0.7-0.2c-4.1-2-7.1-4.9-9.3-8.5c-2.7-4.6-3.7-9.5-3.9-14.6c0-2.2,0.5-4.1,2.4-5.6
			c0.7,0.2,1.5,0.5,2.4,1c0.2-1.2,0-2.4,0-3.7c0-1.2,0-2.2,0-3.4c0,0,0-0.2-0.2-0.5c-3.2-3.2-4.1-7.1-4.4-11.2
			c0-3.7,0.7-7.3,2.4-10.5c0.5-1,1-2.2,1.7-3.2c2-2.2,2.2-4.9,2.4-7.6c0-1.5,0.2-2.9,0.5-4.4c-2.7-2.9-3.7-6.6-3.4-10.5
			c0.2-4.1,1.7-8.1,4.4-11.5c0.7-1.2,1.7-2.2,2.4-3.2c0,0,0.2,0,0.5-0.2c-0.2,1-0.2,2-0.5,2.9c-0.7,3.2-0.5,6.6,0.7,9.8
			c1,2.7,1.7,5.4,2.4,7.8c0.2,0.5,0.5,1,0.7,1.5c0.7,0,0.5-0.5,0.5-0.7c0-2,0-4.1,0.2-6.1c0-4.6,1.5-8.8,3.7-12.9
			c1-2.2,2.7-3.9,4.4-5.4c3.2-2.9,7.1-4.6,11.5-6.3c-0.5,3.9-0.5,7.3,1.2,10.7c0.7,0,0.7-0.5,1-0.7c1-2.7,2-5.1,2.9-7.8
			c1-2,2-3.9,3.2-5.6c0.5-1,1.2-1.7,1.7-2.4c1.5,0,2.4,0.7,3.4,1.5c2,1.7,3.4,3.9,4.9,6.1c0.5,0.7,0.5,1.7,1,2.7
			c0.7,2,1.2,3.9,2,5.9c0.2-0.7,0.5-0.2,1.2,0c0.2-0.7,0-1.7,0-2.4c-0.5-5.1,0.5-10,2.7-14.6c0.5-1,1.2-2.2,2-3.2
			c1-1.5,2.4-2.2,3.9-2.7c2.9-0.7,5.6-1.7,8.5-2.2c3.7-0.7,7.6-1.2,11.2-1.7c0.7,0,1.2,0,2,0c2.7,0,5.4,0.7,7.8,2.2
			c1,0.5,1.7,1.5,2.4,2.2c1,1,0.5,2.2-0.7,2.7c-1,0.5-2,0.7-2.9,1.2c-2.2,1-4.4,2.2-6.1,3.9c-0.5,0.5-1,1-0.7,1.7
			c0.2,0.2,0.2,0.2,0.5,0.2c0.2,0,0.5-0.2,0.7-0.2c2.4-1,5.1-1.5,7.8-2.2c1.7-0.2,3.4-1,5.4-1.2c2-0.2,3.7-0.5,5.6-0.5
			c0.7,0,1.5,0,2.2,0c3.2,0.2,6.1,0.2,9.3,0.5c0.2,0,0.5-0.2,1-0.2c-1.5-2-3.7-2.4-5.4-2.9c-2-0.5-3.9-1-5.9-1.5
			c0-0.2,0-0.5,0.2-0.5c2-1.2,3.9-2.7,6.1-3.2c1.7-0.5,3.7-0.7,5.4-0.7c3.4,0,6.8,1,9.8,2.9c1,0.7,2.2,1.5,3.2,2.2
			c2.9,2,5.4,4.6,7.1,7.8c0.5,0.7,1,1.7,1.5,2.4c1-0.5,1.2-1.5,1.2-2.2c0.2-1.2,0.2-2.2,0.5-3.4c0.2-2,1-2.9,2.9-3.4
			c1.5-0.2,2.7-0.2,3.9-0.2c1.7,0,3.7,0.2,5.4,0.7c1.7,0.5,2.9,1.5,4.1,2.7c1.7,2,3.2,4.1,3.9,6.6c0.5,1.5,0.7,3.2,1,4.9
			c0.2,2,0.5,4.1-0.5,5.9c0.7,2.2,1.5,4.1,2.2,6.1h0.2h0.2c0.7-0.7,1.5-1,2.4-1c0.7,0,1.7,0.2,2.4,0.7c1.2,0.7,2.4,1.7,3.4,2.7
			c4.9,5.4,8.3,11.5,9.8,18.5c0.2,1.5,0.2,3.2-0.5,4.6c-0.5,1-1,1.5-2,1.5c-0.2,0-0.7,0-1-0.2c-1.2-0.5-2.4-1.2-3.4-2.2
			c-2.4-2.7-4.6-5.4-7.1-8.1c-3.2-3.4-6.3-6.6-9.8-9.5c-0.5-0.5-1.2-1-2.2-1.7c0.2,0.7,0.2,1.2,0.2,1.5c1.2,1.7,2.2,3.4,3.4,5.1
			c2.7,3.9,5.4,8.1,7.8,12.2c1.7,3.2,3.2,6.3,4.1,9.8c2.4,7.8,1.5,15.4-2.4,22.7c-1.2,2.4-3.4,4.1-5.6,6.1c-0.5,0.2-1,0.5-1.5,0.7
			s-0.7,0.2-1.2,0.5c-0.7,0.5-0.7,1-0.7,1.7c0.2,0.7,0.5,1,1.2,1.2c0.5,0,1,0.2,1.5,0.2c1,0,2-0.2,2.9-0.7c1.2-0.5,2.2-1.2,3.2-2.2
			c1.5-1.5,3.2-2,5.1-2.9c0.5,8.3-5.1,22.7-10.5,27.1c-0.5-0.7-0.2-1.5-0.2-2.2c0-1,0-1.7-0.2-2.7c0-0.7-0.2-1.5-0.5-2.2
			c-0.2-0.7-0.2-1.5-0.5-2.2c-0.2-0.7-0.5-1.7-0.7-2.4c-0.2-0.7-0.5-1.5-0.7-2.2c-0.2-0.7-0.5-1.7-1-2.4c-0.2-0.7-0.7-1.5-1-2.2
			c-0.2-0.7-0.7-1.5-1-2c-0.5-0.7-1-1.5-1.5-2.2c-0.5-0.5-1-1.2-1.5-1.7c-0.5,1.2-0.5,1.2-0.2,2.2c0.7,3.2,1.5,6.6,2.2,9.8
			c1.2,4.9,0.7,9.8-0.7,14.6c-0.7,2.7-2.2,4.9-3.9,7.1c-1.2,1.5-2.7,2.4-4.4,2.9c-2.2,0.5-4.4,1.2-6.6,1.5c-0.5,0-1,0.2-1.7,0.5
			c0.2,0.5,0.5,1,0.7,1.2c1,0.7,2.2,1.2,3.4,1.5c0.5,0.2,1.2,0.2,2,0.5c0,0.5,0,0.7-0.2,1c-2.4,5.1-6.3,8.5-11.2,11
			c-0.2,0.2-0.7,0-1.2,0.2c0-4.4-0.2-8.8-1.7-12.9c-0.2-0.7-0.5-1.2-0.7-2c0,0-0.2-0.2-0.5-0.2c-0.5,0-0.5,0.5-0.5,0.7
			c-0.2,5.1-0.7,10.2-1.5,15.1c-0.5,3.9-2,7.6-4.1,10.7c-2.2,3.2-5.4,4.4-9,4.6c-0.5,0-0.7,0-1.2,0c-2,0-3.7-0.2-5.6-0.7
			c-2.4-0.5-4.6-1.5-6.3-3.2c-1.5-1.5-2.7-3.2-4.1-4.6c-0.7-0.7-0.7-1.7-0.5-2.7c0.5-1.7,0.7-3.7,1-5.4c0-0.5,0-1-0.2-1.7
			c-0.2,0.2-0.7,0.5-0.7,0.7c-0.2,0.5-0.7,1-1,1.5c-2.2,3.7-4.9,7.1-7.3,10.7c-2.9,4.4-8.5,7.1-14.2,7.1
			C234.1,366.1,231.9,365.7,229.7,364.7z"/>
		<path class="st1" d="M498.4,177.2v4.9"/>
		<path class="st1" d="M498.9,360.7c-0.2,0-0.3,0-0.5,0v4.8c0.3,0,0.6,0,0.9-0.1"/>
		<path class="st1" d="M498.4,148v5"/>
		<path class="st1" d="M458.9,201.2c-0.6,0.8-1.2,1.5-1.8,2.2c0,0,0,0,0,0c0.9-0.3,1.4-0.9,1.6-1.1l0,0c0.7-0.8,1.3-1.5,1.9-2.3
			c4.5-5.7,9.8-10.5,15.8-14.5C469.7,189.7,463.9,194.9,458.9,201.2z"/>
		<path class="st1" d="M488.9,361.1c-0.3,0-0.6,0-0.8,0c-4.2,0-8.6-0.3-14-0.8c-2.6-0.3-5.3-0.6-8-1c-5-0.7-10.3-1.9-16-3.4
			c-7.4-2-15-4.5-23-7.7c-11-4.4-21.4-10.8-30.8-19.3c-5.1-4.6-9.6-9.5-13.4-14.5c-6-8-10.5-16.9-13.7-27.4
			c-1.9-6.2-3.1-12.5-3.6-18.6c-0.4-4.9-0.3-9.8,0.2-14.5c1-9.4,3.5-18.7,7.4-27.9c3.7-8.7,8.8-16.8,15.1-23.9
			c4.1-4.7,8.6-9,13.4-13c2.6-2.1,5.2-4.1,8-5.9c-3.2,2-6.3,4.2-9.2,6.7c-4.9,4.1-9.4,8.5-13.7,13.2c-6.5,7.3-11.7,15.5-15.5,24.5
			c-3.9,9.1-6.4,18.6-7.5,28.5c-0.5,5-0.6,9.9-0.2,14.9c0.5,6.5,1.8,12.9,3.7,19.1c3.1,10.1,7.6,19.6,14,28.1
			c4.1,5.4,8.7,10.3,13.7,14.8c9.4,8.4,19.8,15.1,31.5,19.7c7.6,3,15.4,5.7,23.3,7.8c5.3,1.5,10.7,2.7,16.2,3.5
			c2.7,0.4,5.4,0.7,8.1,1c4.7,0.5,9.4,0.8,14.2,0.8c0.3,0,0.6,0,0.9,0c3.1,0,6.2-0.1,9.3-0.4v-4.8
			C495.5,361,492.4,361.1,488.9,361.1z"/>
		<path class="st1" d="M389.2,318.6c-7.5-8.9-12.8-19-16.2-30.1c-1.6-5.4-2.8-10.9-3.3-16.5c-0.3-3.1-0.4-6.2-0.3-9.4
			c0.3-9.8,2.5-19.3,5.9-28.5c3.6-9.9,9-19,16-26.8c3.8-4.3,7.9-8.3,12.3-12c6-5.2,12.7-9.3,19.9-12.8c0.2-0.1,0.4-0.2,0.6-0.2
			c6.1-2.3,12.2-4.4,18.7-5.3c1-0.1,1.9-0.3,2.9-0.4c0.1,0,0.1,0,0.2,0c0.2,0,0.4,0,0.6,0.1c0.1,0,0.1,0,0.1,0.1
			c0.2,0.5,0,0.8-0.1,1.2c-0.7,2.4-1.5,4.8-2.2,7.1c-0.3,1-0.6,2-0.8,3c-0.3,1.3-0.7,2.5-1.3,3.7c0.2-0.1,0.3-0.1,0.5-0.2
			c0.1,0,0.2-0.1,0.3-0.1c0.5-0.3,0.9-0.7,1.1-1.2c0.6-1.3,1.1-2.7,1.5-4.3c0.2-0.8,0.4-1.6,0.7-2.5l0.1-0.3
			c0.5-1.8,1.1-3.5,1.6-5.3l0.6-1.8l0-0.1c0.1-0.4,0.5-1.4,0-2.6c-0.3-0.8-1.1-1.3-1.9-1.4l-0.1,0c-0.2,0-0.5-0.1-0.8-0.1
			c-0.1,0-0.3,0-0.4,0c-0.6,0.1-1.2,0.2-1.7,0.2c-0.4,0.1-0.8,0.1-1.2,0.2c-7.1,1-13.7,3.3-19.2,5.4c-0.3,0.1-0.5,0.2-0.7,0.3
			c-7.8,3.8-14.5,8-20.4,13.1c-4.5,3.8-8.7,7.9-12.5,12.2c-7.2,8-12.7,17.3-16.4,27.5c-3.8,10.4-5.7,19.9-6,29.2
			c-0.1,3.4,0,6.6,0.3,9.7c0.6,5.7,1.7,11.4,3.4,16.9c3.6,11.7,9.2,22.2,16.6,30.9c4,4.7,8.4,9,13.5,13.3c6.8,5.6,14,10.2,21.6,13.7
			c-7.2-3.4-13.8-7.8-20-12.9C397.7,327.6,393.2,323.3,389.2,318.6z"/>
		<path class="st1" d="M431.4,201.2c-0.6,2.2-0.6,4.5-0.4,6.7c0.1,1.5,0.4,3,0.6,4.5c0.4,2.5,0.7,5,1.1,7.4c0,0,0,0.1,0,0.1
			c-0.1,0.1-0.1,0.2-0.2,0.3c0.6-0.3,1.6-0.8,2.1-2c0.2-0.4,0.2-0.9,0.2-1.3l-0.3-2.1c-0.3-1.8-0.5-3.6-0.8-5.4
			c-0.1-0.4-0.1-0.7-0.2-1.1c-0.2-1.2-0.3-2.2-0.4-3.3c-0.2-2.3-0.1-4.2,0.3-5.9c0.5-2.1,1.5-3.6,2.9-4.7
			C433.7,195.9,432.1,198.2,431.4,201.2z"/>
		<path class="st1" d="M394.2,286.4C394.2,286.4,394.2,286.4,394.2,286.4C394.2,286.4,394.2,286.4,394.2,286.4L394.2,286.4z"/>
		<path class="st1" d="M491,179.6c0.2,0,0.4,0,0.6,0c-1.2,0.5-2.4,1-3.6,1.5c0-0.1,0-0.1,0-0.2c-6.3,2.8-11.9,6.2-16.9,10.4
			c-3.4,2.8-6.7,6-9.7,9.6c-1.7,1.9-3.6,4-6,6.4c-2.6,2.6-5.6,5-8.9,7.1c-1.6,1.1-3.4,2.1-5.2,3.1c-1.3,0.7-2.7,1.4-4.2,2
			c0-0.1,0-0.1,0-0.2l0,0c-1.8,0.8-3.7,1.5-5.7,2.3c-2,0.7-4.1,1.5-6,2.2c-2,0.7-4.1,1.5-6.2,2.2c-3.1,1.1-7.2,2.7-11.1,4.9
			c-2,1.1-3.8,2.3-5.4,3.6c-4.2,3.5-7,7.6-8.5,12.4c-1,3.3-2.1,6.9-2.9,10.5c0.4-3.2,0.9-6.5,1.7-9.9c0.9-3.8,2.7-7.3,5.5-10.4
			c1.7-1.9,3.7-3.6,5.8-5.1c-2.7,1.7-5.2,3.8-7.3,6.2c-2.9,3.3-5,7.1-6,11.4c-1.7,7.4-2.5,14.9-2.1,22.5c0.2,2.8,0.6,5.6,1.4,8.3
			c0.4,1.3,0.8,2.6,1.5,3.8c0.4,0.8,1,1.4,1.5,2.1c0.2,0.2,0.4,0.3,0.6,0.3c0.1,0,0.1,0,0.2,0c0.1-0.3,0-0.6-0.2-0.9
			c-1.1-2.3-1.6-4.7-1.8-7.2c-0.4-5.7,0.1-11.2,1.2-16.8c0.8-3.9,1.9-7.8,3.1-11.6c1.4-4.6,4.1-8.3,7.8-11.3c1.6-1.3,3.2-2.4,5-3.3
			c3.5-1.9,7.1-3.4,10.8-4.7c4.1-1.5,8.2-2.9,12.2-4.4c3.8-1.4,7.5-2.9,11-4.8c5.1-2.7,9.7-5.9,13.8-10c2.1-2.1,4.1-4.3,6.1-6.5
			c2.9-3.4,6-6.5,9.4-9.3c6.7-5.5,14.2-9.6,22.4-12.5c1.1-0.4,2.2-0.7,3.3-1v-4.9c-1.4,0.3-2.8,0.8-4.2,1.2
			C493.1,178.8,492.1,179.2,491,179.6z"/>
		<path class="st1" d="M453.6,173.5c-0.2,0.2-0.4,0.4-0.6,0.6c0.4-0.1,0.8-0.3,1.1-0.7l0.2-0.3c0.2-0.3,0.5-0.5,0.7-0.8
			c4.5-5.1,9.7-9.6,15.9-13.5C464.5,163,458.7,167.7,453.6,173.5z"/>
		<path class="st1" d="M449.4,169.3c0.7-0.2,1.3-0.7,1.6-1.4l0.1-0.3c0.1-0.3,0.3-0.7,0.4-1c0.3-0.7,0.5-1.4,0.6-2
			c1.3-4.6,4.2-8.3,8.7-11.4c-0.3,0.2-0.7,0.4-1,0.6c-4.6,3.2-8.1,7.2-9.7,12.8c-0.2,0.6-0.4,1.2-0.6,1.8c-0.1,0.3-0.3,0.7-0.4,1
			c0,0,0.1,0,0.1,0C449.3,169.3,449.3,169.3,449.4,169.3z"/>
		<path class="st1" d="M474.3,158.4c-6.7,3.9-12.7,8.6-17.7,13.9c0,0-0.1,0.1-0.1,0.1c-0.4,0.4-1.2,1.1-1.3,2.4
			c-0.1,0.8,0.3,1.6,1,2.1c0.2,0.1,0.7,0.5,1.4,0.5c0,0,0,0,0,0c0.1-0.4,0.5-0.7,0.7-1c5.1-5.3,10.9-9.8,17.2-13.5
			c5.5-3.2,11.3-5.8,17.2-8c1.8-0.7,3.7-1.3,5.6-1.9v-5c-2.1,0.7-4.3,1.4-6.5,2.3C485.2,152.7,479.5,155.4,474.3,158.4z"/>
		<path class="st1" d="M445.4,186.9c-0.8,1.3-0.6,2.4-0.4,2.9c0.2,0.5,0.5,0.9,1,1.1c1.7,1,1.7,1.1,2.9,2.8c0.9,1.2,1.6,2.5,2.1,3.7
			c0.7,1.7,1.6,3.2,2.8,4.9c0.3,0.4,0.7,0.7,0.9,0.8l0,0c0.3,0.2,0.7,0.4,1.1,0.4c0,0,0,0,0,0c-1-1.3-1.9-2.8-2.5-4.3
			c-0.6-1.5-1.4-2.9-2.3-4.2c-1.4-1.9-1.6-2.2-3.6-3.4c0,0-0.1,0-0.1-0.1c-0.1-0.3,0-0.6,0.2-0.8c1.1-1.6,2.4-3,3.8-4.3
			c1.2-1,2.5-1.7,3.9-2.3c2.3-0.9,4.6-1.4,7-1.8c6.7-1.1,13.4-1.6,20.1-1.7c0,0,0,0,0,0c0.3,0,0.6,0,1,0.1c0.1,0,0.1,0.1,0.1,0.2
			c0,0.1,0,0.2-0.1,0.3c0.4-0.2,0.7-0.4,1-0.6c0.9-0.6,1-1.5,1.1-1.8l0,0c0.1-0.7,0-1.3-0.4-1.9c-0.4-0.5-1-0.9-1.7-0.9l-0.2,0
			c-0.3,0-0.6-0.1-1-0.1h-0.1c-7.6,0.1-14.3,0.7-20.4,1.7c-2.8,0.5-5.2,1.1-7.4,1.9c-0.2,0.1-0.4,0.2-0.6,0.2c0,0.1,0,0.1,0.1,0.2
			c0,0-0.1,0-0.1,0.1c-1.1,0.4-2.1,0.9-3,1.5c-0.3,0.2-0.6,0.5-0.9,0.7C448,183.6,446.6,185.2,445.4,186.9z"/>
		<path class="st1" d="M474.9,146.2c-3.3,1.3-6.5,2.9-9.6,4.5c-0.9,0.5-1.8,1-2.7,1.5c-2.3,1.3-4.4,3.1-6.3,5.2
			c-1.6,1.8-2.9,3.9-3.6,6.1c-0.4,1.3-0.9,2.5-1.3,3.8c-0.4,1-0.7,2-1.1,3c-0.1,0.3-0.2,0.5-0.2,0.8l0,0.1c-0.3,1.2,0.3,2.4,1.5,2.9
			l0.1,0c0.2,0.1,0.5,0.1,0.8,0.1c0.1-0.2,0.1-0.4,0.2-0.7c0.8-2.3,1.6-4.5,2.4-6.8c0.7-2,1.8-3.8,3.2-5.3c1.7-1.9,3.6-3.5,5.7-4.7
			c3.7-2.1,7.5-4,11.4-5.7c3.1-1.3,6.2-2.5,9.3-3.9c4.6-2,9.1-4,13.7-6c0,0,0.1,0,0.1-0.1v-4.9c-0.5,0.2-1.1,0.4-1.6,0.7
			C489.6,140.1,482.2,143.2,474.9,146.2z"/>
		<path class="st1" d="M498.4,174.7v0.3"/>
		<path class="st1" d="M498.4,146.5v0.3"/>
		<path class="st1" d="M489.7,359.5c-2.3,0-4.8-0.1-7.9-0.2c-4.7-0.2-9.2-0.7-12.7-1.2c-9.9-1.3-20.4-3.9-32.8-8.2
			c-4.2-1.5-7.9-2.9-11.4-4.4c-0.8-0.4-1.7-0.7-2.5-1.1c1.2,0.6,2.3,1.1,3.5,1.6c3.7,1.6,7.4,3,11.2,4.3c10.6,3.7,21.3,6.7,32.4,8.1
			c4.1,0.5,8.3,1,12.5,1.1c2.6,0.1,5.2,0.2,7.8,0.2c2.8,0,5.7-0.1,8.5-0.4v-0.3C495.7,359.4,492.9,359.5,489.7,359.5z"/>
		<path class="st1" d="M495,147.6c-7.8,2.7-14.5,5.7-20.3,9c-1.3,0.7-2.5,1.5-3.7,2.3c0.9-0.6,1.8-1.1,2.8-1.7
			c6.6-3.8,13.5-6.7,20.6-9.2c1.3-0.5,2.6-0.9,4-1.3v-0.3C497.3,146.9,496.1,147.2,495,147.6z"/>
		<path class="st1" d="M492.7,174.7c-3.7,0-7.6,0-11.4,0.1c-4.2,0-8.4,0.4-12.3,0.8c-3.4,0.3-6.6,0.9-9.7,1.5
			c-0.5,0.1-0.9,0.2-1.4,0.2c-0.1,0-0.2,0-0.3,0c0,0,0,0.1,0,0.1c0,0.1,0,0.1,0.1,0.1c0,0,0.1,0.1,0.1,0.1c0,0,0,0,0,0
			c0.4-0.1,0.8-0.1,1.2-0.2c3.3-0.7,6.6-1.2,10-1.6c4.2-0.4,8.3-0.8,12.5-0.8c5.6-0.1,11.3-0.1,16.9-0.1v-0.3
			C496.5,174.7,494.6,174.7,492.7,174.7z"/>
		<path class="st1" d="M487.8,179.6c0.1,0.4,0.2,0.8,0.2,1.3c1-0.4,2-0.9,3.1-1.3C490,179.6,488.9,179.6,487.8,179.6z"/>
		<path class="st1" d="M440.2,192.5c-0.8,0.3-1.5,0.6-2.3,0.9c-0.6,0.3-1.2,0.6-1.7,1c0.3-0.2,0.6-0.3,0.9-0.5
			c1.2-0.6,2.5-1,3.8-1.6c0.3-0.1,0.7-0.3,1-0.5c0,0,0.1,0,0.1-0.1c0,0,0-0.1,0.1-0.1c-0.1,0.1-0.3,0.1-0.4,0.2
			C441.2,192.1,440.7,192.3,440.2,192.5z"/>
		<path class="st1" d="M446.5,214.3c2.7-1.8,5.2-3.9,7.5-6.1c0.1-0.1,0.1-0.1,0.2-0.2c-0.2-0.1-0.4-0.2-0.6-0.4l0,0
			c-0.3-0.2-0.8-0.6-1.4-1.3c-1.4-1.8-2.4-3.5-3.1-5.4c-0.4-1.1-1-2.2-1.8-3.3c-0.5-0.7-0.8-1.1-1-1.3c-0.2-0.2-0.6-0.5-1.3-0.8
			c0,0-0.1-0.1-0.1-0.1c-0.3,0.2-0.6,0.4-0.9,0.6c-0.1,0-0.1,0.1-0.2,0.1c-0.3,0.1-0.6,0.3-1.1,0.5c-0.5,0.2-1,0.4-1.5,0.6
			c-0.8,0.3-1.5,0.6-2.2,0.9c-1.7,0.8-2.8,2.1-3.3,4.2c-0.4,1.4-0.5,3.1-0.3,5.1c0.1,1,0.3,2.1,0.4,3.2c0.1,0.4,0.1,0.7,0.2,1.1
			c0.3,1.8,0.5,3.6,0.8,5.3l0.3,2.1c1.8-0.8,3.4-1.6,5.1-2.4C443.7,216,445.1,215.2,446.5,214.3z"/>
		<path class="st1" d="M432.1,220.4c-3.3,1.1-6.5,2.3-9.8,3.4c-3.6,1.2-6.8,2.4-10,3.7c-2.1,0.9-3.9,1.8-5.6,2.8
			c-0.8,0.5-1.6,1-2.4,1.5c0.5-0.3,1-0.6,1.5-0.9c1.9-1.1,3.8-2,5.8-2.9c3.3-1.5,6.7-2.6,10.1-3.8c3.3-1.1,6.5-2.3,9.8-3.4
			c0.3-0.1,0.7-0.2,1-0.6C432.3,220.3,432.2,220.4,432.1,220.4L432.1,220.4z"/>
		<path class="st1" d="M453.3,179c-0.2,0-0.5,0.1-0.7,0.1c-0.6,0-1.1-0.1-1.6-0.3l-0.1,0c-0.1,0.2-0.1,0.3-0.1,0.4l0,0l-0.6,1.9
			c-0.1,0.3-0.2,0.5-0.2,0.8c0.2-0.1,0.4-0.3,0.7-0.4c0.9-0.6,1.9-1.2,3.1-1.7C453.6,179.5,453.4,179.3,453.3,179z M450.8,179.2
			L450.8,179.2L450.8,179.2z"/>
		<path class="st1" d="M465.2,150.7c3-1.6,6-3.1,8.9-4.3c1.3-0.6,2.7-1.1,4-1.7c1.7-0.7,3.5-1.4,5.3-2.2c1.4-0.6,2.9-1.3,4.4-1.9
			c-4.2,1.8-8.3,3.5-12.3,5.1c-3.6,1.5-7.2,3.2-11.1,5.3c-1.5,0.8-2.6,1.4-3.5,2.1c0,0-0.1,0.1-0.1,0.1c0.9-0.6,1.8-1.1,2.7-1.6
			C464.1,151.2,464.7,150.9,465.2,150.7z"/>
		<path class="st1" d="M476.3,185.4c1.8-1.2,3.7-2.3,5.6-3.3c0.5-0.3,1-0.5,1.5-0.8c0,0,0,0,0-0.1c-0.2,0.1-0.4,0.2-0.6,0.3
			C480.5,182.8,478.4,184.1,476.3,185.4z"/>
		<path class="st1" d="M452.4,174.5l0.1,0c0,0,0,0,0.1,0c0,0,0.1,0,0.1,0c0.1-0.1,0.2-0.2,0.3-0.4c-0.2,0.1-0.4,0.1-0.6,0.1
			c0,0,0,0-0.1,0c0,0,0,0.1,0,0.1C452.3,174.4,452.3,174.5,452.4,174.5z"/>
		<path class="st1" d="M436.4,171.7c3.9-1.1,7.8-1.8,11.9-1.9c0.2,0,0.4-0.1,0.7-0.2c0,0,0.1,0,0.1-0.1c0-0.1,0.1-0.2,0.1-0.2
			c-0.3,0.1-0.6,0.2-1,0.2c-3.4,0-6.9,0.6-11.3,1.8c-5.5,1.5-11.2,3.6-17.2,6.4c-3.4,1.6-6.8,3.4-10,5.5c3-1.8,6-3.5,9.2-5
			C424.5,175.6,430.3,173.4,436.4,171.7z"/>
		<path class="st1" d="M456.1,203.6c-0.1,0-0.2,0-0.3,0c0.1,0.1,0.3,0.2,0.4,0.3c0,0,0.1,0,0.1,0c0,0,0,0,0,0c0.4,0,0.6-0.3,0.8-0.5
			c-0.2,0.1-0.5,0.1-0.8,0.2C456.2,203.6,456.2,203.6,456.1,203.6z"/>
		<path class="st1" d="M498.4,175v2.1"/>
		<path class="st1" d="M498.4,146.8v1.3"/>
		<path class="st1" d="M388.2,202.1c-6.3,7.2-11.4,15.2-15.1,23.9c-3.9,9.2-6.3,18.5-7.4,27.9c-0.5,4.7-0.6,9.6-0.2,14.5
			c0.5,6.1,1.7,12.4,3.6,18.6c3.2,10.5,7.7,19.4,13.7,27.4c3.8,5.1,8.3,10,13.4,14.5c9.4,8.4,19.8,14.9,30.8,19.3
			c8.1,3.2,15.6,5.7,23,7.7c5.7,1.5,10.9,2.7,16,3.4c2.7,0.4,5.4,0.7,8,1c5.3,0.5,9.8,0.8,14,0.8c0.3,0,0.6,0,0.8,0
			c3.5,0,6.6-0.1,9.5-0.4v-1.3c-2.8,0.2-5.7,0.4-8.5,0.4c-2.6,0-5.2-0.1-7.8-0.2c-4.2-0.2-8.3-0.6-12.5-1.1
			c-11.1-1.4-21.8-4.5-32.4-8.1c-3.8-1.3-7.5-2.7-11.2-4.3c-1.2-0.5-2.4-1-3.5-1.6c-7.6-3.5-14.8-8.1-21.6-13.7
			c-5.1-4.3-9.5-8.6-13.5-13.3c-7.4-8.8-13-19.2-16.6-30.9c-1.7-5.6-2.8-11.3-3.4-16.9c-0.3-3.1-0.4-6.3-0.3-9.7
			c0.3-9.3,2.2-18.8,6-29.2c3.7-10.3,9.3-19.5,16.4-27.5c3.8-4.3,8-8.4,12.5-12.2c5.9-5,12.6-9.3,20.4-13.1c0.2-0.1,0.5-0.2,0.7-0.3
			c5.5-2.1,12.1-4.4,19.2-5.4c0.4-0.1,0.8-0.1,1.2-0.2c0.6-0.1,1.1-0.2,1.7-0.2c0.1,0,0.3,0,0.4,0c0.3,0,0.6,0,0.8,0.1l0.1,0
			c0.8,0.1,1.6,0.7,1.9,1.4c0.5,1.2,0.2,2.2,0,2.6l0,0.1l-0.6,1.8c-0.5,1.8-1.1,3.5-1.6,5.3l-0.1,0.3c-0.3,0.9-0.5,1.7-0.7,2.5
			c-0.3,1.6-0.9,3-1.5,4.3c-0.2,0.5-0.6,0.9-1.1,1.2c-0.1,0-0.2,0.1-0.3,0.1c-0.1,0.1-0.3,0.1-0.5,0.2c0,0,0,0.1-0.1,0.1
			c0,0,0,0.1-0.1,0.1c-0.3,0.2-0.7,0.3-1,0.5c-1.3,0.5-2.5,1-3.8,1.6c-0.3,0.1-0.6,0.3-0.9,0.5c-1.4,1.1-2.4,2.6-2.9,4.7
			c-0.4,1.7-0.5,3.6-0.3,5.9c0.1,1.1,0.3,2.2,0.4,3.3c0.1,0.4,0.1,0.7,0.2,1.1c0.3,1.8,0.5,3.6,0.8,5.4l0.3,2.1
			c0.1,0.4,0,0.9-0.2,1.3c-0.5,1.3-1.5,1.8-2.1,2c-0.3,0.3-0.6,0.5-1,0.6c-3.3,1.1-6.5,2.3-9.8,3.4c-3.4,1.2-6.8,2.4-10.1,3.8
			c-2,0.9-3.9,1.8-5.8,2.9c-0.5,0.3-1,0.6-1.5,0.9c-2.1,1.5-4.1,3.2-5.8,5.1c-2.8,3.1-4.6,6.6-5.5,10.4c-0.8,3.4-1.3,6.7-1.7,9.9
			c0.8-3.7,1.9-7.2,2.9-10.5c1.5-4.8,4.3-8.9,8.5-12.4c1.6-1.3,3.3-2.5,5.4-3.6c3.9-2.1,8-3.7,11.1-4.9c2.1-0.8,4.2-1.5,6.2-2.2
			c2-0.7,4-1.4,6-2.2c2-0.7,3.9-1.5,5.7-2.3l-0.3-2.1c-0.3-1.7-0.5-3.5-0.8-5.3c-0.1-0.4-0.1-0.7-0.2-1.1c-0.2-1.1-0.3-2.2-0.4-3.2
			c-0.2-2.1-0.1-3.7,0.3-5.1c0.6-2.1,1.6-3.4,3.3-4.2c0.7-0.3,1.4-0.6,2.2-0.9c0.5-0.2,1-0.4,1.5-0.6c0.4-0.2,0.8-0.4,1.1-0.5
			c0.1,0,0.2-0.1,0.2-0.1c0.3-0.2,0.6-0.3,0.9-0.6c0,0,0.1,0.1,0.1,0.1c0.6,0.4,1.1,0.7,1.3,0.8c0.2,0.2,0.5,0.6,1,1.3
			c0.8,1.1,1.4,2.2,1.8,3.3c0.7,1.8,1.8,3.6,3.1,5.4c0.5,0.7,1.1,1.1,1.4,1.3l0,0c0.2,0.1,0.4,0.3,0.6,0.4c-0.1,0.1-0.1,0.1-0.2,0.2
			c-2.2,2.2-4.7,4.3-7.5,6.1c3.3-2.1,6.3-4.5,8.9-7.1c2.4-2.4,4.3-4.5,6-6.4c3-3.5,6.3-6.7,9.7-9.6c5-4.2,10.6-7.6,16.9-10.4
			c0-0.4-0.1-0.9-0.2-1.3c1.1,0,2.2,0,3.3,0c1-0.4,2.1-0.8,3.1-1.2c1.4-0.5,2.8-0.9,4.2-1.2V175c-5.6,0-11.3,0-16.9,0.1
			c-4.2,0-8.3,0.4-12.5,0.8c-3.4,0.3-6.7,0.8-10,1.6c-0.4,0.1-0.8,0.1-1.2,0.2c0,0,0,0,0,0c0,0-0.1,0-0.1-0.1c0,0-0.1-0.1-0.1-0.1
			c0,0,0-0.1,0-0.1c0,0,0,0,0,0c-0.8,0-1.3-0.4-1.4-0.5c-0.7-0.5-1.1-1.3-1-2.1c0.1-1.3,0.9-2,1.3-2.4c0,0,0.1-0.1,0.1-0.1
			c5-5.3,11-9.9,17.7-13.9c5.2-3,11-5.7,17.6-8.1c2.2-0.8,4.4-1.6,6.5-2.3v-1.3c-1.3,0.4-2.6,0.9-4,1.3c-7.1,2.5-14.1,5.4-20.6,9.2
			c-0.9,0.5-1.9,1.1-2.8,1.7c-6.1,3.9-11.4,8.4-15.9,13.5c-0.2,0.3-0.5,0.5-0.7,0.8l-0.2,0.3c-0.3,0.3-0.7,0.6-1.1,0.7
			c-0.1,0.1-0.2,0.2-0.3,0.4c0,0-0.1,0-0.1,0c0,0,0,0-0.1,0l-0.1,0c-0.1,0-0.1-0.1-0.1-0.2c0,0,0-0.1,0-0.1c-0.3,0-0.5-0.1-0.8-0.1
			l-0.1,0c-1.2-0.4-1.8-1.7-1.5-2.9l0-0.1c0.1-0.2,0.1-0.5,0.2-0.8c0.4-1,0.7-2,1.1-3c0.4-1.3,0.9-2.5,1.3-3.8
			c0.8-2.2,2-4.3,3.6-6.1c1.9-2.1,4-3.8,6.3-5.2c0.9-0.5,1.8-1,2.7-1.5c-0.6,0.3-1.1,0.6-1.7,0.9c-0.9,0.5-1.8,1-2.7,1.6
			c-4.6,3.1-7.4,6.9-8.7,11.4c-0.2,0.6-0.4,1.2-0.6,2c-0.1,0.4-0.3,0.7-0.4,1l-0.1,0.3c-0.3,0.7-0.9,1.2-1.6,1.4c0,0-0.1,0-0.1,0
			c0,0-0.1,0-0.1,0c0,0.1-0.1,0.2-0.1,0.2c0,0-0.1,0.1-0.1,0.1c-0.3,0.1-0.5,0.2-0.7,0.2c-4,0-8,0.8-11.9,1.9
			c-6,1.7-11.9,3.9-17.6,6.6c-3.2,1.5-6.3,3.1-9.2,5c-2.8,1.8-5.4,3.7-8,5.9C396.8,193.1,392.3,197.4,388.2,202.1z M449.7,182.2
			c0.3-0.3,0.6-0.5,0.9-0.7c-0.2,0.1-0.5,0.3-0.7,0.4c0.1-0.3,0.2-0.5,0.2-0.8l0.6-1.9l0,0c0-0.1,0.1-0.2,0.1-0.4l0.1,0
			c0.5,0.2,1.1,0.3,1.6,0.3c0.3,0,0.5,0,0.7-0.1c0.1,0.3,0.2,0.5,0.4,0.8c0.2-0.1,0.4-0.2,0.6-0.2c2.2-0.8,4.6-1.5,7.4-1.9
			c6.1-1,12.8-1.6,20.4-1.7h0.1c0.4,0,0.7,0,1,0.1l0.2,0c0.7,0.1,1.3,0.4,1.7,0.9c0.4,0.5,0.6,1.2,0.4,1.9l0,0
			c-0.1,0.3-0.2,1.2-1.1,1.8c-0.3,0.2-0.7,0.4-1,0.6c0,0,0,0.1,0,0.1c-0.5,0.3-1,0.6-1.5,0.8c-1.9,1-3.8,2.1-5.6,3.3
			c-6,4-11.3,8.9-15.8,14.5c-0.6,0.7-1.2,1.5-1.9,2.3l0,0c-0.2,0.3-0.7,0.8-1.6,1.1c-0.2,0.2-0.4,0.4-0.8,0.5c0,0,0,0,0,0
			c0,0-0.1,0-0.1,0c-0.1-0.1-0.3-0.2-0.4-0.3c-0.4,0-0.8-0.2-1.1-0.4l0,0c-0.2-0.1-0.5-0.4-0.9-0.8c-1.2-1.6-2.2-3.2-2.8-4.9
			c-0.5-1.2-1.2-2.5-2.1-3.7c-1.2-1.7-1.3-1.8-2.9-2.8c-0.4-0.3-0.8-0.7-1-1.1c-0.2-0.6-0.5-1.7,0.4-2.9
			C446.6,185.2,448,183.6,449.7,182.2z"/>
		<path class="st1" d="M8,355.5c0,0.5,0,1,0,1.5c0,0.7,0,1.2-0.2,1.7c1.5-0.7,3.2-1.2,4.6-1.7c-1.5-0.5-2.9-1-4.4-1.7
			C8,355.2,8,355.5,8,355.5z"/>
		<path class="st1" d="M4.4,123.7v-2"/>
		<path class="st1" d="M4.4,127.1v-2.1"/>
		<path class="st1" d="M4.4,201.1v-1.7"/>
		<path class="st1" d="M4.4,154.1v-1.7"/>
		<path class="st1" d="M4.4,157.4v-2.9"/>
		<path class="st1" d="M9.2,203.7h1.2c0.5,0.5,1,0.5,1.5,0.5c3.2,0,6.3-0.5,9.3-0.7c10-1.5,19.5-4.1,28.8-7.6
			c12.2-4.6,24.4-9.8,36.1-15.9c4.9-2.4,9.8-5.1,14.4-8.1c1.2-0.2,2.4-0.5,3.7-0.5c0.2,0,0.7,0,1,0c0.5,0.2,1,0.7,1.5,1
			c1.7,1.5,3.4,2.4,5.4,3.2c2.4,1,4.9,2,7.3,2.9c0.7,0.2,1.7,0.7,2.4,1c4.9,1.5,8.3,4.6,10.5,9c1.7,3.2,2.9,6.6,4.1,10
			c2,5.9,3.2,12,3.9,18.3c0.2,2.9,0.5,5.9,0.5,8.8s0,5.9,0,8.8c0,3.7-0.5,7.1-0.7,10.7c-1,9.8-3.9,19-7.6,28.1
			c-2.9,6.8-5.9,13.7-9.3,20.3c-6.6,12.4-14.6,23.9-24.4,34.2c-9,9.3-19.5,16.8-31,23.2c-4.9,2.7-10,4.6-15.4,5.6
			c-3.7,0.7-7.3,1-11,1c-0.5,0-1,0-1.5,0c-12.6-0.2-24.3-3.7-35.6-9.6v3.9c11.1,5.3,22,8,33.4,8.3c0.5,0,1,0,1.5,0
			c4.4,0,8.1-0.2,11.5-1c5.6-1.2,11-3.2,16.1-5.9c12-6.6,22.7-14.6,31.5-23.7c9.8-10,18.1-21.7,24.9-34.7c3.2-6.1,6.1-12.7,9.5-20.5
			c4.4-10.5,6.8-19.5,7.8-28.6v-1c0.2-3.2,0.7-6.6,0.7-10v-1.2c0-2.4,0-5.1,0-7.8c0-3.4-0.2-6.3-0.5-9c-0.7-6.3-2-12.4-3.9-18.5
			c-1.2-3.7-2.4-7.1-4.1-10.2c-2.7-5.1-6.6-8.5-12-10.2c-0.7-0.2-1.7-0.5-2.4-0.7c-1-0.5-2-0.7-2.9-1.2c-1.5-0.5-2.7-1.2-4.1-1.7
			c-1.7-0.7-3.2-1.7-4.6-2.7c-0.5-0.2-0.7-0.7-1-1c-0.2,0-0.2-0.2-0.2-0.2c-0.2-0.2-0.7-0.5-1-0.5c-0.5,0-1,0-1.5,0
			c-1,0-2,0.2-2.7,0.2c-0.5,0-0.7,0.2-1.2,0.2c-0.2,0-0.7,0.2-1,0.2c-4.6,2.9-9.3,5.4-14.2,8.1c-11.2,5.6-22.9,10.7-35.9,15.6
			c-10.2,3.9-19.5,6.3-28.3,7.6c-3.2,0.5-6.1,0.7-9,0.7H8.2H6.5v-0.2c-0.5,0-0.7,0-1.2,0.2c-0.3,0.2-0.6,0.4-0.9,0.6v4.4
			C5.8,205.6,6.2,205.4,9.2,203.7z"/>
		<path class="st1" d="M8.9,122.6c5.9-1.2,11.7-2.2,17.3-2.9c5.6-0.7,10.2-1,14.4-1c1,0,2.2,0,3.2,0c7.8,0.2,14.2,1.2,19.8,3.2
			c4.6,1.5,8.8,3.4,12.7,6.1c2.7,2,5.1,3.9,7.8,6.3c1.7,1.7,3.2,3.7,4.4,5.6c0.8,1.5,1.2,3.1,1.4,4.6c0.2,0.9,0.2,1.8,0.1,2.7
			c0,0.5,0,0.7,0,1.2c0,0.2,0,0.2,0,0.5c0,0.5,0,0.7,0.2,1.2c0.7,1.2,1.7,2.2,2.7,2.9c0.2,0.2,0.5,0.5,0.7,0.5
			c0.2,0.2,0.7,0.5,1,0.5l2,0.2c1.5,0.2,2.7,0.5,4.1,0.7c3.2,0.5,5.1,1.5,6.8,2.9c0.5,0.5,1,0.5,1.5,0.5c0.2,0,0.2,0,0.5,0
			s0.2,0,0.5,0s0.7-0.2,1.2-0.2c2.7-1,5.1-2.2,7.1-3.2c1-0.5,1.7-1,2.7-1.5c1-0.5,1.7-1,2.7-1.5c2.9-1.5,5.1-2.7,7.3-3.7
			c0.7-0.5,1.7-0.7,2.7-1c0,0,0,0-0.2,0.2c-0.5,0.2-0.7,0.5-1.2,0.7c-4.4,2.7-7.6,6.1-10.7,9.8c-3.2,3.4-5.9,7.3-8.1,11.5
			c-0.2,0.5-0.5,1-0.7,1.5c0.2,0.2,0.2,0.5,0.2,0.5c0,0.2,0,0.7,0,1c0.2,1.2,1,2.2,2.2,2.4c0.5,0.2,0.7,0.2,1.2,0.5
			c0.7,0.2,1.5,0.5,2.2,0.7c0.5,0.2,1.2,0.2,1.7,0.5c0.7,0.2,1.2,0.2,2,0.5c3.9,1.2,7.1,3.7,9.5,7.3c0.7,1.2,1.5,2.4,2.2,3.7
			c2,4.1,3.7,8.5,5.1,14.4c1.5,5.6,2.4,11.2,2.9,17.1c0.5,6.1,0.5,12.4,0.2,19c-0.5,11.2-3.2,22.7-7.8,34.2
			c-3.2,8.1-6.3,15.1-9.8,21.5c-7.1,13.9-15.9,26.1-26.6,36.6c-8.8,8.8-19.3,16.6-31.2,22.9c-4.9,2.7-10.2,4.6-15.9,5.9
			c-3.7,0.7-7.1,1.2-10.7,1.2c-0.5,0-1,0-1.5,0c-3.7,0-6.6-0.2-9.3-0.7c-3.7-0.5-6.8-1-9.8-2c-1-0.2-2-0.2-2.7-0.2s-1.5,0-2.2,0.2
			c-2.7,0.5-5.4,1.2-7.8,2.4c-0.9,0.4-1.8,0.8-2.6,1.2v3.2c1.6-0.8,3.3-1.6,4.8-2.2c2.2-1,4.6-1.7,7.1-2.2c0.5,0,1.2-0.2,1.7-0.2
			c0.7,0,1.5,0,2.2,0.2c3.4,1,6.6,1.5,10,2c3.2,0.5,6.3,0.5,9.5,0.7c0.5,0,1,0,1.5,0c3.9,0,7.6-0.5,11.2-1.2
			c5.9-1.2,11.2-3.2,16.3-6.1c11.7-6.3,22.2-13.9,31.7-23.2c11-11,19.8-23.4,26.8-37.3c3.7-7.1,6.8-14.4,9.8-21.7
			c4.6-11.2,7.3-22.7,8.1-34.9c0.2-6.6,0.2-12.9-0.2-19.5c-0.5-5.9-1.5-11.7-2.9-17.6c-1.2-5.1-2.9-10.2-5.4-14.9
			c-0.7-1.5-1.5-2.7-2.2-3.9c-2.7-3.9-6.1-6.8-10.7-8.3c-1.2-0.5-2.4-0.7-3.7-1c-1.2-0.2-2.2-0.7-3.4-1c-0.5-0.2-0.5-0.5-0.7-0.7
			c0-0.2,0-0.2,0.2-0.5c0.2-0.5,0.2-0.7,0.5-1.2c2.2-3.9,4.6-7.8,7.6-11c3.2-3.4,6.1-6.8,10.2-9.3c0.5-0.2,1-0.5,1.2-1
			c0.2-0.2,0.5-0.5,0.7-0.7c0.5-0.7,0.7-1.7,0.2-2.4c-0.5-0.7-1-1-1.7-1c-0.2,0-0.5,0-0.5,0c-1.2,0.5-2.4,0.7-3.7,1.2
			c-2.4,1.2-5.1,2.4-7.6,3.7c-1.7,1-3.4,2-5.1,2.9c-2.2,1.2-4.4,2.2-6.8,3.2c-0.5,0.2-1,0.2-1.2,0.2c-2.2-2-4.9-2.9-7.8-3.4
			c-2-0.2-3.9-0.7-5.9-1.2c-1-1-2.2-1.7-2.9-2.9c0-0.5,0-1,0-1.5c0.2-2.7-0.5-5.4-1.7-7.8c-1.2-2.4-2.9-4.6-5.1-6.6
			c-2.7-2.4-5.6-4.9-8.5-6.8c-3.4-2.2-6.8-4.1-10.5-5.4c-6.1-2.2-12.4-3.4-19-3.9c-1.7,0.2-4.1,0-6.6,0c-5.4,0-11,0.2-16.3,1
			c-5.6,0.7-11,1.7-16.3,2.9c-1.6,0.4-3.2,0.8-4.8,1.3v2C5.9,123.3,7.4,122.9,8.9,122.6z"/>
		<path class="st1" d="M8.9,201.4c3.7,0,7.3-0.2,11.5-1c7.6-1.2,15.4-3.2,22.7-5.6c9.3-3.2,18.5-7.1,28.1-11.5
			c8.8-4.1,15.6-7.6,21.5-11c2.7-1.7,5.9-3.7,9-5.9c1-0.7,2-1.7,2.9-2.4l0.5-0.2c0.5-0.5,0.7-0.7,0.7-1c0,0,0-0.2,0.2-0.2
			c0.5-0.5,0.5-1.2,0.2-2c-0.5-2-1.7-2.9-2.9-3.9c-0.2-0.2-0.5-0.2-0.7-0.5c-0.2,0-0.5,0-0.7-0.2c-0.5-0.2-1.2-0.2-2-0.5
			c-4.4-0.7-8.8-1.5-12.9-2l-1.7-0.2c-3.7-0.5-7.8-1-12.7-1.2c-3.7-0.2-8.1-0.7-12.2-1c-5.4-0.2-10.5-0.2-15.4-0.2
			c-7.6,0-14.6,0.2-21.5,0.7c-4.4,0.2-8.3,0.7-12,1.5c-2.4,0.5-4.8,0.9-7.3,1.4v2.9c3.1-0.6,6.1-1.2,9.2-1.8
			c3.9-0.7,7.8-1.2,11.7-1.5c7.1-0.5,14.2-0.7,21.2-0.7c5.1,0,10.2,0,15.4,0.2c4.1,0.2,8.1,0.5,12.2,1c4.1,0.5,8.3,0.7,12.7,1.2
			c4.9,0.5,9.8,1.2,14.4,2.2c1,0.2,1.7,0.5,2.4,0.5c1,0.7,1.7,1.5,2,2.7c-0.2,0.2-0.5,0.7-0.7,1c-1,1-2,1.7-3.2,2.7
			c-2.7,2.2-5.9,3.9-8.8,5.9c-6.8,4.1-14.2,7.6-21.5,11c-9.3,4.1-18.5,8.1-28.1,11.5c-7.3,2.7-14.6,4.4-22.2,5.6
			c-3.7,0.5-7.3,1-11,1c-1.5,0-2.7,0-4.1-0.2c-0.6,0-1.1-0.1-1.6-0.2v1.7c0.1,0,0.3,0,0.4,0C6.3,201.1,7.5,201.4,8.9,201.4z"/>
		<path class="st1" d="M83.9,134.8c-2.9-2.7-5.6-4.6-8.3-6.6c-3.2-2.2-6.6-3.9-10-5.1c-5.9-2-12-3.4-18.3-3.7
			c-2.4-0.2-4.9-0.2-7.1-0.2c-5.4,0-10.7,0.2-16.6,2.2c-5.9,0.7-11.2,1.7-16.1,2.9c-1,0.2-2.1,0.5-3.1,0.8v2.1c2-0.5,4-1,6-1.5
			c5.6-1.2,11.2-2.4,17.1-2.9c5.1-0.5,9.8-1,14.4-1c1,0,2,0,3.2,0c6.6,0.2,12.9,1,19,3.2c4.4,1.5,8.3,3.4,12,5.9
			c2.7,1.7,5.1,3.9,7.6,6.1c1.7,1.5,2.9,3.2,4.1,5.1c1,1.7,1.5,3.7,1,5.6c0,0.5-0.2,1-0.2,1.2c-0.7,1-2,1.2-2.9,1.5
			c-0.5,0-0.7,0-1,0s-0.5,0-0.5,0c-4.4-0.5-9-1-13.4-1.2c-4.9-0.2-9.8-0.5-14.6-0.7c-2.7,0-5.4,0-8.1,0c-2.9,0-5.9,0-8.8,0
			c-4.6,0-9.3,0.2-13.9,0.7c-5.9,0.5-11.7,1.5-17.6,2.7c-1.1,0.2-2.2,0.5-3.4,0.8v1.7c0.8-0.2,1.6-0.4,2.4-0.6
			c6.6-1.5,12.2-2.2,17.3-2.7c4.9-0.2,9.5-0.5,13.9-0.7c2.9,0,5.9,0,8.8,0c2.7,0,5.4,0,8.1,0c4.6,0,9.3,0.2,14.4,0.7
			c2.9,0.2,5.9,0.5,8.8,0.7c1.5,0.2,2.9,0.2,4.6,0.5c0.2,0,0.5,0,0.7,0c0.2,0,0.5,0,0.5,0c0.2,0,0.2,0,0.5,0s0.5,0,0.7-0.2
			c0.2,0,0.2,0,0.5-0.2c1-0.2,2.2-0.7,3.4-2.2c0.2-0.2,0.2-0.5,0.5-1v-0.2c0-0.2,0.2-0.7,0.2-1c0.2-0.9,0.2-1.8,0.2-2.7
			c-0.2-1.2-0.7-2.5-1.4-3.9C87.3,138.4,85.8,136.5,83.9,134.8z"/>
		<path class="st1" d="M4.4,125.1v-1.3"/>
		<path class="st1" d="M4.4,154.5v-0.3"/>
		<path class="st1" d="M7.5,124.3c4.9-1.2,10.2-2.2,16.1-2.9c5.9-2,11.2-2.2,16.6-2.2c2.2,0,4.6,0,7.1,0.2
			c6.3,0.2,12.4,1.7,18.3,3.7c3.4,1.2,6.8,2.9,10,5.1c2.7,2,5.4,3.9,8.3,6.6c2,1.7,3.4,3.7,4.6,5.9c0.7,1.4,1.2,2.6,1.4,3.9
			c-0.1-1.5-0.6-3.1-1.4-4.6c-1.2-2-2.7-3.9-4.4-5.6c-2.7-2.4-5.1-4.4-7.8-6.3c-3.9-2.7-8.1-4.6-12.7-6.1c-5.6-2-12-2.9-19.8-3.2
			c-1,0-2.2,0-3.2,0c-4.1,0-8.8,0.2-14.4,1c-5.6,0.7-11.5,1.7-17.3,2.9c-1.5,0.4-3.1,0.8-4.6,1.2v1.3C5.4,124.8,6.4,124.5,7.5,124.3
			z"/>
		<path class="st1" d="M89.7,147.2c0,0.2-0.2,0.7-0.2,1v0.2c-0.2,0.5-0.2,0.7-0.5,1c-1.2,1.5-2.4,2-3.4,2.2
			c-0.2,0.2-0.2,0.2-0.5,0.2c-0.2,0.2-0.5,0.2-0.7,0.2s-0.2,0-0.5,0c0,0-0.2,0-0.5,0c-0.2,0-0.5,0-0.7,0c-1.7-0.2-3.2-0.2-4.6-0.5
			c-2.9-0.2-5.9-0.5-8.8-0.7c-5.1-0.5-9.8-0.7-14.4-0.7c-2.7,0-5.4,0-8.1,0c-2.9,0-5.9,0-8.8,0c-4.4,0.2-9,0.5-13.9,0.7
			c-5.1,0.5-10.7,1.2-17.3,2.7c-0.8,0.2-1.6,0.4-2.4,0.6v0.3c2.5-0.5,4.9-0.9,7.3-1.4c3.7-0.7,7.6-1.2,12-1.5
			c6.8-0.5,13.9-0.7,21.5-0.7c4.9,0,10,0,15.4,0.2c4.1,0.2,8.5,0.7,12.2,1c4.9,0.2,9,0.7,12.7,1.2l1.7,0.2c4.1,0.5,8.5,1.2,12.9,2
			c0.7,0.2,1.5,0.2,2,0.5c0.2,0.2,0.5,0.2,0.7,0.2c0.2,0.2,0.5,0.2,0.7,0.5c1.2,1,2.4,2,2.9,3.9c0.2,0.7,0.2,1.5-0.2,2
			c-0.2,0-0.2,0.2-0.2,0.2c0,0.2-0.2,0.5-0.7,1l-0.5,0.2c-1,0.7-2,1.7-2.9,2.4c-3.2,2.2-6.3,4.1-9,5.9c-5.9,3.4-12.7,6.8-21.5,11
			c-9.5,4.4-18.8,8.3-28.1,11.5c-7.3,2.4-15.1,4.4-22.7,5.6c-4.1,0.7-7.8,1-11.5,1c-1.5,0-2.7-0.2-4.1-0.2c-0.1,0-0.3,0-0.4,0v1.8
			c0.3-0.2,0.6-0.4,0.9-0.6c0.5-0.2,0.7-0.2,1.2-0.2v0.2h1.7h2.4c2.9,0,5.9-0.2,9-0.7c8.8-1.2,18.1-3.7,28.3-7.6
			c12.9-4.9,24.6-10,35.9-15.6c4.9-2.7,9.5-5.1,14.2-8.1c0.2,0,0.7-0.2,1-0.2c0.5,0,0.7-0.2,1.2-0.2c0.7,0,1.7-0.2,2.7-0.2
			c0.5,0,1,0,1.5,0c0.2,0,0.7,0.2,1,0.5c0,0,0,0.2,0.2,0.2c0.2,0.2,0.5,0.7,1,1c1.5,1,2.9,2,4.6,2.7c1.5,0.5,2.7,1.2,4.1,1.7
			c1,0.5,2,0.7,2.9,1.2c0.7,0.2,1.7,0.5,2.4,0.7c5.4,1.7,9.3,5.1,12,10.2c1.7,3.2,2.9,6.6,4.1,10.2c2,6.1,3.2,12.2,3.9,18.5
			c0.2,2.7,0.5,5.6,0.5,9c0,2.7,0,5.4,0,7.8v1.2c0,3.4-0.5,6.8-0.7,10v1c-1,9-3.4,18.1-7.8,28.6c-3.4,7.8-6.3,14.4-9.5,20.5
			c-6.8,12.9-15.1,24.6-24.9,34.7c-8.8,9-19.5,17.1-31.5,23.7c-5.1,2.7-10.5,4.6-16.1,5.9c-3.4,0.7-7.1,1-11.5,1c-0.5,0-1,0-1.5,0
			c-11.3-0.2-22.3-3-33.4-8.3v10.2c0.9-0.4,1.7-0.8,2.6-1.2c2.4-1.2,5.1-2,7.8-2.4c0.7-0.2,1.5-0.2,2.2-0.2s1.7,0,2.7,0.2
			c2.9,1,6.1,1.5,9.8,2c2.7,0.5,5.6,0.7,9.3,0.7c0.5,0,1,0,1.5,0c3.7,0,7.1-0.5,10.7-1.2c5.6-1.2,11-3.2,15.9-5.9
			c12-6.3,22.5-14.2,31.2-22.9c10.7-10.5,19.5-22.7,26.6-36.6c3.4-6.3,6.6-13.4,9.8-21.5c4.6-11.5,7.3-22.9,7.8-34.2
			c0.2-6.6,0.2-12.9-0.2-19c-0.5-5.9-1.5-11.5-2.9-17.1c-1.5-5.9-3.2-10.2-5.1-14.4c-0.7-1.2-1.5-2.4-2.2-3.7
			c-2.4-3.7-5.6-6.1-9.5-7.3c-0.7-0.2-1.2-0.2-2-0.5c-0.5-0.2-1.2-0.2-1.7-0.5c-0.7-0.2-1.5-0.5-2.2-0.7c-0.5-0.2-0.7-0.2-1.2-0.5
			c-1.2-0.2-2-1.2-2.2-2.4c0-0.2,0-0.7,0-1c0,0,0-0.2-0.2-0.5c0.2-0.5,0.5-1,0.7-1.5c2.2-4.1,4.9-8.1,8.1-11.5
			c3.2-3.7,6.3-7.1,10.7-9.8c0.5-0.2,0.7-0.5,1.2-0.7c0.2-0.2,0.2-0.2,0.2-0.2c-1,0.2-2,0.5-2.7,1c-2.2,1-4.4,2.2-7.3,3.7
			c-1,0.5-1.7,1-2.7,1.5c-1,0.5-1.7,1-2.7,1.5c-2,1-4.4,2.2-7.1,3.2c-0.5,0-1,0.2-1.2,0.2s-0.2,0-0.5,0s-0.2,0-0.5,0
			c-0.5,0-1,0-1.5-0.5c-1.7-1.5-3.7-2.4-6.8-2.9c-1.5-0.2-2.7-0.5-4.1-0.7l-2-0.2c-0.2,0-0.7-0.2-1-0.5c-0.2,0-0.5-0.2-0.7-0.5
			c-1-0.7-2-1.7-2.7-2.9c-0.2-0.5-0.2-0.7-0.2-1.2c0-0.2,0-0.2,0-0.5c0-0.5,0-0.7,0-1.2c0.1-0.9,0.1-1.8-0.1-2.7
			C89.9,145.4,89.9,146.3,89.7,147.2z M7.7,358.7c0.2-0.5,0.2-1,0.2-1.7c0-0.5,0-1,0-1.5c0,0,0-0.2,0-0.2c1.5,0.7,2.9,1.2,4.4,1.7
			C10.9,357.4,9.2,357.9,7.7,358.7z"/>
	</g>
</g>
</svg>
