<?xml version="1.0" encoding="utf-8"?>
<!-- Generator: Adobe Illustrator 21.0.0, SVG Export Plug-In . SVG Version: 6.00 Build 0)  -->
<svg version="1.1" id="Laag_2" xmlns="http://www.w3.org/2000/svg" xmlns:xlink="http://www.w3.org/1999/xlink" x="0px" y="0px"
	 viewBox="0 0 113.4 117.3" style="enable-background:new 0 0 113.4 117.3;" xml:space="preserve">
<style type="text/css">
	.st0{fill:#DB8A3A;}
	.st1{fill:#DC8F43;}
	.st2{fill:none;}
</style>
<path class="st0" d="M15.7,39.5c1.5,0,3.1,0.1,4.6,0.3c1.6,0.2,3.4,0.6,5.6,1.1c2.7,0.7,5.4,1.5,8.7,2.6c2.1,0.7,4.7,1.6,7.3,2.2
	c1.9,0.5,3.4,0.7,4.8,0.8c0.6,0,1.1,0.1,1.7,0.1c1.5,0,3-0.1,4.7-0.4c3.1-0.5,6.3-1.3,9.3-2.3c3.8-1.3,7.6-2.9,11.5-4.7
	c3.6-1.7,6.4-3.1,8.8-4.5c1.1-0.7,2.4-1.5,3.7-2.4c0.4-0.3,0.8-0.7,1.2-1l0.2-0.1c0.2-0.2,0.3-0.3,0.3-0.4c0,0,0-0.1,0.1-0.1
	c0.2-0.2,0.2-0.5,0.1-0.8c-0.2-0.8-0.7-1.2-1.2-1.6c-0.1-0.1-0.2-0.1-0.3-0.2c-0.1,0-0.2,0-0.3-0.1c-0.2-0.1-0.5-0.1-0.8-0.2
	c-1.8-0.3-3.6-0.6-5.3-0.8l-0.7-0.1c-1.5-0.2-3.2-0.4-5.2-0.5c-1.5-0.1-3.3-0.3-5-0.4c-2.2-0.1-4.3-0.1-6.3-0.1
	c-3.1,0-6,0.1-8.8,0.3c-1.8,0.1-3.4,0.3-4.9,0.6c-2,0.4-4.1,0.8-6.2,1.2c-0.3,0.1-0.5,0.1-0.7,0.2c1.6-0.4,3.3-0.8,4.9-1.2
	c2.7-0.6,5-0.9,7.1-1.1c2-0.1,3.9-0.2,5.7-0.3c1.2,0,2.4,0,3.6,0c1.1,0,2.2,0,3.3,0c1.9,0,3.8,0.1,5.9,0.3c1.2,0.1,2.4,0.2,3.6,0.3
	c0.6,0.1,1.2,0.1,1.9,0.2c0.1,0,0.2,0,0.3,0c0.1,0,0.2,0,0.2,0c0.1,0,0.1,0,0.2,0s0.2,0,0.3-0.1c0.1,0,0.1,0,0.2-0.1
	c0.4-0.1,0.9-0.3,1.4-0.9c0.1-0.1,0.1-0.2,0.2-0.4v-0.1c0-0.1,0.1-0.3,0.1-0.4c0.2-1,0-2-0.5-3c-0.5-0.8-1.1-1.6-1.8-2.3
	c-1.1-1-2.1-1.8-3.2-2.6c-1.6-1.1-3.3-1.9-5.2-2.5c-2.3-0.8-4.9-1.2-8.1-1.3c-0.4,0-0.9,0-1.3,0c-1.7,0-3.6,0.1-5.9,0.4
	c-2.3,0.3-4.7,0.7-7.1,1.2c-5.9,1.4-11.8,3.5-17.5,6.1c-6,2.8-11.9,6.3-17.6,10.5c-1.4,1-3.2,2.4-4.9,4c-0.6,0.6-1.2,1.2-1.8,1.8
	c-0.3,0.3-0.7,0.8-0.9,1.4c-0.1,0.2-0.1,0.4,0,0.6L5.8,39c0.1,0.3,0.4,0.6,0.8,0.6c0.3,0,0.7,0,1,0c0.4,0,0.9,0,1.5-0.1
	c0.7,0,1.4-0.1,2.1-0.2c0.6,0,1.1-0.1,1.7-0.1C13.8,39.5,14.7,39.5,15.7,39.5 M47.4,46.9c-0.2,0-0.3,0-0.5,0.1
	c-1.4,0.9-1.5,0.9-2.5,2.1l-0.2,0.3c-0.3,0.4-0.6,0.8-1,1.2c-1.3,1.5-2.5,3.1-3.6,4.8c-1.5,2.3-3,4.7-4.3,7.1
	c-2.2,4-3.7,7.5-4.7,10.9c-0.7,2.4-1.5,5.2-1.8,8.2c-0.2,2.4-0.2,4.7,0.2,6.8c0.5,3.5,1.4,6.4,2.6,8.9c0.1,0.2,0.2,0.3,0.2,0.5
	c0.1,0.1,0.1,0.3,0.2,0.4c0.6,1.2,0.9,2.6,1.1,4c0.2,2.1,0.2,3.8,0.1,5.4c-0.1,1-0.1,2.1-0.1,2.9c0,0.5,0.1,0.9,0.1,1.4
	c0.2,1.1,0.9,2,2,2.4c0.2,0.1,0.4,0.1,0.6,0.2c0.8,0.2,1.6,0.3,2.6,0.3c0.3,0,0.7,0,1.1,0c0.7,0,1.2-0.2,1.7-0.4
	c1-0.4,1.8-0.7,2.5-1.1c0.4-0.2,0.9-0.5,1.4-0.9c0.7-0.6,1.2-1.3,1.3-2.1c0-0.1,0-0.2,0-0.3c0-0.1,0-0.1,0-0.2
	c-0.1-0.3-0.1-0.8-0.5-1.3c-0.1-0.1-0.1-0.2-0.2-0.2c0,0-0.1,0-0.1-0.1c-0.1-0.1-0.2-0.2-0.3-0.2c-0.7-0.5-1.4-1-2.1-1.5
	c0.6,0.3,1.2,0.6,1.7,0.9c5.1,2.7,10.1,4.1,15.3,4.2c0.2,0,0.4,0,0.6,0c1.8,0,3.3-0.1,4.7-0.4c2.3-0.5,4.5-1.3,6.6-2.4
	c4.9-2.7,9.3-6,12.9-9.7c4-4.1,7.4-8.9,10.2-14.2c1.3-2.5,2.5-5.2,3.9-8.4c1.8-4.3,2.8-8,3.2-11.7v-0.4c0.1-1.3,0.3-2.7,0.3-4.1
	v-0.5c0-1,0-2.1,0-3.2c0-1.4-0.1-2.6-0.2-3.7c-0.3-2.6-0.8-5.1-1.6-7.6c-0.5-1.5-1-2.9-1.7-4.2c-1.1-2.1-2.7-3.5-4.9-4.2
	c-0.3-0.1-0.7-0.2-1-0.3c-0.4-0.2-0.8-0.3-1.2-0.5c-0.6-0.2-1.1-0.5-1.7-0.7c-0.7-0.3-1.3-0.7-1.9-1.1c-0.2-0.1-0.3-0.3-0.4-0.4
	c-0.1,0-0.1-0.1-0.1-0.1c-0.1-0.1-0.3-0.2-0.4-0.2c-0.2,0-0.4,0-0.6,0c-0.4,0-0.8,0.1-1.1,0.1c-0.2,0-0.3,0.1-0.5,0.1
	c-0.1,0-0.3,0.1-0.4,0.1c-1.9,1.2-3.8,2.2-5.8,3.3c-4.6,2.3-9.4,4.4-14.7,6.4c-4.2,1.6-8,2.6-11.6,3.1c-1.3,0.2-2.5,0.3-3.7,0.3h-1
	h-0.7V46.9z M38.5,115.1c-0.9,0-1.8-0.1-2.7-0.3c-0.3-0.1-0.6-0.2-0.9-0.3c-1.2-0.5-1.8-1.4-2-2.8c-0.1-0.7-0.1-1.4-0.1-1.9
	c0-1.5,0.1-2.8,0.1-4.1c0-1.5-0.1-2.8-0.2-4c-0.1-1.1-0.4-2.1-0.8-3c-0.2-0.4-0.3-0.7-0.5-1c-0.9-1.9-1.6-4-2.3-6.8
	c-0.7-2.9-0.9-6-0.6-9.4c0.2-2.2,0.7-4.3,1.1-6c1.3-4.9,3.3-9.6,6.1-14.5c1-1.8,2.2-3.7,3.4-5.5c1.5-2.2,3.3-4.3,5.3-6.3
	c0.2-0.2,0.3-0.3,0.5-0.5l0.2-0.2c0.3-0.3,0.3-0.7,0.2-1.1l-0.1-0.2c-0.1-0.2-0.4-0.4-0.6-0.5c-0.2,0-0.4-0.1-0.7-0.1
	c-0.5-0.1-1-0.2-1.5-0.3c-2.4-0.5-4.7-1.3-6.7-2c-2.6-0.9-5.5-1.9-8.4-2.6c-2.5-0.7-4.5-1.1-6.4-1.4c-0.9-0.1-2-0.3-3.2-0.3
	c-0.8,0-1.5,0-2.2,0c-1,0-2,0-2.9,0.1c-1.1,0.1-2.3,0.2-3.4,0.3l-0.6,0.1c-0.4,0-0.7,0-1.1,0c-0.5,0-1,0-1.5-0.1
	c-0.2,0-0.4-0.1-0.6-0.2C5.1,40,5,39.8,5,39.5c0-0.2,0-0.3,0.1-0.5c0.1-0.4,0.4-0.8,0.8-1.3c0.5-0.6,1-1.2,1.8-1.9
	c1.2-1.1,2.6-2.3,4-3.3c5.8-4.4,11.6-8,17.6-10.9s12.2-5.1,18.5-6.6c2-0.5,4.2-0.9,6.6-1.2c2.4-0.8,4.6-0.9,6.8-0.9
	c0.9,0,1.9,0,2.9,0.1c2.6,0.1,5.1,0.7,7.5,1.5c1.4,0.5,2.8,1.2,4.1,2.1c1.1,0.8,2.2,1.6,3.4,2.7c0.8,0.7,1.4,1.5,1.9,2.4
	c0.5,1,0.7,1.8,0.6,2.7c0,0.2,0,0.3,0,0.5c0,0.1,0,0.1,0,0.2c0,0.2,0,0.3,0.1,0.5c0.3,0.5,0.7,0.9,1.1,1.2c0.1,0.1,0.2,0.2,0.3,0.2
	c0.1,0.1,0.3,0.2,0.4,0.2l0.8,0.1c0.6,0.1,1.1,0.2,1.7,0.3c1.3,0.2,2.1,0.6,2.8,1.2C89,29,89.2,29,89.4,29c0.1,0,0.1,0,0.2,0
	s0.1,0,0.2,0s0.3-0.1,0.5-0.1c1.1-0.4,2.1-0.9,2.9-1.3c0.4-0.2,0.7-0.4,1.1-0.6s0.7-0.4,1.1-0.6c1.2-0.6,2.1-1.1,3-1.5
	c0.3-0.2,0.7-0.3,1.1-0.4c0,0,0,0-0.1,0.1c-0.2,0.1-0.3,0.2-0.5,0.3c-1.8,1.1-3.1,2.5-4.4,4c-1.3,1.4-2.4,3-3.3,4.7
	c-0.1,0.2-0.2,0.4-0.3,0.6c0.1,0.1,0.1,0.2,0.1,0.2l0,0c0,0.1,0,0.3,0,0.4c0.1,0.5,0.4,0.9,0.9,1c0.2,0.1,0.3,0.1,0.5,0.2
	c0.3,0.1,0.6,0.2,0.9,0.3c0.2,0.1,0.5,0.1,0.7,0.2c0.3,0.1,0.5,0.1,0.8,0.2c1.6,0.5,2.9,1.5,3.9,3c0.3,0.5,0.6,1,0.9,1.5
	c0.8,1.7,1.5,3.5,2.1,5.9c0.6,2.3,1,4.6,1.2,7c0.2,2.5,0.2,5.1,0.1,7.8c-0.2,4.6-1.3,9.3-3.2,14c-1.3,3.3-2.6,6.2-4,8.8
	c-2.9,5.7-6.5,10.7-10.9,15c-3.6,3.6-7.9,6.8-12.8,9.4c-2,1.1-4.2,1.9-6.5,2.4c-1.5,0.3-2.9,0.5-4.4,0.5c-0.2,0-0.4,0-0.6,0
	c-1.5,0-2.7-0.1-3.8-0.3c-1.5-0.2-2.8-0.4-4-0.8c-0.4-0.1-0.8-0.1-1.1-0.1s-0.6,0-0.9,0.1c-1.1,0.2-2.2,0.5-3.2,1
	c-1,0.4-1.9,0.9-2.8,1.3c-1.2,0.6-2.2,1-3,1.3C40.7,114.9,39.6,115.1,38.5,115.1"/>
<path class="st1" d="M47.1,109.7c0.6,0.3,1.2,0.5,1.8,0.7c-0.6,0.2-1.3,0.4-1.9,0.7c0.1-0.2,0.1-0.4,0.1-0.7
	C47.1,110.2,47.1,110,47.1,109.7C47.1,109.8,47.1,109.7,47.1,109.7 M99.7,25.3L99.7,25.3L99.7,25.3z"/>
<line class="st2" x1="415.2" y1="7.9" x2="-91.1" y2="7.9"/>
<line class="st2" x1="-91.1" y1="120.4" x2="415.2" y2="120.4"/>
<path class="st1" d="M49.6,47.8c1.3,0,2.6-0.2,3.8-0.3c4.1-0.6,8-1.7,11.8-3.1c5-1.9,10-4,14.8-6.5c2-1,4-2.1,5.9-3.3
	c0.5-0.1,1-0.2,1.5-0.2c0.1,0,0.3,0,0.4,0c0.2,0.1,0.4,0.3,0.6,0.4c0.7,0.6,1.4,1,2.2,1.3c1,0.4,2,0.8,3,1.2c0.3,0.1,0.7,0.3,1,0.4
	c2,0.6,3.4,1.9,4.3,3.7c0.7,1.3,1.2,2.7,1.7,4.1c0.8,2.4,1.3,4.9,1.6,7.5c0.1,1.2,0.2,2.4,0.2,3.6c0,1.2,0,2.4,0,3.6
	c0,1.5-0.2,2.9-0.3,4.4c-0.4,4-1.6,7.8-3.1,11.5c-1.2,2.8-2.4,5.6-3.8,8.3c-2.7,5.1-6,9.8-10,14c-3.7,3.8-8,6.9-12.7,9.5
	c-2,1.1-4.1,1.9-6.3,2.3c-1.5,0.3-3,0.4-4.5,0.4c-0.2,0-0.4,0-0.6,0c-5.3-0.1-10.2-1.6-14.9-4.1c-1.9-1-3.7-2-5.4-3.2
	c-0.9-0.6-1.7-1.2-2.6-1.8c-0.2-0.1-0.3-0.3-0.5-0.3h-0.1c0,0.1-0.1,0.1,0,0.2c0.2,0.3,0.3,0.6,0.6,0.8c0.6,0.8,1.3,1.6,2.1,2.2
	c1.7,1.5,3.5,2.9,5.4,4.2c0.2,0.1,0.3,0.2,0.4,0.3c0.3,0.4,0.3,0.8,0.4,1.1c-0.1,0.6-0.4,1.1-0.9,1.5c-0.4,0.3-0.8,0.6-1.2,0.8
	c-0.8,0.4-1.6,0.7-2.4,1.1c-0.4,0.2-0.9,0.3-1.4,0.3c-0.4,0-0.7,0-1.1,0c-0.8,0-1.6-0.1-2.3-0.3c-0.2,0-0.4-0.1-0.5-0.2
	c-0.8-0.3-1.3-0.8-1.4-1.7c-0.1-0.4-0.1-0.8-0.1-1.2c0-1,0-1.9,0.1-2.9c0.1-1.8,0-3.7-0.1-5.5c-0.1-1.5-0.5-3-1.1-4.4
	c-0.1-0.3-0.3-0.6-0.4-0.9c-1.3-2.7-2.1-5.7-2.6-8.7c-0.3-2.2-0.4-4.4-0.1-6.6c0.3-2.7,0.9-5.4,1.7-8c1.1-3.8,2.8-7.3,4.6-10.7
	c1.3-2.4,2.7-4.7,4.2-7c1.1-1.6,2.3-3.2,3.5-4.7c0.4-0.5,0.8-1,1.2-1.4c0.9-1.1,0.9-1.1,2.3-1.9H49C49.2,47.8,49.4,47.8,49.6,47.8
	L49.6,47.8z M8.2,39c-0.3,0-0.6,0-1,0c0-0.1-0.1-0.2-0.1-0.3c0.2-0.4,0.4-0.8,0.7-1.1c0.6-0.6,1.1-1.2,1.7-1.7
	c1.5-1.4,3.1-2.7,4.8-3.9c5.5-4,11.3-7.6,17.4-10.4C37.3,19,43,17,49,15.6c2.3-0.5,4.6-1,7-1.2c2.1-0.2,4-0.4,5.9-0.4
	c0.4,0,0.8,0,1.3,0c2.7,0.1,5.3,0.4,7.8,1.3c1.8,0.6,3.4,1.4,4.9,2.4c1.1,0.7,2.1,1.6,3.1,2.5c0.7,0.6,1.2,1.3,1.7,2.1
	c0.4,0.7,0.6,1.5,0.4,2.3c0,0.2-0.1,0.4-0.1,0.5c-0.3,0.4-0.8,0.5-1.2,0.6c-0.2,0-0.3,0-0.4,0s-0.2,0-0.2,0
	c-1.8-0.2-3.7-0.4-5.5-0.5c-2-0.1-4-0.2-6-0.3c-1.1,0-2.2,0-3.3,0c-1.2,0-2.4,0-3.6,0c-1.9,0-3.8,0.1-5.7,0.3
	c-2.4,0.2-4.8,0.6-7.2,1.1c-4.2,0.9-8.3,2.1-12.3,3.5c-1.9,0.7-3.8,1.5-5.6,2.4c-0.8,0.4-1.6,0.9-2.3,1.4c-0.3,0.2-0.7,0.5-0.9,0.8
	c0,0.1,0.1,0.1,0.1,0.1H27c0.7-0.3,1.5-0.7,2.2-1c2-0.9,4-1.6,6-2.2c2.9-0.9,5.9-1.6,8.9-2.2c2.1-0.4,4.1-0.8,6.2-1.2
	c1.6-0.3,3.2-0.5,4.8-0.6c2.9-0.2,5.8-0.3,8.7-0.3c2.1,0,4.2,0,6.3,0.1c1.7,0.1,3.3,0.2,5,0.4c1.7,0.2,3.4,0.3,5.2,0.5
	c2,0.2,4,0.5,5.9,0.9c0.4,0.1,0.7,0.2,1,0.2c0.4,0.3,0.7,0.6,0.8,1.1c-0.1,0.1-0.2,0.3-0.3,0.4c-0.4,0.4-0.8,0.7-1.3,1.1
	c-1.1,0.9-2.4,1.6-3.6,2.4C80,35.8,77,37.2,74,38.6c-3.8,1.7-7.6,3.3-11.5,4.7c-3,1.1-6,1.8-9.1,2.3c-1.5,0.2-3,0.4-4.5,0.4
	c-0.6,0-1.1,0-1.7-0.1c-1.6-0.1-3.1-0.4-4.7-0.8c-2.4-0.6-4.8-1.4-7.2-2.2c-2.9-1-5.8-1.9-8.8-2.7c-1.9-0.5-3.8-0.9-5.7-1.1
	c-1.6-0.2-3.1-0.3-4.7-0.3c-1,0-1.9,0-2.9,0.1c-1.2,0.1-2.5,0.2-3.7,0.3C9.2,39,8.7,39,8.2,39 M61.9,11.9c-2.2,0-4.5,0.1-6.7,0.4
	c-2.3,0.3-4.5,0.7-6.7,1.2c-6.5,1.6-12.7,3.8-18.7,6.7c-6.3,3-12.2,6.7-17.7,11c-1.4,1.1-2.8,2.2-4.1,3.4c-0.7,0.6-1.3,1.3-1.9,2
	c-0.4,0.5-0.7,1-1,1.6C5,38.6,5,38.9,5,39.2c0,0.6,0.3,1.1,0.8,1.5c0.3,0.2,0.6,0.3,0.9,0.4c0.5,0.1,1.1,0.1,1.6,0.1
	c0.4,0,0.8,0,1.1-0.1c1.3-0.1,2.6-0.2,4-0.3c0.9,0,1.9-0.1,2.8-0.1c0.7,0,1.4,0,2.2,0c1,0,2.1,0.2,3.1,0.3c2.1,0.3,4.2,0.8,6.3,1.4
	c2.8,0.8,5.6,1.7,8.3,2.6c2.2,0.8,4.5,1.5,6.8,2c0.7,0.2,1.4,0.3,2.1,0.4c0,0.1,0.1,0.1,0.1,0.2c-0.2,0.2-0.4,0.5-0.7,0.7
	c-2,2-3.8,4.1-5.4,6.5c-1.2,1.8-2.4,3.6-3.5,5.5c-2.7,4.7-4.8,9.5-6.2,14.7c-0.5,2-1,4.1-1.2,6.2c-0.3,3.3-0.1,6.5,0.6,9.7
	c0.6,2.4,1.3,4.8,2.4,7c0.2,0.3,0.3,0.7,0.5,1c0.4,0.9,0.6,1.8,0.7,2.8c0.2,1.3,0.2,2.6,0.2,3.9c0,1.4,0,2.7-0.1,4.1
	c0,0.7,0,1.4,0.1,2.1c0.2,1.6,1.1,2.8,2.6,3.5c0.3,0.1,0.7,0.3,1,0.4c1,0.2,1.9,0.3,2.9,0.3c1.2,0,2.4-0.2,3.5-0.6s2.1-0.8,3.2-1.3
	c0.9-0.4,1.9-0.9,2.8-1.3c0.9-0.4,1.9-0.7,2.9-0.9c0.2,0,0.5-0.1,0.7-0.1c0.3,0,0.6,0,0.9,0.1c1.4,0.4,2.7,0.6,4.1,0.8
	c1.3,0.2,2.6,0.2,3.9,0.3c0.2,0,0.4,0,0.6,0c1.6,0,3.1-0.2,4.6-0.5c2.4-0.5,4.6-1.3,6.7-2.5c4.8-2.6,9.1-5.7,13-9.5
	c4.5-4.5,8.1-9.6,11-15.3c1.5-2.9,2.8-5.9,4-8.9c1.9-4.6,3-9.3,3.3-14.3c0.1-2.7,0.1-5.3-0.1-8c-0.2-2.4-0.6-4.8-1.2-7.2
	c-0.5-2.1-1.2-4.2-2.2-6.1c-0.3-0.6-0.6-1.1-0.9-1.6c-1.1-1.6-2.5-2.8-4.4-3.4c-0.5-0.2-1-0.3-1.5-0.4c-0.5-0.1-0.9-0.3-1.4-0.4
	c-0.2-0.1-0.2-0.2-0.3-0.3c0-0.1,0-0.1,0.1-0.2c0.1-0.2,0.1-0.3,0.2-0.5c0.9-1.6,1.9-3.2,3.1-4.5c1.3-1.4,2.5-2.8,4.2-3.8
	c0.2-0.1,0.4-0.2,0.5-0.4c0.1-0.1,0.2-0.2,0.3-0.3c0.2-0.3,0.3-0.7,0.1-1c-0.2-0.3-0.4-0.4-0.7-0.4c-0.1,0-0.2,0-0.2,0
	c-0.5,0.2-1,0.3-1.5,0.5c-1,0.5-2.1,1-3.1,1.5c-0.7,0.4-1.4,0.8-2.1,1.2c-0.9,0.5-1.8,0.9-2.8,1.3c-0.2,0.1-0.4,0.1-0.5,0.1
	c-0.9-0.8-2-1.2-3.2-1.4c-0.8-0.1-1.6-0.3-2.4-0.5c-0.4-0.4-0.9-0.7-1.2-1.2c0-0.2,0-0.4,0-0.6c0.1-1.1-0.2-2.2-0.7-3.2
	s-1.2-1.9-2.1-2.7c-1.1-1-2.3-2-3.5-2.8c-1.4-0.9-2.8-1.7-4.3-2.2c-2.5-0.9-5.1-1.4-7.8-1.6C63.9,12,62.9,11.9,61.9,11.9 M48,109.7
	c0.6,0.3,1.2,0.5,1.8,0.7c-0.6,0.2-1.3,0.4-1.9,0.7c0.1-0.2,0.1-0.4,0.1-0.7C48,110.2,48,110,48,109.7C48,109.8,48,109.7,48,109.7
	 M100.7,25.3L100.7,25.3L100.7,25.3z"/>
</svg>
