<svg xmlns="http://www.w3.org/2000/svg" xmlns:xlink="http://www.w3.org/1999/xlink" viewBox="0 0 318.66 177.91"><defs><style>.cls-1{fill:none;}.cls-2{clip-path:url(#clip-path);}.cls-3,.cls-4{fill:#fff;}.cls-4{font-size:64px;font-family:UniSansThinCAPS, Uni Sans;}.cls-5{letter-spacing:-0.03em;}.cls-6{letter-spacing:-0.01em;}.cls-7{letter-spacing:-0.03em;}</style><clipPath id="clip-path" transform="translate(-8.67 -5)"><rect class="cls-1" x="-83" y="5" width="506.34" height="112.48"/></clipPath></defs><title>logo</title><g id="Laag_1" data-name="Laag 1"><g class="cls-2"><path class="cls-3" d="M20.32,36.6a36.9,36.9,0,0,1,4.59.29A45.8,45.8,0,0,1,30.53,38c2.66.67,5.42,1.51,8.69,2.64,2.09.72,4.68,1.62,7.26,2.24a29.19,29.19,0,0,0,4.83.82c.56,0,1.14.06,1.73.06a30.35,30.35,0,0,0,4.65-.38A50.54,50.54,0,0,0,67,41c3.76-1.34,7.63-2.92,11.53-4.7a97,97,0,0,0,8.85-4.5A36.64,36.64,0,0,0,91,29.43c.41-.31.79-.65,1.16-1l.16-.14a1.84,1.84,0,0,0,.35-.45l.06-.09a.92.92,0,0,0,.13-.77,2.86,2.86,0,0,0-1.19-1.55.92.92,0,0,0-.33-.15l-.29-.07L90.29,25c-1.77-.34-3.57-.57-5.31-.78l-.65-.08c-1.51-.19-3.16-.36-5.2-.54-1.55-.14-3.3-.29-5-.36-2.23-.09-4.31-.13-6.35-.13-3.09,0-6,.1-8.78.29a44.17,44.17,0,0,0-4.93.61c-2,.37-4.12.78-6.2,1.22l-.75.16q2.44-.66,4.92-1.19a50.52,50.52,0,0,1,7.08-1.06c2-.14,3.91-.23,5.7-.26,1.21,0,2.41,0,3.56,0s2.2,0,3.26,0c1.86,0,3.79.13,5.92.29,1.2.09,2.43.22,3.61.34l1.86.19.33,0h.44a.92.92,0,0,0,.33-.06l.21-.07a2.61,2.61,0,0,0,1.38-.86.93.93,0,0,0,.17-.36l0-.11c0-.11.06-.25.09-.39a4.16,4.16,0,0,0-.49-3,9.36,9.36,0,0,0-1.84-2.28,27.94,27.94,0,0,0-3.21-2.57,20.72,20.72,0,0,0-5.17-2.54,29,29,0,0,0-8.08-1.3l-1.31,0a51.84,51.84,0,0,0-5.89.38,59.94,59.94,0,0,0-7.07,1.24,92.9,92.9,0,0,0-17.47,6.06A100.79,100.79,0,0,0,17.87,28.4a57.16,57.16,0,0,0-4.88,4c-.62.58-1.21,1.19-1.75,1.77a4.28,4.28,0,0,0-.93,1.38.92.92,0,0,0,0,.63l.09.25a.92.92,0,0,0,.79.62c.33,0,.66,0,1,0s.91,0,1.52-.06l2.07-.17,1.68-.14c.95-.07,1.9-.11,2.84-.11M52.07,44a.92.92,0,0,0-.48.14,7,7,0,0,0-2.48,2.09l-.24.28-1,1.15a50.84,50.84,0,0,0-3.6,4.76c-1.53,2.29-3,4.67-4.27,7.08a57.65,57.65,0,0,0-4.68,10.92,43.11,43.11,0,0,0-1.76,8.15,27.84,27.84,0,0,0,.15,6.84,30.6,30.6,0,0,0,2.63,8.93l.24.5.18.39a11.77,11.77,0,0,1,1.06,4A35.29,35.29,0,0,1,38,104.7c-.07,1-.08,2.05-.09,2.93A8.6,8.6,0,0,0,38,109a3,3,0,0,0,2,2.41,5.91,5.91,0,0,0,.62.2,10,10,0,0,0,2.58.31c.35,0,.72,0,1.12,0A5.38,5.38,0,0,0,46,111.5c1-.41,1.77-.75,2.48-1.1a7.65,7.65,0,0,0,1.37-.88,3.11,3.11,0,0,0,1.26-2.07.94.94,0,0,0,0-.31l0-.18a3,3,0,0,0-.47-1.27.93.93,0,0,0-.22-.22l-.08-.06-.34-.24c-.69-.46-1.39-1-2.1-1.49l1.69.93a32.79,32.79,0,0,0,15.3,4.18h.61a22.1,22.1,0,0,0,4.66-.43,24,24,0,0,0,6.55-2.42,55,55,0,0,0,12.93-9.65A58.56,58.56,0,0,0,99.81,82.12c1.29-2.5,2.55-5.25,3.85-8.41A42.36,42.36,0,0,0,106.84,62l0-.39a40.78,40.78,0,0,0,.31-4.11v-.53c0-1,0-2.1,0-3.16,0-1.43-.13-2.61-.24-3.71a40.55,40.55,0,0,0-1.59-7.63,26.61,26.61,0,0,0-1.72-4.24A7.91,7.91,0,0,0,98.75,34a10,10,0,0,1-1-.34l-1.23-.52-1.73-.73a6.81,6.81,0,0,1-1.91-1.15l-.45-.36-.14-.11a.92.92,0,0,0-.43-.19,3.67,3.67,0,0,0-.57,0,6.4,6.4,0,0,0-1.11.12l-.47.07a.93.93,0,0,0-.39.14c-1.86,1.17-3.76,2.24-5.82,3.28a151,151,0,0,1-14.68,6.43,52.51,52.51,0,0,1-11.62,3.08,27.76,27.76,0,0,1-3.73.33H52.07Zm-9,68.18a12.65,12.65,0,0,1-2.71-.31,4.64,4.64,0,0,1-.86-.31,3.31,3.31,0,0,1-2-2.76,11.62,11.62,0,0,1-.07-1.94c0-1.46.07-2.81.09-4.11a27.46,27.46,0,0,0-.22-4,11.26,11.26,0,0,0-.81-3c-.16-.37-.32-.72-.48-1a30.8,30.8,0,0,1-2.3-6.8,30,30,0,0,1-.6-9.39,34.92,34.92,0,0,1,1.14-6A58.94,58.94,0,0,1,40.36,58c1-1.82,2.21-3.66,3.43-5.46A45.53,45.53,0,0,1,49,46.24l.48-.49.21-.21a.92.92,0,0,0,.16-1.06l-.13-.25a.92.92,0,0,0-.63-.48l-.67-.14L47,43.29a66.17,66.17,0,0,1-6.68-2c-2.57-.87-5.47-1.86-8.38-2.64a57.22,57.22,0,0,0-6.36-1.39A26.21,26.21,0,0,0,22.39,37c-.79,0-1.5,0-2.19,0-1,0-2,0-2.86.07-1.13.06-2.28.16-3.39.25l-.61.05c-.38,0-.72,0-1.05,0a8.47,8.47,0,0,1-1.47-.12,1.52,1.52,0,0,1-.58-.22.76.76,0,0,1-.39-.71,1.61,1.61,0,0,1,.12-.55,4.71,4.71,0,0,1,.81-1.34,17,17,0,0,1,1.81-1.89c1.22-1.13,2.57-2.25,4-3.35A101.13,101.13,0,0,1,34.18,18.29a93.56,93.56,0,0,1,18.5-6.63,66.29,66.29,0,0,1,6.64-1.23A48.46,48.46,0,0,1,65.88,10c.94,0,1.91,0,2.87.08a25.65,25.65,0,0,1,7.5,1.53,19.85,19.85,0,0,1,4.12,2.12,28.65,28.65,0,0,1,3.44,2.73,8.73,8.73,0,0,1,1.9,2.44,4.6,4.6,0,0,1,.62,2.66,3.64,3.64,0,0,0,0,.5c0,.06,0,.12,0,.18a.92.92,0,0,0,.13.48,4.91,4.91,0,0,0,1.1,1.17l.28.24a.92.92,0,0,0,.45.22l.77.15,1.65.31A5.33,5.33,0,0,1,93.46,26a.92.92,0,0,0,.62.24l.21,0,.16,0a3.5,3.5,0,0,0,.48-.12,22.1,22.1,0,0,0,2.94-1.34l1.05-.58c.37-.21.72-.4,1.08-.59,1.2-.63,2.14-1.09,3-1.51a8.66,8.66,0,0,1,1.12-.41l-.06.05a4.6,4.6,0,0,1-.45.32,20,20,0,0,0-4.36,4A22.6,22.6,0,0,0,96,30.67c-.1.2-.19.4-.26.57a1.59,1.59,0,0,0-.1.34v0a1,1,0,0,0,0,.38,1.3,1.3,0,0,0,.88,1l.5.17.87.29.73.22.75.23a7.36,7.36,0,0,1,3.91,3,13.53,13.53,0,0,1,.87,1.52,28.33,28.33,0,0,1,2.13,5.93,41.82,41.82,0,0,1,1.16,7,59.85,59.85,0,0,1,.08,7.84,43.29,43.29,0,0,1-3.2,14c-1.34,3.3-2.64,6.17-4,8.79A58.68,58.68,0,0,1,89.47,97a54.94,54.94,0,0,1-12.75,9.37,24.19,24.19,0,0,1-6.48,2.37,21.55,21.55,0,0,1-4.44.46h-.62a36.31,36.31,0,0,1-3.76-.27,32.21,32.21,0,0,1-4-.77,4.44,4.44,0,0,0-1.14-.15,4.82,4.82,0,0,0-.9.09,13.89,13.89,0,0,0-3.16,1c-1,.44-1.93.9-2.82,1.33a26,26,0,0,1-3,1.28,10.14,10.14,0,0,1-3.23.52" transform="translate(-8.67 -5)"/><path class="cls-3" d="M53.27,45a28.78,28.78,0,0,0,3.85-.33,53.55,53.55,0,0,0,11.83-3.14A153.26,153.26,0,0,0,83.71,35c2-1,4-2.11,5.89-3.32a13,13,0,0,1,1.48-.19,2.87,2.87,0,0,1,.43,0c.16.12.37.28.56.44a7.76,7.76,0,0,0,2.17,1.3c1,.4,2,.84,3,1.25a10.91,10.91,0,0,0,1,.37,7,7,0,0,1,4.31,3.71,25.57,25.57,0,0,1,1.66,4.09,39.48,39.48,0,0,1,1.55,7.45c.13,1.21.2,2.43.24,3.64s0,2.43,0,3.65a44,44,0,0,1-.34,4.41,42,42,0,0,1-3.12,11.48c-1.16,2.83-2.41,5.62-3.82,8.34a57.33,57.33,0,0,1-10,14A53.8,53.8,0,0,1,76,105.12a23,23,0,0,1-6.3,2.33,21.45,21.45,0,0,1-4.46.41h-.59a32.1,32.1,0,0,1-14.88-4.07,59.27,59.27,0,0,1-5.42-3.2c-.88-.6-1.75-1.23-2.63-1.84-.15-.1-.29-.26-.49-.26h-.08c0,.07-.05.15,0,.19a8.93,8.93,0,0,0,.55.82,16.61,16.61,0,0,0,2.13,2.24,53.51,53.51,0,0,0,5.42,4.18l.39.28a2.63,2.63,0,0,1,.36,1.11,2.2,2.2,0,0,1-.92,1.46,6.87,6.87,0,0,1-1.2.78c-.79.39-1.61.74-2.42,1.07a4.47,4.47,0,0,1-1.4.29c-.36,0-.71,0-1.06,0a9.07,9.07,0,0,1-2.34-.28,5,5,0,0,1-.52-.17,2.07,2.07,0,0,1-1.43-1.68,7.73,7.73,0,0,1-.11-1.21c0-1,0-1.92.09-2.87a36.54,36.54,0,0,0-.12-5.52,12.61,12.61,0,0,0-1.15-4.36c-.14-.3-.28-.6-.42-.9a29.75,29.75,0,0,1-2.55-8.66,26.77,26.77,0,0,1-.14-6.62,41.83,41.83,0,0,1,1.73-8A57.42,57.42,0,0,1,40.59,60q1.94-3.6,4.22-7a49.73,49.73,0,0,1,3.53-4.67l1.21-1.44A6.15,6.15,0,0,1,51.82,45h1.45ZM11.95,36.14c-.32,0-.64,0-1,0l-.09-.25a3.38,3.38,0,0,1,.74-1.08c.56-.59,1.12-1.18,1.71-1.73a55.53,55.53,0,0,1,4.8-3.91A99.31,99.31,0,0,1,35.59,18.72a91.51,91.51,0,0,1,17.29-6,58.86,58.86,0,0,1,7-1.22,51.26,51.26,0,0,1,5.79-.38l1.27,0a28.36,28.36,0,0,1,7.83,1.26,19.7,19.7,0,0,1,4.94,2.43,27.2,27.2,0,0,1,3.11,2.48,8.53,8.53,0,0,1,1.66,2.05,3.22,3.22,0,0,1,.39,2.34c0,.18-.08.35-.11.47a2.25,2.25,0,0,1-1.19.64h-.68c-1.83-.18-3.66-.41-5.5-.54s-4-.25-6-.29q-1.64,0-3.28,0t-3.58,0c-1.92,0-3.83.13-5.74.26a52,52,0,0,0-7.21,1.08,93.33,93.33,0,0,0-12.31,3.51,43.74,43.74,0,0,0-5.57,2.43,18.32,18.32,0,0,0-2.35,1.45,4.56,4.56,0,0,0-.91.78c0,.1.08.13.13.13l.1,0c.73-.35,1.45-.72,2.19-1a48.71,48.71,0,0,1,6-2.17c2.93-.87,5.9-1.59,8.89-2.22q3.08-.64,6.18-1.21a43.77,43.77,0,0,1,4.82-.59c2.91-.2,5.81-.29,8.72-.29,2.1,0,4.21,0,6.31.13,1.66.06,3.31.21,5,.35s3.45.32,5.17.54c2,.25,4,.48,5.9.85.36.07.72.17,1,.24a2,2,0,0,1,.84,1.05,2.06,2.06,0,0,1-.26.37c-.41.37-.82.75-1.26,1.08A35.57,35.57,0,0,1,86.6,31a97.48,97.48,0,0,1-8.76,4.45c-3.75,1.71-7.57,3.28-11.45,4.67a49.38,49.38,0,0,1-9.09,2.3,29.59,29.59,0,0,1-4.51.37q-.83,0-1.66-.06A28.77,28.77,0,0,1,46.44,42c-2.44-.59-4.81-1.4-7.17-2.21-2.89-1-5.8-1.92-8.77-2.67A47.43,47.43,0,0,0,24.76,36a37.69,37.69,0,0,0-4.7-.29q-1.46,0-2.91.11c-1.25.09-2.5.22-3.75.31-.49,0-1,.06-1.46.06M65.63,9.06a49.2,49.2,0,0,0-6.68.45,67.51,67.51,0,0,0-6.73,1.24,94,94,0,0,0-18.69,6.7,102.86,102.86,0,0,0-17.74,11c-1.41,1.07-2.77,2.2-4.07,3.4a18.2,18.2,0,0,0-1.91,2,5.65,5.65,0,0,0-1,1.61,2.5,2.5,0,0,0-.17.86,1.68,1.68,0,0,0,.81,1.48,2.43,2.43,0,0,0,.92.35,9.42,9.42,0,0,0,1.63.13c.38,0,.75,0,1.13-.05,1.32-.11,2.65-.23,4-.3.94,0,1.88-.07,2.81-.07.72,0,1.44,0,2.16,0a25,25,0,0,1,3.08.31,57.25,57.25,0,0,1,6.26,1.37c2.81.76,5.57,1.69,8.32,2.63a66.36,66.36,0,0,0,6.78,2c.72.16,1.44.3,2.14.45l.13.25-.68.7A46.2,46.2,0,0,0,42.77,52q-1.84,2.7-3.47,5.52a60.22,60.22,0,0,0-6.19,14.73,35.63,35.63,0,0,0-1.17,6.18,31.05,31.05,0,0,0,.62,9.67,32.23,32.23,0,0,0,2.37,7c.16.33.32.67.46,1a10.42,10.42,0,0,1,.74,2.76,26.68,26.68,0,0,1,.21,3.86q0,2-.09,4.09a12.29,12.29,0,0,0,.08,2.1,4.22,4.22,0,0,0,2.57,3.48,5.43,5.43,0,0,0,1,.37,13.52,13.52,0,0,0,2.91.33,11,11,0,0,0,3.53-.57,27.32,27.32,0,0,0,3.16-1.32c.93-.45,1.86-.89,2.8-1.32a12.89,12.89,0,0,1,2.95-.92,3.92,3.92,0,0,1,.73-.07,3.54,3.54,0,0,1,.91.12,33.3,33.3,0,0,0,4.12.79,37.51,37.51,0,0,0,3.86.28h.64a22.43,22.43,0,0,0,4.63-.48,25,25,0,0,0,6.72-2.46,55.6,55.6,0,0,0,13-9.52,59.33,59.33,0,0,0,11-15.26c1.47-2.89,2.78-5.86,4-8.86a44,44,0,0,0,3.27-14.27,60.34,60.34,0,0,0-.08-8,42.48,42.48,0,0,0-1.18-7.19,29.49,29.49,0,0,0-2.2-6.12,14.15,14.15,0,0,0-.94-1.63A8.32,8.32,0,0,0,99.38,33l-1.48-.45-1.36-.45a.38.38,0,0,1-.26-.32,1.26,1.26,0,0,1,.05-.21c.07-.17.15-.34.23-.5a21.6,21.6,0,0,1,3.13-4.54,19.21,19.21,0,0,1,4.16-3.78,5.6,5.6,0,0,0,.54-.38,2.13,2.13,0,0,0,.32-.31.89.89,0,0,0-.65-1.46.78.78,0,0,0-.23,0,10.71,10.71,0,0,0-1.45.53c-1,.49-2.05,1-3.06,1.53-.72.37-1.41.79-2.13,1.17a21,21,0,0,1-2.81,1.28,5.32,5.32,0,0,1-.54.13,6.32,6.32,0,0,0-3.21-1.4l-2.42-.46A5.87,5.87,0,0,1,87,22.22a5.81,5.81,0,0,1,0-.59,5.52,5.52,0,0,0-.72-3.19,9.7,9.7,0,0,0-2.1-2.69,29.64,29.64,0,0,0-3.55-2.82,20.65,20.65,0,0,0-4.32-2.22,26.49,26.49,0,0,0-7.77-1.59q-1.46-.08-2.92-.08M51.74,106.82q.88.39,1.75.72a14.5,14.5,0,0,0-1.85.68,3.81,3.81,0,0,0,.15-.66,1.85,1.85,0,0,0,0-.61l0-.12m52.62-84.4h0Z" transform="translate(-8.67 -5)"/><path class="cls-3" d="M169.27,114.87a5.55,5.55,0,0,1-1.26-.15,10.72,10.72,0,0,1-5.27-3.18s0-.13-.07-.25a14.38,14.38,0,0,0,4.16-1,12.35,12.35,0,0,0,3.49-2.4l.86.68a10.81,10.81,0,0,0,4.35,2.1c.17,0,.34.1.51.13a.57.57,0,0,1,.48.37c.09.25-.09.4-.26.53-.45.35-.89.7-1.35,1a12.82,12.82,0,0,1-4.5,2.06,5.37,5.37,0,0,1-1.15.13M143.7,102.74a1.06,1.06,0,0,1-.39-.05A9.81,9.81,0,0,1,138.48,99a6.63,6.63,0,0,1-1-5c0-.24.12-.48.15-.73.07-.59.3-.74.63-.74l.3,0c1,.16,2,.36,3.07.55A12.06,12.06,0,0,0,145,99.51c-.23.59-.48,1.11-.64,1.64s-.21,1-.32,1.59h-.37M154.24,50a2.51,2.51,0,0,0,0-1,11.28,11.28,0,0,1,1.12-6,8.62,8.62,0,0,1,.78-1.27,2.66,2.66,0,0,1,1.65-1.07c1.17-.27,2.31-.67,3.49-.9,1.53-.3,3.07-.51,4.62-.69a6.85,6.85,0,0,1,.79,0,6.08,6.08,0,0,1,3.2.89,4.49,4.49,0,0,1,1,.89.69.69,0,0,1-.27,1.14c-.38.18-.79.31-1.18.47A7.94,7.94,0,0,0,167,44c-.2.19-.43.38-.34.7a.31.31,0,0,0,.2.07.94.94,0,0,0,.32-.1,20.46,20.46,0,0,1,3.17-.85c.73-.14,1.44-.36,2.17-.48a13.55,13.55,0,0,1,2.32-.2l.86,0c1.27.08,2.55.13,3.82.18h0a2.08,2.08,0,0,0,.45-.13,3.82,3.82,0,0,0-2.24-1.2c-.8-.25-1.62-.4-2.44-.59,0-.1,0-.19.09-.22a8.79,8.79,0,0,1,2.52-1.34,7.73,7.73,0,0,1,2.15-.32,7.45,7.45,0,0,1,4,1.24c.45.28.88.6,1.31.9a9.83,9.83,0,0,1,2.89,3.22l.58,1a1.11,1.11,0,0,0,.52-.94c.07-.46.11-.91.18-1.37.12-.85.41-1.2,1.25-1.35a9.07,9.07,0,0,1,1.6-.15,7.28,7.28,0,0,1,2.19.33,3.69,3.69,0,0,1,1.67,1.09,7.14,7.14,0,0,1,1.59,2.73,15.88,15.88,0,0,1,.44,2,4,4,0,0,1-.19,2.43L199,53.2h.11a.11.11,0,0,0,.07,0,1.4,1.4,0,0,1,1-.42,1.75,1.75,0,0,1,1,.35,8.14,8.14,0,0,1,1.42,1.11,15.16,15.16,0,0,1,4,7.62,2.58,2.58,0,0,1-.2,1.86c-.23.4-.45.59-.78.59a1.49,1.49,0,0,1-.44-.08,2.9,2.9,0,0,1-1.39-.93q-1.4-1.67-2.85-3.29a45.72,45.72,0,0,0-4-3.94l-.86-.71a2.22,2.22,0,0,0,.13.57c.46.71.93,1.43,1.42,2.12a52.33,52.33,0,0,1,3.2,5,20.34,20.34,0,0,1,1.71,4,11.9,11.9,0,0,1-1,9.26,8.8,8.8,0,0,1-2.29,2.48,2.38,2.38,0,0,1-.58.26,3.09,3.09,0,0,0-.47.24.67.67,0,0,0-.28.75.61.61,0,0,0,.49.5,2.86,2.86,0,0,0,.63.07,2.62,2.62,0,0,0,1.23-.3,5.1,5.1,0,0,0,1.29-.91,5.79,5.79,0,0,1,2.07-1.17c.19,3.38-2.12,9.27-4.3,11.08-.2-.3-.07-.62-.09-.91s0-.71-.06-1.06-.1-.63-.16-.94-.12-.63-.21-.93-.22-.67-.34-1-.22-.6-.33-.9-.24-.67-.37-1-.26-.58-.4-.87-.28-.57-.44-.85a10.58,10.58,0,0,0-.56-.9c-.18-.25-.4-.47-.62-.74-.17.53-.17.53-.09.92l.91,4a11.28,11.28,0,0,1-.31,6A8,8,0,0,1,194.58,93a3.68,3.68,0,0,1-1.84,1.2,11.59,11.59,0,0,1-2.69.57,3.61,3.61,0,0,0-.68.17,2.48,2.48,0,0,0,.32.47,3.08,3.08,0,0,0,1.35.58l.77.16a2,2,0,0,1-.09.42,9.9,9.9,0,0,1-4.61,4.53,1.76,1.76,0,0,1-.46.07,17.32,17.32,0,0,0-.66-5.29,6.28,6.28,0,0,0-.33-.78s-.12-.06-.18-.09-.18.19-.19.31a58,58,0,0,1-.62,6.23,10,10,0,0,1-1.75,4.4,4.65,4.65,0,0,1-3.72,1.94h-.47a12.21,12.21,0,0,1-2.27-.25,4.82,4.82,0,0,1-2.61-1.33c-.59-.6-1.12-1.28-1.67-1.92a1.15,1.15,0,0,1-.2-1.1c.17-.72.28-1.46.4-2.19a.92.92,0,0,0-.15-.66,1.88,1.88,0,0,0-.34.27,6.16,6.16,0,0,0-.4.63c-.88,1.54-2,2.94-3,4.4a7.23,7.23,0,0,1-8.65,2.3,9.35,9.35,0,0,1-3-2,19.34,19.34,0,0,1-3.46-4.94c-.12-.23-.15-.53-.43-.66-.22.12-.17.32-.18.48a8.69,8.69,0,0,0,.5,3.23,16.19,16.19,0,0,0,2.3,4.48,2.31,2.31,0,0,1-1.22.35h-.49a9.88,9.88,0,0,1-3.17-.48,6.28,6.28,0,0,1-4.3-5.54,3.38,3.38,0,0,1,.15-1.15c.08-.3.23-.44.46-.44a1,1,0,0,1,.36.08c.26.11.51.25.76.38a9.24,9.24,0,0,0,2.49.89,9.41,9.41,0,0,0,1,.08c-.53-.49-1-.7-1.42-1s-.83-.67-1.21-1-.73-.77-1.08-1.17-.75-.85-1.09-1.3-.59-.88-.87-1.34-.55-.91-.82-1.36a8.41,8.41,0,0,1-.71-1.36.31.31,0,0,1,.27-.19,1.12,1.12,0,0,1,.23,0,10.44,10.44,0,0,0,2.15.21,16.39,16.39,0,0,0,2.39-.19,5.6,5.6,0,0,0,2.09-.74,3.6,3.6,0,0,0,.46-.42,3.47,3.47,0,0,0-.47-.13h-.42l-.88,0a21.44,21.44,0,0,1-8.63-1.84,4.52,4.52,0,0,1-.76-.38,20.88,20.88,0,0,1-5.12-4.74c-.4-.54-.71-1.14-1.05-1.72a1.25,1.25,0,0,0-.44-.5,3.51,3.51,0,0,0,0,.66,15.58,15.58,0,0,0,1.81,4.18c.16.27.31.54.47.8a.34.34,0,0,1-.24.11.67.67,0,0,1-.28-.09,8.56,8.56,0,0,1-3.84-3.55,12.42,12.42,0,0,1-1.59-6,2.47,2.47,0,0,1,1-2.25l1,.38a6.7,6.7,0,0,0,0-1.49c0-.46,0-.92,0-1.41a.4.4,0,0,0-.07-.16A6.18,6.18,0,0,1,131,70.15a9.21,9.21,0,0,1,1-4.31,5.76,5.76,0,0,1,.73-1.29,4.93,4.93,0,0,0,1-3.05c0-.6.13-1.19.2-1.79a5.61,5.61,0,0,1-1.39-4.3,8.7,8.7,0,0,1,1.77-4.7c.34-.45.69-.89,1-1.33,0,0,.12,0,.25-.09-.07.43-.13.84-.21,1.24a7.47,7.47,0,0,0,.25,4c.37,1.07.68,2.16,1,3.24a6.21,6.21,0,0,0,.28.63c.28,0,.23-.19.23-.31,0-.85,0-1.7.07-2.55a12.17,12.17,0,0,1,1.49-5.27A7.6,7.6,0,0,1,140.46,48a16.12,16.12,0,0,1,4.65-2.65,7.08,7.08,0,0,0,.52,4.38h0c.31,0,.31-.2.36-.35.41-1.05.78-2.13,1.24-3.16a24.92,24.92,0,0,1,1.25-2.34,10.24,10.24,0,0,1,.74-1h0a1.91,1.91,0,0,1,1.36.61,12,12,0,0,1,2,2.5,5.29,5.29,0,0,1,.37,1.1c.27.8.55,1.61.83,2.4a.62.62,0,0,0,.42.48M178,37.41a3,3,0,0,1,.33-.38,14,14,0,0,1,4-2.06c1.37-.47,2.77-.85,4.14-1.31a17.27,17.27,0,0,0,2.16-.86,6.13,6.13,0,0,0,2.86-2.88c.11-.23.16-.53.43-.7.72,2.36-1.62,9.74-4.07,12.19a8.42,8.42,0,0,0-4.24-3.53,10.4,10.4,0,0,0-3.62-.62,13.88,13.88,0,0,0-2,.16m4.28-4.6c.66-1,1.28-1.77,1.78-2.64s.87-1.82,1.32-2.77a7.12,7.12,0,0,1,.21,4.44l-1.56.48-1.75.49M154.24,22.33a5.53,5.53,0,0,1-.08.67,29.38,29.38,0,0,0-1,5.51,17.8,17.8,0,0,0,.38,5.26,3.6,3.6,0,0,1,.06.41s0,.07,0,.1a20.33,20.33,0,0,1-3-3.75,52.14,52.14,0,0,1,3.71-8.21M148.46,40a4.22,4.22,0,0,1-.36-.46A14.44,14.44,0,0,0,146,36.91c-.79-.81-1.58-1.62-2.34-2.46a13.85,13.85,0,0,1-3.21-5.79,9.32,9.32,0,0,1-.18-3.9,28,28,0,0,1,1.44-5.43c0-.12.13-.24.32-.59a33.32,33.32,0,0,0,1.14,4.65,23.47,23.47,0,0,0,3.69,6.89c1.19,1.54,2.33,3.12,3.46,4.7a15.91,15.91,0,0,1,2.43,4.91.36.36,0,0,1-.28.15,1.07,1.07,0,0,1-.4-.16,4,4,0,0,0-1.62-.37,3.49,3.49,0,0,0-.87.11,11.89,11.89,0,0,0-1.15.42m14.44-20.5.72-5.85c.1,0,.19,0,.2.05.22.63.44,1.27.62,1.91a1.18,1.18,0,0,1,0,.72c-.44,1-.91,2.06-1.38,3.08,0,0-.06,0-.15.08m-6.48,18.86a2,2,0,0,1-.08-.48,8.38,8.38,0,0,1,1-3.23q1.47-2.76,3-5.48c1-1.78,2.12-3.52,3.13-5.3a47.34,47.34,0,0,0,4.85-12.08c.06-.24.14-.47.22-.7l.17,0c.11.55.23,1.1.33,1.65.66,3.59,1.61,7.1,2.53,10.63.43,1.64.89,3.28,1.25,4.94a17.15,17.15,0,0,1,.37,6.22,9.47,9.47,0,0,1-1.4,3.7,5.73,5.73,0,0,1-.52-.26,9,9,0,0,0-4.88-1.4h-.05a33.28,33.28,0,0,0-6.31.77,15.8,15.8,0,0,0-3.25,1,2.07,2.07,0,0,1-.38.07M168.49,5a3.9,3.9,0,0,0-.32.59c-.53,1.46-1.06,2.93-1.56,4.4-.34,1-.62,2-.95,3-.05.17,0,.42-.37.5-.17-.42-.34-.83-.5-1.25s-.31-.86-.46-1.3-.27-.81-.4-1.21-.26-.88-.41-1.32A2.9,2.9,0,0,0,163,7.19a1.39,1.39,0,0,0-.17.32c-.15,1-.31,2-.45,2.94-.25,1.79-.48,3.58-.72,5.37-.33,2.49-.67,5-1,7.48a4.49,4.49,0,0,1-.59,1.79c-1.4,2.38-2.77,4.78-4.15,7.17-.07.11-.15.22-.28.41a3.6,3.6,0,0,1-.27-1.32,32.23,32.23,0,0,1,.53-9c.39-1.87.86-3.72,1.28-5.59,0-.21.22-.45,0-.71a9.1,9.1,0,0,0-.76.59,16.94,16.94,0,0,0-1.19,1.21A31.19,31.19,0,0,0,151.12,24c-.63,1.23-1.2,2.49-1.81,3.73-.1.21-.24.41-.41.69-.25-.32-.45-.55-.63-.81a21.1,21.1,0,0,1-3.33-7.75,31.06,31.06,0,0,1-.68-7.07c0-.22.16-.5-.2-.68-.22.26-.46.52-.67.8a35,35,0,0,0-3.29,5.2,22,22,0,0,0-2.1,5.65,12.3,12.3,0,0,0,.3,6.19,16.92,16.92,0,0,0,4,6.58c.73.77,1.51,1.5,2.21,2.29.56.63,1.06,1.32,1.56,2a8.45,8.45,0,0,1,.54,1c-.41.09-.64.16-.88.21A20.5,20.5,0,0,0,141,43.67a10.67,10.67,0,0,0-3.24,2.19,2,2,0,0,1-1.19.61,3.77,3.77,0,0,0-1,.35,9,9,0,0,0-5.19,6.09,8.68,8.68,0,0,0,1.16,7.61,4.81,4.81,0,0,1,.29.52c-.44.59-.85,1.12-1.23,1.67a12.56,12.56,0,0,0-2.33,6.73,10,10,0,0,0,1.29,5.61c.12.21.23.42.3.56-.35.73-.69,1.35-1,2a9.21,9.21,0,0,0-.31,5.54A11.36,11.36,0,0,0,135,91.54c.19.09.36.2.52.29a1,1,0,0,1,0,.16c0,.07,0,.14-.05.2a8.44,8.44,0,0,0,.59,6.2,12.33,12.33,0,0,0,3.16,4.09,13,13,0,0,0,4.61,2.55,1.33,1.33,0,0,1,1,.84,8.21,8.21,0,0,0,5.7,5,11.34,11.34,0,0,0,3,.42l.67,0c1.52-.1,3-.27,4.55-.4l.8,0c.23.48.39.91.62,1.31a7.76,7.76,0,0,0,.86,1.21,12.81,12.81,0,0,0,4.11,3.14,9.58,9.58,0,0,0,4.12,1,8,8,0,0,0,.82,0,10.68,10.68,0,0,0,3.34-1,17,17,0,0,0,4.53-3.12c.7-.65,1.41-1.29,2.1-2a5.13,5.13,0,0,1,1.88-1.15,7.84,7.84,0,0,0,4.76-4.56c.22-.52.39-1.06.58-1.59l.25-.71a5.87,5.87,0,0,0,3.23-1.52,15.86,15.86,0,0,0,3.43-3.61c.4-.58.81-1.16,1.18-1.77a5.38,5.38,0,0,1,1.44-1.67,2.25,2.25,0,0,0,.52-.53,3.43,3.43,0,0,1,1-.88A14.74,14.74,0,0,0,204.07,87a25.54,25.54,0,0,0,1.56-3.95c.75-2.7,1.09-5.42,0-8.08a.86.86,0,0,1,0-.16c.06-.13.12-.26.19-.38a25,25,0,0,0,2.93-7.93,14.23,14.23,0,0,0-.14-6.32,17.75,17.75,0,0,0-2.32-5.1,10.62,10.62,0,0,0-5.51-4.77c0-.24,0-.45,0-.66-.07-.81-.1-1.63-.23-2.43A9.64,9.64,0,0,0,198.06,42a5.73,5.73,0,0,0-3.42-1.77,5.11,5.11,0,0,0-.75-.05,8.69,8.69,0,0,0-1.88.25,5.6,5.6,0,0,1-.67.06c.15-.34.26-.6.39-.85a24.69,24.69,0,0,0,2.21-6.29,13.67,13.67,0,0,0-.37-7.54,26.44,26.44,0,0,0-4.84-8.31c-.08-.09-.15-.24-.29-.24l-.08,0c0,.05,0,.09,0,.12.09.23.17.46.27.69a20.5,20.5,0,0,1,1.78,8,8.24,8.24,0,0,1-.18,1.9,4.23,4.23,0,0,1-1.84,2.75,2.78,2.78,0,0,1-.45.18c0-.33,0-.57,0-.8a25.38,25.38,0,0,0-.21-2.64,43.25,43.25,0,0,0-2.38-8.25,11.54,11.54,0,0,0-.8-1.49c-.06-.1-.13-.22-.26-.22a.27.27,0,0,0-.14,0,.89.89,0,0,0,0,.21,14.77,14.77,0,0,1,0,5.18c-.22,1.15-.52,2.28-.78,3.41a10.92,10.92,0,0,1-1.91,4,27.82,27.82,0,0,1-4.55,4.74,1.46,1.46,0,0,1-.37.16c-.13-1-.23-2-.38-2.9a97.92,97.92,0,0,0-2.34-9.81c-1.56-5.74-3.45-11.38-4.83-17.17,0-.16-.07-.35-.39-.36m9.78,105h.17l-.11.1-.06-.11m19.8-19h0m-43.21-51.2.08.08-.08.08c0-.05,0-.11,0-.16" transform="translate(-8.67 -5)"/><path class="cls-3" d="M296.67,17.81c-.53,0-1.07,0-1.6.05l-1.09.06c-.92.05-1.86.1-2.8.22s-2.26.3-3.48.55A60.61,60.61,0,0,0,279,21.25a45,45,0,0,0-7.21,3.34,32.86,32.86,0,0,0-7.25,5.68l0,0a1.41,1.41,0,0,0-.52,1,1,1,0,0,0,.41.87,1,1,0,0,0,.59.2h.12c.19,0,.37,0,.56-.09a35.4,35.4,0,0,1,4-.63c1.6-.16,3.31-.31,5-.33l4.68,0h3.25c.49,0,.94,0,1.38-.07a13.32,13.32,0,0,1,1.4-.08,9.18,9.18,0,0,1,1,.05,21.83,21.83,0,0,0,2.45.12h1.87c2.87,0,5.79.1,8.62.19l1.94.06h.48l1.9.1c1.38.07,2.81.15,4.23.2s2.68.07,4,.07c2.51,0,5-.09,7.37-.26.66,0,1.34-.13,2-.23s1.14-.2,1.82-.37a6.26,6.26,0,0,0,1.92-.78,1.61,1.61,0,0,0,.78-1.07,1,1,0,0,0-.09-.67l0-.08a2.65,2.65,0,0,0-.31-.51,6.34,6.34,0,0,0-1.48-1.28l-.05,0c-.8-.53-1.63-1.08-2.49-1.58A70.36,70.36,0,0,0,312,20.56a36.14,36.14,0,0,0-10.11-2.39c-.82-.08-1.65-.15-2.45-.21l-.81-.06c-.66-.05-1.33-.08-2-.08M275,31.73a55.23,55.23,0,0,0-8.38.69,15.43,15.43,0,0,0-3,.79,6.35,6.35,0,0,0-1.88,1.09,9.5,9.5,0,0,0-1.74,1.94,1.26,1.26,0,0,0-.15,1.21,1,1,0,0,0,.39.47,2.84,2.84,0,0,1,1.2,1.14,7.49,7.49,0,0,1,.85,1.53,8.56,8.56,0,0,0,1.16,2,1.45,1.45,0,0,0,.35.32h0a1,1,0,0,0,.57.18h.07a1.32,1.32,0,0,0,1-.53v0l.76-.94a28.33,28.33,0,0,1,9.12-7.54c.24-.12.46-.26.67-.39a1,1,0,0,0,.45-.74v0a1,1,0,0,0-.87-1.15h-.08a3.48,3.48,0,0,0-.41,0ZM260,30h-.18l-.7.1-.48.07a35.51,35.51,0,0,0-7.88,2.21l-.3.13a38,38,0,0,0-8.36,5.36,53.37,53.37,0,0,0-5.14,5,34.7,34.7,0,0,0-6.73,11.28,37.76,37.76,0,0,0-2.46,12,30.85,30.85,0,0,0,.13,4,36.49,36.49,0,0,0,1.4,6.94,35.42,35.42,0,0,0,6.8,12.68,43.66,43.66,0,0,0,5.53,5.44,40.15,40.15,0,0,0,9.86,6.07c1.41.6,2.94,1.19,4.66,1.79a66,66,0,0,0,13.46,3.38c1.41.18,3.27.4,5.19.48,1.3.05,2.3.08,3.25.08a38.56,38.56,0,0,0,4.28-.22,31.9,31.9,0,0,0,4-.66,17.87,17.87,0,0,0,8.62-4.78,33.85,33.85,0,0,0,2.9-3.26,76.88,76.88,0,0,0,6.83-10.57,33.62,33.62,0,0,0,2.13-4.86,45.8,45.8,0,0,0,2.44-12.88,48.89,48.89,0,0,0-.43-8.63c-.16-1.25-.39-2.51-.6-3.73l-.11-.62a40.75,40.75,0,0,0-1.6-6.28,34.3,34.3,0,0,0-8.46-13.57,17.43,17.43,0,0,0-6.4-4,21.68,21.68,0,0,0-4.57-1.06,15.14,15.14,0,0,0-4,.08,17.45,17.45,0,0,0-3.16.79A30.59,30.59,0,0,0,270.44,38a33.28,33.28,0,0,0-4,3.91c-.68.79-1.46,1.63-2.45,2.62a21.81,21.81,0,0,1-5.41,3.94,36.21,36.21,0,0,1-4.41,1.92l-2.47.88-2.54.91a33,33,0,0,0-4.55,2,13.73,13.73,0,0,0-2.19,1.47,10.46,10.46,0,0,0-3.49,5.09c-.42,1.36-.85,2.81-1.18,4.32a35.33,35.33,0,0,1,.69-4,9.54,9.54,0,0,1,2.25-4.25A13.57,13.57,0,0,1,244.07,54a23.84,23.84,0,0,1,2.29-1.14c1.29-.57,2.61-1,4.08-1.54l4-1.39h0a1.56,1.56,0,0,0,1-.89,1,1,0,0,0,.07-.53l-.12-.85-.32-2.19-.07-.45c-.07-.47-.14-.92-.18-1.37a6.88,6.88,0,0,1,.13-2.43,3.25,3.25,0,0,1,1.88-2.35l.93-.39.6-.24.37-.18.1-.05a1,1,0,0,0,.46-.48,8.86,8.86,0,0,0,.61-1.75c.07-.33.18-.67.28-1l0-.13.67-2.17.23-.75v0a1.43,1.43,0,0,0,0-1.07,1,1,0,0,0-.78-.59h0a2.2,2.2,0,0,0-.32,0m17.37,77.62c-1.72,0-3.54-.11-5.73-.33-1.08-.11-2.18-.24-3.28-.41a56.06,56.06,0,0,1-6.54-1.4,89.92,89.92,0,0,1-9.44-3.17,43.31,43.31,0,0,1-18.12-13.85,37.68,37.68,0,0,1-7.08-18.86,31.51,31.51,0,0,1,.08-5.94,40.88,40.88,0,0,1,3-11.44,35.54,35.54,0,0,1,6.19-9.8,51,51,0,0,1,5.5-5.33,33.11,33.11,0,0,1,7.36-4.66,47.51,47.51,0,0,1,7.06-2.64,17.13,17.13,0,0,1,4.61-.73,1.5,1.5,0,0,0,.48-.09l.05,0a1,1,0,0,0,.64-.57l.05-.13c.05-.13.11-.27.17-.42s.19-.56.26-.8a8.54,8.54,0,0,1,3.62-4.72,15.62,15.62,0,0,1,1.44-.86,46.4,46.4,0,0,1,4.54-2.16c1.64-.67,3.33-1.36,5-2.09l-1.78.78c-.71.31-1.45.61-2.16.9l-1.66.69A43.67,43.67,0,0,0,266.94,22a10.56,10.56,0,0,0-2.58,2.12,7.33,7.33,0,0,0-1.49,2.51l-.54,1.55-.43,1.24c0,.12-.07.22-.09.32v.05A1,1,0,0,0,262.4,31l.05,0a1,1,0,0,0,1.07-.25l.1-.1.29-.32a30.94,30.94,0,0,1,8-6.47,49,49,0,0,1,8.3-3.69c1.79-.62,3.46-1.13,5.11-1.56h0a1.63,1.63,0,0,0,1-.59,1,1,0,0,0,.1-1,2.4,2.4,0,0,0,.71.54,1,1,0,0,0,.35.1h.1a3.87,3.87,0,0,0,.52,0h.46c.7,0,1.43-.06,2.16-.13,2.2-.21,4.15-.31,6-.31.88,0,1.74,0,2.57.07,1.06.06,2.11.18,3.09.29s2,.28,2.89.42a32.92,32.92,0,0,1,7.45,2.16,66,66,0,0,1,9.4,4.68c.76.47,1.52,1,2.25,1.5l.08.06a6.58,6.58,0,0,1,1.28,1.18,2.65,2.65,0,0,1,.53,1,1.61,1.61,0,0,1-.45,1.71,4.32,4.32,0,0,1-.78.57,6.31,6.31,0,0,1-1.59.65,16.16,16.16,0,0,1-2.94.54c-.8.08-1.62.13-2.41.18l-1,.06c-1.63.11-3.3.16-5.1.16h-1.33c-1,0-2-.05-3-.09h-.24l-4.64-.19L299.84,32l-2.57-.11h-.14l-1,0h-.55a1,1,0,0,0-.92,1.15h0a1.06,1.06,0,0,0,.38.68,6.18,6.18,0,0,0,.57.4,17.59,17.59,0,0,1,2.79,2.21,33.55,33.55,0,0,1,6.44,8.56A38.74,38.74,0,0,1,308.27,54a66.49,66.49,0,0,1,1.24,6.89A54.57,54.57,0,0,1,310,67.8a44.36,44.36,0,0,1-.86,8.84c-.28,1.42-.59,2.72-.94,4a35.81,35.81,0,0,1-2.9,7.22,76.85,76.85,0,0,1-6.93,10.71,33.19,33.19,0,0,1-3,3.36,18.48,18.48,0,0,1-8.51,4.77,31.34,31.34,0,0,1-5,.81c-1.24.11-2.58.17-4.1.17h-.34" transform="translate(-8.67 -5)"/><path class="cls-3" d="M238.69,76h0v0Zm0,0h0Zm25.45-33.8h0a.73.73,0,0,1-.17-.14,7.67,7.67,0,0,1-1-1.78,8.35,8.35,0,0,0-1-1.72,3.67,3.67,0,0,0-1.46-1.39l0,0a.35.35,0,0,1,.06-.35A8.65,8.65,0,0,1,262.09,35a5.44,5.44,0,0,1,1.62-.92,14.54,14.54,0,0,1,2.85-.74,54.39,54.39,0,0,1,8.24-.68h0a3.78,3.78,0,0,1,.4,0,.06.06,0,0,1,.06.07c0,.07,0,.12,0,.14-.19.12-.39.24-.59.35A29.11,29.11,0,0,0,265.21,41l-.75.92a.44.44,0,0,1-.33.22h0M277.89,106c-1.07,0-2.14,0-3.22-.08-1.71-.07-3.41-.25-5.11-.47a65.68,65.68,0,0,1-13.27-3.33c-1.55-.54-3.09-1.12-4.6-1.77a39,39,0,0,1-9.63-5.93,43.11,43.11,0,0,1-5.42-5.32A34.31,34.31,0,0,1,230,76.78,35.44,35.44,0,0,1,228.66,70a29.81,29.81,0,0,1-.13-3.85,37,37,0,0,1,2.41-11.66,33.93,33.93,0,0,1,6.55-11,52.24,52.24,0,0,1,5-4.93,37.39,37.39,0,0,1,8.16-5.23l.24-.1a34.51,34.51,0,0,1,7.67-2.16l1.17-.17h.07l.25,0a.06.06,0,0,1,0,0,.61.61,0,0,1,0,.48c-.3,1-.61,1.95-.91,2.92-.12.41-.25.82-.34,1.24a8,8,0,0,1-.55,1.57l0,0c-.14.07-.27.14-.41.2-.52.22-1,.41-1.55.64a4.19,4.19,0,0,0-2.4,3,7.84,7.84,0,0,0-.15,2.75c.06.62.16,1.24.25,1.86.15,1,.3,2.07.44,3a.07.07,0,0,1,0,0,.66.66,0,0,1-.48.38l-4,1.39c-1.4.48-2.8,1-4.15,1.56a24.79,24.79,0,0,0-2.38,1.19,14.41,14.41,0,0,0-3.59,2.91,10.4,10.4,0,0,0-2.46,4.66,32.88,32.88,0,0,0-.86,9.21,16,16,0,0,0,.56,3.4,6.53,6.53,0,0,0,.62,1.55,8.49,8.49,0,0,0,.63.88.31.31,0,0,0,.25.12h.09a.53.53,0,0,0-.07-.36,8.27,8.27,0,0,1-.72-3,25,25,0,0,1,.5-6.87c.33-1.61.79-3.19,1.27-4.76a9.61,9.61,0,0,1,3.19-4.65,12.88,12.88,0,0,1,2-1.37,31.68,31.68,0,0,1,4.43-1.93c1.67-.61,3.35-1.19,5-1.79a37.37,37.37,0,0,0,4.52-2,22.61,22.61,0,0,0,5.64-4.11c.86-.86,1.7-1.74,2.49-2.67a32.2,32.2,0,0,1,3.87-3.81,29.91,29.91,0,0,1,9.18-5.1,16.39,16.39,0,0,1,3-.75,14.17,14.17,0,0,1,3.8-.07,20.63,20.63,0,0,1,4.37,1,16.4,16.4,0,0,1,6.06,3.76,33.19,33.19,0,0,1,8.23,13.21,39.59,39.59,0,0,1,1.57,6.13c.25,1.43.51,2.87.7,4.31a48.18,48.18,0,0,1,.42,8.47,44.68,44.68,0,0,1-2.39,12.62A32.61,32.61,0,0,1,303.71,87,75.68,75.68,0,0,1,297,97.48a33,33,0,0,1-2.82,3.17,16.88,16.88,0,0,1-8.18,4.53,31.61,31.61,0,0,1-3.89.64,37.73,37.73,0,0,1-4.18.21M264.75,31.41l-.06,0a.06.06,0,0,1,0-.05c0-.21.19-.31.31-.44a31.75,31.75,0,0,1,7-5.52,44.32,44.32,0,0,1,7.06-3.27,60,60,0,0,1,8.61-2.51c1.13-.23,2.27-.39,3.41-.53s2.56-.2,3.84-.28q.77-.05,1.54-.05,1,0,1.91.08c1.08.09,2.17.16,3.24.27a35.41,35.41,0,0,1,9.85,2.33,69.63,69.63,0,0,1,9.14,4.42c.85.5,1.67,1,2.5,1.59a5.39,5.39,0,0,1,1.27,1.09,2.63,2.63,0,0,1,.25.44.06.06,0,0,1,0,0,.71.71,0,0,1-.38.48,5.39,5.39,0,0,1-1.64.67c-.57.14-1.16.26-1.74.35s-1.3.18-2,.22c-2.43.18-4.87.26-7.3.26q-2,0-3.94-.07c-2-.07-4.08-.19-6.11-.29l-.49,0c-3.53-.11-7.05-.25-10.58-.25h-1.87a20.93,20.93,0,0,1-2.35-.12,10,10,0,0,0-1.12-.06,14.34,14.34,0,0,0-1.5.08c-.43,0-.86.07-1.29.07-2.64,0-5.29,0-7.93,0-1.71,0-3.42.16-5.12.33a36.06,36.06,0,0,0-4.09.64l-.48.08h0m-2.14-1.29h0l-.05,0a.06.06,0,0,1,0-.07c0-.1.05-.2.09-.3l1-2.79a6.36,6.36,0,0,1,1.3-2.19,9.58,9.58,0,0,1,2.35-1.93,42.41,42.41,0,0,1,4.67-2.34c1.27-.54,2.56-1,3.82-1.59,1.87-.81,3.73-1.64,5.6-2.46a8.11,8.11,0,0,1,1.57-.58,4.46,4.46,0,0,1,.88-.1h0a1.27,1.27,0,0,1,1,.52,9.09,9.09,0,0,1,.68,1.1.06.06,0,0,1,0,.07.82.82,0,0,1-.53.28c-1.75.45-3.48,1-5.18,1.58A49.88,49.88,0,0,0,271.29,23,32.07,32.07,0,0,0,263,29.7l-.37.4,0,0m20.92-16.21a4.4,4.4,0,0,0-1,.12,10,10,0,0,0-1.76.62c-3,1.35-6,2.6-9,3.83a47.56,47.56,0,0,0-4.63,2.21,16.82,16.82,0,0,0-1.52.91,9.48,9.48,0,0,0-4,5.23c-.07.25-.16.5-.24.75s-.14.34-.2.51a.06.06,0,0,1,0,0,1.13,1.13,0,0,1-.28.07A18.17,18.17,0,0,0,256,29a48.73,48.73,0,0,0-7.2,2.69,33.87,33.87,0,0,0-7.57,4.79,51.68,51.68,0,0,0-5.6,5.42,36.32,36.32,0,0,0-6.35,10.05,41.61,41.61,0,0,0-3.08,11.69,32.31,32.31,0,0,0-.08,6.11,38.6,38.6,0,0,0,7.26,19.34,44.25,44.25,0,0,0,18.52,14.15,91.52,91.52,0,0,0,9.53,3.2,57.22,57.22,0,0,0,6.65,1.42q1.66.25,3.33.41c1.93.19,3.87.32,5.81.33h.35c1.4,0,2.79,0,4.19-.17a32.54,32.54,0,0,0,5.16-.84,19.29,19.29,0,0,0,8.93-5,34.26,34.26,0,0,0,3.09-3.46,77.37,77.37,0,0,0,7-10.84,36.54,36.54,0,0,0,3-7.4c.37-1.33.68-2.68,1-4a45.08,45.08,0,0,0,.88-9,55.87,55.87,0,0,0-.49-7,67.75,67.75,0,0,0-1.26-7,39.45,39.45,0,0,0-3.51-9.4,34.3,34.3,0,0,0-6.62-8.8,18.51,18.51,0,0,0-2.93-2.33,5.31,5.31,0,0,1-.48-.34s0-.07,0-.13a.06.06,0,0,1,.06-.07h.5c.37,0,.74,0,1.1,0l3.75.16,6.41.27c1.08,0,2.17.09,3.26.1h1.35c1.72,0,3.45,0,5.17-.17,1.15-.08,2.3-.13,3.45-.25a17.3,17.3,0,0,0,3.1-.57,7.13,7.13,0,0,0,1.82-.75,5.06,5.06,0,0,0,.95-.7,2.51,2.51,0,0,0,.68-2.62,3.58,3.58,0,0,0-.71-1.29,7.48,7.48,0,0,0-1.46-1.34c-.78-.54-1.57-1.09-2.38-1.59a67.8,67.8,0,0,0-9.53-4.75,34.09,34.09,0,0,0-7.65-2.22c-1-.16-1.95-.31-2.93-.42s-2.09-.24-3.14-.3c-.87-.05-1.75-.07-2.62-.07-2,0-4,.12-6.06.31-.82.08-1.64.1-2.46.14H288a4.84,4.84,0,0,1-.53-.05h0a1.6,1.6,0,0,1-.72-.74,4.87,4.87,0,0,0-.81-1.12,2.83,2.83,0,0,0-1.64-.83,4.86,4.86,0,0,0-.72-.05M259.45,38.66l.05,0A4,4,0,0,1,260,39a4.88,4.88,0,0,1,.41.54,6.58,6.58,0,0,1,.75,1.34,9.46,9.46,0,0,0,1.28,2.21,2.35,2.35,0,0,0,.57.53h0l.24.15-.09.09A20.89,20.89,0,0,1,258,47.67c-.55.29-1.12.56-1.71.82v-.07l-.13-.86c-.1-.71-.21-1.45-.32-2.18l-.07-.45c-.07-.46-.13-.89-.17-1.32a6,6,0,0,1,.1-2.1,2.36,2.36,0,0,1,1.36-1.73l.89-.37.61-.25c.17-.07.32-.15.43-.21l.09,0a1.92,1.92,0,0,0,.36-.23m32.68-6.48,1.51,0a1.9,1.9,0,0,0-.09.57q-.7-.33-1.42-.6m-13.54,0q-.75.29-1.48.6a1.92,1.92,0,0,0-.08-.59h1.56M261.87,32h0Zm.06-.19h0a1.9,1.9,0,0,0,.67.12l.31,0a1.9,1.9,0,0,0,.18.38l-.06,0a7.93,7.93,0,0,0-1.52.77l.1-.32.24-.76v0l.05-.17" transform="translate(-8.67 -5)"/></g></g><g id="Laag_3" data-name="Laag 3"><text class="cls-4" transform="translate(1.33 161.98)">FRUK<tspan class="cls-5" x="154.36" y="0">T</tspan><tspan class="cls-6" x="187" y="0">O</tspan><tspan x="229.88" y="0">V</tspan><tspan class="cls-7" x="268.41" y="0">Y</tspan></text></g></svg>