<?xml version="1.0" encoding="utf-8"?>
<!-- Generator: Adobe Illustrator 22.0.1, SVG Export Plug-In . SVG Version: 6.00 Build 0)  -->
<svg version="1.1" xmlns="http://www.w3.org/2000/svg" xmlns:xlink="http://www.w3.org/1999/xlink" x="0px" y="0px"
	 viewBox="0 0 318.7 177.9" style="enable-background:new 0 0 318.7 177.9;" xml:space="preserve">
<style type="text/css">
	.st0{clip-path:url(#SVGID_2_);}
	.st1{fill:#FFFFFF;}
	.st2{font-family:'UniSansThinCAPS';}
	.st3{font-size:64px;}
	.st4{letter-spacing:-1;}
</style>
<g id="Layer_2">
</g>
<g id="Layer_1">
	<title>logo</title>
	<g id="Laag_1">
		<g>
			<defs>
				<rect id="SVGID_1_" x="-91.7" width="506.3" height="112.5"/>
			</defs>
			<clipPath id="SVGID_2_">
				<use xlink:href="#SVGID_1_"  style="overflow:visible;"/>
			</clipPath>
			<g class="st0">
				<path class="st1" d="M11.6,31.6c1.5,0,3.1,0.1,4.6,0.3c1.9,0.3,3.8,0.6,5.6,1.1c2.7,0.7,5.4,1.5,8.7,2.6
					c2.1,0.7,4.7,1.6,7.3,2.2c1.6,0.4,3.2,0.7,4.8,0.8c0.6,0,1.1,0.1,1.7,0.1c1.6,0,3.1-0.1,4.7-0.4c3.2-0.5,6.3-1.3,9.3-2.4
					c3.8-1.3,7.6-2.9,11.5-4.7c3-1.3,6-2.8,8.8-4.5c1.3-0.7,2.5-1.5,3.6-2.4c0.4-0.3,0.8-0.6,1.2-1l0.2-0.1c0.1-0.1,0.3-0.3,0.3-0.5
					l0.1-0.1c0.2-0.2,0.2-0.5,0.1-0.8c-0.2-0.6-0.6-1.2-1.2-1.5c-0.1-0.1-0.2-0.1-0.3-0.1l-0.3-0.1L81.6,20
					c-1.8-0.3-3.6-0.6-5.3-0.8l-0.7-0.1c-1.5-0.2-3.2-0.4-5.2-0.5c-1.6-0.1-3.3-0.3-5-0.4c-2.2-0.1-4.3-0.1-6.3-0.1
					c-3.1,0-6,0.1-8.8,0.3c-1.7,0.1-3.3,0.3-4.9,0.6c-2,0.4-4.1,0.8-6.2,1.2l-0.8,0.2c1.6-0.4,3.3-0.8,4.9-1.2
					c2.3-0.5,4.7-0.9,7.1-1.1c2-0.1,3.9-0.2,5.7-0.3c1.2,0,2.4,0,3.6,0s2.2,0,3.3,0c1.9,0,3.8,0.1,5.9,0.3c1.2,0.1,2.4,0.2,3.6,0.3
					l1.9,0.2h0.3h0.4c0.1,0,0.2,0,0.3-0.1l0.2-0.1c0.5-0.1,1-0.4,1.4-0.9c0.1-0.1,0.1-0.2,0.2-0.4v-0.1c0-0.1,0.1-0.3,0.1-0.4
					c0.2-1,0-2.1-0.5-3c-0.5-0.9-1.1-1.6-1.8-2.3c-1-0.9-2.1-1.8-3.2-2.6c-1.6-1.1-3.3-1.9-5.2-2.5c-2.6-0.8-5.3-1.3-8.1-1.3h-1.3
					c-2,0-3.9,0.1-5.9,0.4c-2.4,0.3-4.7,0.7-7.1,1.2c-6,1.4-11.9,3.5-17.5,6.1c-6.2,2.9-12.1,6.5-17.6,10.6c-1.7,1.2-3.3,2.6-4.9,4
					c-0.6,0.6-1.2,1.2-1.8,1.8c-0.4,0.4-0.7,0.9-0.9,1.4c-0.1,0.2-0.1,0.4,0,0.6l0.1,0.3c0.1,0.3,0.4,0.6,0.8,0.6c0.3,0,0.7,0,1,0
					s0.9,0,1.5-0.1l2.1-0.2l1.7-0.1C9.7,31.6,10.7,31.6,11.6,31.6 M43.4,39c-0.2,0-0.3,0-0.5,0.1c-1,0.5-1.8,1.2-2.5,2.1l-0.2,0.3
					l-1,1.2c-1.3,1.5-2.5,3.1-3.6,4.8c-1.5,2.3-3,4.7-4.3,7.1c-1.9,3.5-3.5,7.1-4.7,10.9c-0.8,2.7-1.4,5.4-1.8,8.2
					c-0.2,2.3-0.2,4.6,0.2,6.8c0.4,3.1,1.3,6.1,2.6,8.9l0.2,0.5l0.2,0.4c0.6,1.3,0.9,2.6,1.1,4c0.2,1.8,0.3,3.6,0.2,5.5
					c-0.1,1-0.1,2.1-0.1,2.9c0,0.5,0,0.9,0.1,1.4c0.2,1.1,0.9,2,2,2.4c0.2,0.1,0.4,0.1,0.6,0.2c0.8,0.2,1.7,0.3,2.6,0.3
					c0.3,0,0.7,0,1.1,0c0.6,0,1.1-0.2,1.7-0.4c1-0.4,1.8-0.8,2.5-1.1c0.5-0.2,0.9-0.5,1.4-0.9c0.7-0.5,1.1-1.2,1.3-2.1
					c0-0.1,0-0.2,0-0.3V102c-0.1-0.5-0.2-0.9-0.5-1.3c-0.1-0.1-0.1-0.2-0.2-0.2l-0.1-0.1l-0.3-0.2c-0.7-0.5-1.4-1-2.1-1.5l1.7,0.9
					c4.7,2.6,9.9,4.1,15.3,4.2h0.6c1.6,0,3.1-0.1,4.7-0.4c2.3-0.5,4.5-1.3,6.6-2.4c4.8-2.6,9.1-5.8,12.9-9.7
					c4.1-4.2,7.5-9,10.2-14.2c1.3-2.5,2.6-5.3,3.8-8.4C96.6,65,97.7,61,98.2,57v-0.4c0.2-1.4,0.3-2.7,0.3-4.1V52c0-1,0-2.1,0-3.2
					c0-1.4-0.1-2.6-0.2-3.7c-0.3-2.6-0.8-5.1-1.6-7.6c-0.5-1.5-1-2.9-1.7-4.2c-0.9-2-2.7-3.6-4.8-4.2c-0.3-0.1-0.7-0.2-1-0.3
					l-1.2-0.5l-1.7-0.7c-0.7-0.3-1.3-0.7-1.9-1.1l-0.4-0.4l-0.1-0.1c-0.1-0.1-0.3-0.2-0.4-0.2c-0.2,0-0.4,0-0.6,0
					c-0.4,0-0.7,0-1.1,0.1L81,25.8c-0.1,0-0.3,0.1-0.4,0.1c-1.9,1.2-3.8,2.2-5.8,3.3c-4.8,2.4-9.7,4.5-14.7,6.4
					c-3.7,1.5-7.6,2.5-11.6,3.1c-1.2,0.2-2.5,0.3-3.7,0.3L43.4,39L43.4,39z M34.4,107.2c-0.9,0-1.8-0.1-2.7-0.3
					c-0.3-0.1-0.6-0.2-0.9-0.3c-1.1-0.5-1.9-1.5-2-2.8c-0.1-0.6-0.1-1.3-0.1-1.9c0-1.5,0.1-2.8,0.1-4.1c0-1.3,0-2.7-0.2-4
					c-0.1-1-0.4-2-0.8-3c-0.2-0.4-0.3-0.7-0.5-1c-1-2.2-1.8-4.5-2.3-6.8c-0.7-3.1-0.9-6.2-0.6-9.4c0.2-2,0.6-4,1.1-6
					c1.4-5.1,3.4-10,6.1-14.6c1-1.8,2.2-3.7,3.4-5.5c1.5-2.3,3.3-4.4,5.2-6.3l0.5-0.5l0.2-0.2c0.3-0.3,0.3-0.7,0.2-1.1L41,39.2
					c-0.1-0.2-0.4-0.4-0.6-0.5l-0.7-0.1l-1.4-0.3c-2.3-0.5-4.5-1.2-6.7-2c-2.6-0.9-5.5-1.9-8.4-2.6c-2.1-0.6-4.2-1-6.4-1.4
					c-1.1-0.2-2.1-0.2-3.2-0.3c-0.8,0-1.5,0-2.2,0c-1,0-2,0-2.9,0.1c-1.1,0.1-2.3,0.2-3.4,0.3l-0.6,0c-0.4,0-0.7,0-1.1,0
					c-0.5,0-1,0-1.5-0.1c-0.2,0-0.4-0.1-0.6-0.2c-0.3-0.1-0.4-0.4-0.4-0.7c0-0.2,0-0.4,0.1-0.5c0.2-0.5,0.5-0.9,0.8-1.3
					c0.6-0.7,1.2-1.3,1.8-1.9c1.2-1.1,2.6-2.3,4-3.4c5.5-4.2,11.4-7.9,17.6-10.9c5.9-2.9,12.1-5.1,18.5-6.6c2.2-0.5,4.4-0.9,6.6-1.2
					C52.8,5.1,55,5,57.2,5c0.9,0,1.9,0,2.9,0.1c2.6,0.1,5.1,0.6,7.5,1.5c1.5,0.5,2.8,1.3,4.1,2.1c1.2,0.8,2.4,1.7,3.4,2.7
					c0.8,0.7,1.4,1.5,1.9,2.4c0.5,0.8,0.7,1.7,0.6,2.7c0,0.2,0,0.3,0,0.5c0,0.1,0,0.1,0,0.2c0,0.2,0,0.3,0.1,0.5
					c0.3,0.4,0.7,0.8,1.1,1.2l0.3,0.2c0.1,0.1,0.3,0.2,0.4,0.2l0.8,0.1l1.7,0.3c1,0.1,2,0.5,2.8,1.2c0.2,0.2,0.4,0.2,0.6,0.2h0.2
					h0.2c0.2,0,0.3-0.1,0.5-0.1c1-0.4,2-0.8,2.9-1.3l1.1-0.6c0.4-0.2,0.7-0.4,1.1-0.6c1.2-0.6,2.1-1.1,3-1.5
					c0.4-0.2,0.7-0.3,1.1-0.4l-0.1,0c-0.1,0.1-0.3,0.2-0.4,0.3c-1.6,1.1-3.1,2.5-4.4,4c-1.3,1.4-2.4,2.9-3.3,4.6
					c-0.1,0.2-0.2,0.4-0.3,0.6c0,0.1-0.1,0.2-0.1,0.3l0,0c0,0.1,0,0.3,0,0.4c0.1,0.5,0.4,0.9,0.9,1l0.5,0.2l0.9,0.3l0.7,0.2l0.8,0.2
					c1.6,0.5,3,1.6,3.9,3c0.3,0.5,0.6,1,0.9,1.5c0.9,1.9,1.6,3.9,2.1,5.9c0.6,2.3,1,4.6,1.2,7c0.2,2.6,0.2,5.2,0.1,7.8
					c-0.3,4.8-1.4,9.5-3.2,14c-1.3,3.3-2.6,6.2-4,8.8c-2.8,5.6-6.5,10.6-10.9,15c-3.8,3.7-8.1,6.9-12.8,9.4c-2,1.1-4.2,1.9-6.5,2.4
					c-1.5,0.3-2.9,0.5-4.4,0.5h-0.6c-1.3,0-2.5-0.1-3.8-0.3c-1.3-0.2-2.7-0.4-4-0.8c-0.4-0.1-0.8-0.1-1.1-0.2c-0.3,0-0.6,0-0.9,0.1
					c-1.1,0.2-2.2,0.5-3.2,1c-1,0.4-1.9,0.9-2.8,1.3c-1,0.5-2,0.9-3,1.3C36.7,107.1,35.6,107.2,34.4,107.2"/>
				<path class="st1" d="M44.6,40c1.3,0,2.6-0.1,3.8-0.3c4.1-0.6,8-1.6,11.8-3.1c5-1.9,10-4.1,14.8-6.5c2-1,4-2.1,5.9-3.3
					c0.5-0.1,1-0.2,1.5-0.2c0.1,0,0.3,0,0.4,0c0.2,0.1,0.4,0.3,0.6,0.4c0.6,0.5,1.4,1,2.2,1.3c1,0.4,2,0.8,3,1.3
					c0.3,0.1,0.7,0.3,1,0.4c1.9,0.6,3.5,1.9,4.3,3.7c0.7,1.3,1.2,2.7,1.7,4.1c0.8,2.4,1.3,4.9,1.6,7.5c0.1,1.2,0.2,2.4,0.2,3.6
					s0,2.4,0,3.7c0,1.5-0.2,2.9-0.3,4.4c-0.5,4-1.5,7.8-3.1,11.5c-1.2,2.8-2.4,5.6-3.8,8.3c-2.6,5.1-6,9.9-10,14
					c-3.7,3.8-8,7-12.7,9.5c-2,1.1-4.1,1.9-6.3,2.3c-1.5,0.3-3,0.4-4.5,0.4H56c-5.2-0.1-10.3-1.5-14.9-4.1c-1.9-1-3.7-2-5.4-3.2
					c-0.9-0.6-1.8-1.2-2.6-1.8c-0.2-0.1-0.3-0.3-0.5-0.3h-0.1c0,0.1-0.1,0.2,0,0.2c0.2,0.3,0.4,0.6,0.5,0.8c0.6,0.8,1.4,1.6,2.1,2.2
					c1.7,1.5,3.5,2.9,5.4,4.2l0.4,0.3c0.2,0.3,0.3,0.7,0.4,1.1c-0.1,0.6-0.4,1.1-0.9,1.5c-0.4,0.3-0.8,0.6-1.2,0.8
					c-0.8,0.4-1.6,0.7-2.4,1.1c-0.4,0.2-0.9,0.3-1.4,0.3c-0.4,0-0.7,0-1.1,0c-0.8,0-1.6-0.1-2.3-0.3c-0.2,0-0.3-0.1-0.5-0.2
					c-0.8-0.2-1.3-0.9-1.4-1.7c-0.1-0.4-0.1-0.8-0.1-1.2c0-1,0-1.9,0.1-2.9c0.1-1.8,0.1-3.7-0.1-5.5c-0.1-1.5-0.5-3-1.2-4.4
					c-0.1-0.3-0.3-0.6-0.4-0.9c-1.3-2.7-2.1-5.7-2.5-8.7c-0.3-2.2-0.4-4.4-0.1-6.6c0.3-2.7,0.9-5.4,1.7-8c1.2-3.7,2.7-7.3,4.6-10.6
					c1.3-2.4,2.7-4.7,4.2-7c1.1-1.6,2.3-3.2,3.5-4.7l1.2-1.4c0.6-0.8,1.4-1.5,2.3-1.9H44.6z M3.3,31.1c-0.3,0-0.6,0-1,0l-0.1-0.3
					c0.2-0.4,0.4-0.8,0.7-1.1c0.6-0.6,1.1-1.2,1.7-1.7c1.5-1.4,3.1-2.7,4.8-3.9c5.5-4.1,11.3-7.6,17.5-10.4c5.5-2.6,11.3-4.6,17.3-6
					c2.3-0.5,4.6-1,7-1.2c1.9-0.2,3.9-0.4,5.8-0.4h1.3c2.7,0.1,5.3,0.5,7.8,1.3C67.9,8,69.5,8.8,71,9.8c1.1,0.7,2.1,1.6,3.1,2.5
					c0.7,0.6,1.2,1.3,1.7,2c0.4,0.7,0.6,1.5,0.4,2.3c0,0.2-0.1,0.4-0.1,0.5c-0.3,0.3-0.7,0.6-1.2,0.6h-0.7c-1.8-0.2-3.7-0.4-5.5-0.5
					s-4-0.3-6-0.3c-1.1,0-2.2,0-3.3,0c-1.1,0-2.3,0-3.6,0c-1.9,0-3.8,0.1-5.7,0.3c-2.4,0.2-4.8,0.6-7.2,1.1
					c-4.2,0.9-8.3,2.1-12.3,3.5c-1.9,0.7-3.8,1.5-5.6,2.4c-0.8,0.4-1.6,0.9-2.4,1.5c-0.3,0.2-0.6,0.5-0.9,0.8c0,0.1,0.1,0.1,0.1,0.1
					H22c0.7-0.4,1.4-0.7,2.2-1c2-0.9,4-1.6,6-2.2c2.9-0.9,5.9-1.6,8.9-2.2c2.1-0.4,4.1-0.8,6.2-1.2c1.6-0.3,3.2-0.5,4.8-0.6
					c2.9-0.2,5.8-0.3,8.7-0.3c2.1,0,4.2,0,6.3,0.1c1.7,0.1,3.3,0.2,5,0.4s3.4,0.3,5.2,0.5c2,0.3,4,0.5,5.9,0.9
					c0.4,0.1,0.7,0.2,1,0.2c0.4,0.2,0.7,0.6,0.8,1c-0.1,0.1-0.2,0.3-0.3,0.4c-0.4,0.4-0.8,0.8-1.3,1.1c-1.1,0.8-2.3,1.6-3.6,2.3
					c-2.8,1.6-5.8,3.1-8.8,4.5c-3.8,1.7-7.6,3.3-11.4,4.7c-3,1.1-6,1.8-9.1,2.3c-1.5,0.2-3,0.4-4.5,0.4c-0.6,0-1.1,0-1.7-0.1
					c-1.6-0.1-3.1-0.4-4.7-0.7c-2.4-0.6-4.8-1.4-7.2-2.2c-2.9-1-5.8-1.9-8.8-2.7c-1.9-0.5-3.8-0.9-5.7-1.1c-1.6-0.2-3.1-0.3-4.7-0.3
					c-1,0-1.9,0-2.9,0.1C7.2,30.9,6,31,4.7,31.1C4.2,31.1,3.7,31.2,3.3,31.1 M57,4.1c-2.2,0-4.5,0.1-6.7,0.4
					c-2.3,0.3-4.5,0.7-6.7,1.2c-6.4,1.6-12.7,3.8-18.7,6.7c-6.3,3.1-12.2,6.7-17.7,11c-1.4,1.1-2.8,2.2-4.1,3.4
					c-0.7,0.6-1.3,1.3-1.9,2c-0.4,0.5-0.8,1-1,1.6C0,30.7,0,31,0,31.3c0,0.6,0.3,1.2,0.8,1.5c0.3,0.2,0.6,0.3,0.9,0.3
					c0.5,0.1,1.1,0.1,1.6,0.1c0.4,0,0.8,0,1.1,0c1.3-0.1,2.7-0.2,4-0.3c0.9,0,1.9-0.1,2.8-0.1c0.7,0,1.4,0,2.2,0
					c1,0,2.1,0.1,3.1,0.3c2.1,0.3,4.2,0.8,6.3,1.4c2.8,0.8,5.6,1.7,8.3,2.6c2.2,0.8,4.5,1.5,6.8,2c0.7,0.2,1.4,0.3,2.1,0.5l0.1,0.3
					l-0.7,0.7c-2,2-3.8,4.1-5.4,6.4c-1.2,1.8-2.4,3.6-3.5,5.5c-2.7,4.6-4.8,9.6-6.2,14.7c-0.6,2-1,4.1-1.2,6.2
					c-0.3,3.2-0.1,6.5,0.6,9.7c0.5,2.4,1.3,4.8,2.4,7c0.2,0.3,0.3,0.7,0.5,1c0.4,0.9,0.6,1.8,0.7,2.8c0.2,1.3,0.2,2.6,0.2,3.9
					c0,1.3,0,2.7-0.1,4.1c0,0.7,0,1.4,0.1,2.1c0.2,1.5,1.1,2.9,2.6,3.5c0.3,0.2,0.7,0.3,1,0.4c1,0.2,1.9,0.3,2.9,0.3
					c1.2,0,2.4-0.2,3.5-0.6c1.1-0.4,2.1-0.8,3.2-1.3c0.9-0.4,1.9-0.9,2.8-1.3c0.9-0.4,1.9-0.7,3-0.9c0.2,0,0.5-0.1,0.7-0.1
					c0.3,0,0.6,0,0.9,0.1c1.4,0.3,2.7,0.6,4.1,0.8c1.3,0.2,2.6,0.3,3.9,0.3h0.6c1.6,0,3.1-0.2,4.6-0.5c2.3-0.5,4.6-1.3,6.7-2.5
					c4.8-2.5,9.2-5.7,13-9.5c4.5-4.5,8.2-9.6,11-15.3c1.5-2.9,2.8-5.9,4-8.9c1.9-4.5,3-9.4,3.3-14.3c0.2-2.7,0.1-5.3-0.1-8
					c-0.2-2.4-0.6-4.8-1.2-7.2c-0.5-2.1-1.2-4.2-2.2-6.1c-0.3-0.6-0.6-1.1-0.9-1.6c-1-1.6-2.6-2.7-4.3-3.3l-1.5-0.5l-1.4-0.5
					c-0.1,0-0.2-0.2-0.3-0.3c0-0.1,0-0.1,0.1-0.2c0.1-0.2,0.2-0.3,0.2-0.5c0.8-1.6,1.9-3.2,3.1-4.5c1.2-1.5,2.6-2.7,4.2-3.8
					c0.2-0.1,0.4-0.2,0.5-0.4c0.1-0.1,0.2-0.2,0.3-0.3c0.3-0.4,0.3-0.9-0.1-1.3c-0.2-0.1-0.3-0.2-0.5-0.2c-0.1,0-0.2,0-0.2,0
					c-0.5,0.1-1,0.3-1.4,0.5c-1,0.5-2.1,1-3.1,1.5c-0.7,0.4-1.4,0.8-2.1,1.2c-0.9,0.5-1.8,0.9-2.8,1.3c-0.2,0.1-0.4,0.1-0.5,0.1
					c-0.9-0.8-2-1.2-3.2-1.4l-2.4-0.5c-0.5-0.3-0.9-0.7-1.2-1.2c0-0.2,0-0.4,0-0.6c0.1-1.1-0.2-2.2-0.7-3.2c-0.5-1-1.2-1.9-2.1-2.7
					c-1.1-1-2.3-2-3.6-2.8c-1.3-0.9-2.8-1.7-4.3-2.2c-2.5-0.9-5.1-1.5-7.8-1.6C58.9,4.1,57.9,4,57,4.1 M43.1,101.8
					c0.6,0.3,1.2,0.5,1.8,0.7c-0.6,0.2-1.2,0.4-1.8,0.7c0.1-0.2,0.1-0.4,0.2-0.7c0-0.2,0-0.4,0-0.6L43.1,101.8 M95.7,17.4L95.7,17.4
					z"/>
				<path class="st1" d="M160.6,109.9c-0.4,0-0.8-0.1-1.3-0.2c-2-0.5-3.9-1.6-5.3-3.2c0,0,0-0.1-0.1-0.3c1.4-0.1,2.8-0.5,4.2-1
					c1.3-0.6,2.5-1.4,3.5-2.4l0.9,0.7c1.3,1,2.8,1.7,4.4,2.1c0.2,0,0.3,0.1,0.5,0.1c0.2,0,0.4,0.2,0.5,0.4c0.1,0.3-0.1,0.4-0.3,0.5
					c-0.4,0.3-0.9,0.7-1.4,1c-1.4,1-2.9,1.7-4.5,2.1C161.4,109.8,161,109.9,160.6,109.9 M135,97.7c-0.1,0-0.3,0-0.4-0.1
					c-2-0.7-3.7-2-4.8-3.7c-1-1.5-1.3-3.3-1-5c0-0.2,0.1-0.5,0.1-0.7c0.1-0.6,0.3-0.7,0.6-0.7h0.3c1,0.2,2,0.4,3.1,0.6
					c0.4,2.4,1.6,4.7,3.4,6.4c-0.2,0.6-0.5,1.1-0.6,1.6s-0.2,1-0.3,1.6H135 M145.6,45c0.1-0.3,0.1-0.7,0-1c-0.2-2.1,0.2-4.1,1.1-6
					c0.2-0.4,0.5-0.9,0.8-1.3c0.4-0.6,1-0.9,1.6-1.1c1.2-0.3,2.3-0.7,3.5-0.9c1.5-0.3,3.1-0.5,4.6-0.7c0.3,0,0.5,0,0.8,0
					c1.1,0,2.2,0.3,3.2,0.9c0.4,0.2,0.7,0.5,1,0.9c0.3,0.3,0.3,0.7,0,1c-0.1,0.1-0.2,0.1-0.3,0.2c-0.4,0.2-0.8,0.3-1.2,0.5
					c-0.9,0.4-1.7,0.9-2.4,1.5c-0.2,0.2-0.4,0.4-0.3,0.7c0.1,0,0.1,0.1,0.2,0.1c0.1,0,0.2,0,0.3-0.1c1-0.4,2.1-0.7,3.2-0.8
					c0.7-0.1,1.4-0.4,2.2-0.5c0.8-0.1,1.5-0.2,2.3-0.2h0.9c1.3,0.1,2.6,0.1,3.8,0.2l0,0c0.2,0,0.3-0.1,0.4-0.1
					c-0.6-0.6-1.4-1.1-2.2-1.2c-0.8-0.3-1.6-0.4-2.4-0.6c0-0.1,0-0.2,0.1-0.2c0.8-0.6,1.6-1,2.5-1.3c0.7-0.2,1.4-0.3,2.1-0.3
					c1.4,0,2.8,0.5,4,1.2c0.4,0.3,0.9,0.6,1.3,0.9c1.2,0.8,2.2,1.9,2.9,3.2l0.6,1c0.3-0.2,0.5-0.6,0.5-0.9c0.1-0.5,0.1-0.9,0.2-1.4
					c0.1-0.8,0.4-1.2,1.3-1.3c0.5-0.1,1.1-0.1,1.6-0.2c0.7,0,1.5,0.1,2.2,0.3c0.6,0.2,1.2,0.6,1.7,1.1c0.7,0.8,1.3,1.7,1.6,2.7
					c0.2,0.7,0.3,1.3,0.4,2c0.2,0.8,0.1,1.7-0.2,2.4l0.9,2.5h0.1c0,0,0,0,0.1,0c0.3-0.3,0.6-0.4,1-0.4c0.4,0,0.7,0.1,1,0.3
					c0.5,0.3,1,0.7,1.4,1.1c2,2.1,3.4,4.7,4,7.6c0.2,0.6,0.1,1.3-0.2,1.9c-0.2,0.4-0.4,0.6-0.8,0.6c-0.1,0-0.3,0-0.4-0.1
					c-0.5-0.2-1-0.5-1.4-0.9c-0.9-1.1-1.9-2.2-2.9-3.3c-1.3-1.4-2.6-2.7-4-3.9l-0.9-0.7c0,0.2,0.1,0.4,0.1,0.6
					c0.5,0.7,0.9,1.4,1.4,2.1c1.2,1.6,2.2,3.3,3.2,5c0.7,1.3,1.3,2.6,1.7,4c0.9,3.1,0.6,6.4-1,9.3c-0.6,1-1.4,1.8-2.3,2.5
					c-0.2,0.1-0.4,0.2-0.6,0.3c-0.2,0.1-0.3,0.1-0.5,0.2c-0.2,0.2-0.4,0.5-0.3,0.8c0,0.3,0.2,0.5,0.5,0.5c0.2,0,0.4,0.1,0.6,0.1
					c0.4,0,0.9-0.1,1.2-0.3c0.5-0.2,0.9-0.5,1.3-0.9c0.6-0.5,1.3-0.9,2.1-1.2c0.2,3.4-2.1,9.3-4.3,11.1c-0.2-0.3-0.1-0.6-0.1-0.9
					s0-0.7-0.1-1.1s-0.1-0.6-0.2-0.9s-0.1-0.6-0.2-0.9s-0.2-0.7-0.3-1s-0.2-0.6-0.3-0.9s-0.2-0.7-0.4-1s-0.3-0.6-0.4-0.9
					s-0.3-0.6-0.4-0.8c-0.2-0.3-0.4-0.6-0.6-0.9c-0.2-0.3-0.4-0.5-0.6-0.7c-0.2,0.5-0.2,0.5-0.1,0.9l0.9,4c0.4,2,0.3,4.1-0.3,6
					c-0.4,1.1-0.9,2-1.7,2.9c-0.5,0.6-1.1,1-1.8,1.2c-0.9,0.3-1.8,0.5-2.7,0.6c-0.2,0-0.5,0.1-0.7,0.2c0.1,0.2,0.2,0.3,0.3,0.5
					c0.4,0.3,0.9,0.5,1.4,0.6l0.8,0.2c0,0.1,0,0.3-0.1,0.4c-1,2-2.6,3.6-4.6,4.5c-0.1,0-0.3,0.1-0.5,0.1c0.1-1.8-0.2-3.6-0.7-5.3
					c-0.1-0.3-0.2-0.5-0.3-0.8c0,0-0.1-0.1-0.2-0.1s-0.2,0.2-0.2,0.3c-0.1,2.1-0.3,4.2-0.6,6.2c-0.2,1.6-0.8,3.1-1.8,4.4
					c-0.9,1.2-2.2,1.9-3.7,1.9h-0.5c-0.8,0-1.5-0.1-2.3-0.3c-1-0.2-1.9-0.6-2.6-1.3c-0.6-0.6-1.1-1.3-1.7-1.9
					c-0.3-0.3-0.3-0.7-0.2-1.1c0.2-0.7,0.3-1.5,0.4-2.2c0-0.2,0-0.5-0.1-0.7c-0.1,0.1-0.2,0.2-0.3,0.3c-0.1,0.2-0.3,0.4-0.4,0.6
					c-0.9,1.5-2,2.9-3,4.4c-2,2.7-5.6,3.6-8.6,2.3c-1.1-0.5-2.1-1.1-3-2c-1.4-1.5-2.6-3.1-3.5-4.9c-0.1-0.2-0.1-0.5-0.4-0.7
					c-0.2,0.1-0.2,0.3-0.2,0.5c0,1.1,0.1,2.2,0.5,3.2c0.5,1.6,1.3,3.1,2.3,4.5c-0.4,0.2-0.8,0.3-1.2,0.3h-0.5
					c-1.1,0-2.1-0.1-3.2-0.5c-2.4-0.8-4.1-3-4.3-5.5c0-0.4,0-0.8,0.1-1.2c0.1-0.3,0.2-0.4,0.5-0.4c0.1,0,0.2,0,0.4,0.1
					c0.3,0.1,0.5,0.3,0.8,0.4c0.8,0.4,1.6,0.7,2.5,0.9c0.3,0,0.7,0.1,1,0.1c-0.5-0.5-1-0.7-1.4-1s-0.8-0.7-1.2-1s-0.7-0.8-1.1-1.2
					s-0.8-0.8-1.1-1.3s-0.6-0.9-0.9-1.3s-0.6-0.9-0.8-1.4c-0.3-0.4-0.5-0.9-0.7-1.4c0-0.1,0.2-0.2,0.3-0.2c0.1,0,0.2,0,0.2,0
					c0.7,0.1,1.4,0.2,2.1,0.2c0.8,0,1.6-0.1,2.4-0.2c0.7-0.1,1.4-0.4,2.1-0.7c0.2-0.1,0.3-0.3,0.5-0.4c-0.2-0.1-0.3-0.1-0.5-0.1
					h-0.4h-0.9c-3,0-5.9-0.6-8.6-1.8c-0.3-0.1-0.5-0.2-0.8-0.4c-2-1.3-3.7-2.9-5.1-4.7c-0.4-0.5-0.7-1.1-1.1-1.7
					c-0.1-0.2-0.3-0.4-0.4-0.5c0,0.2,0,0.4,0,0.7c0.4,1.5,1,2.9,1.8,4.2c0.2,0.3,0.3,0.5,0.5,0.8c-0.1,0.1-0.1,0.1-0.2,0.1
					c-0.1,0-0.2,0-0.3-0.1c-1.6-0.8-3-2-3.8-3.6c-1-1.8-1.6-3.9-1.6-6c-0.1-0.9,0.3-1.7,1-2.3l1,0.4c0.1-0.5,0.1-1,0-1.5
					c0-0.5,0-0.9,0-1.4c0-0.1,0-0.1-0.1-0.2c-1.1-1.3-1.7-3-1.5-4.7c0-1.5,0.3-3,1-4.3c0.2-0.5,0.4-0.9,0.7-1.3c0.7-0.9,1-2,1-3
					c0-0.6,0.1-1.2,0.2-1.8c-1-1.2-1.5-2.7-1.4-4.3c0.1-1.7,0.7-3.3,1.8-4.7c0.3-0.5,0.7-0.9,1-1.3c0,0,0.1,0,0.3-0.1
					c-0.1,0.4-0.1,0.8-0.2,1.2c-0.3,1.3-0.2,2.7,0.3,4c0.4,1.1,0.7,2.2,1,3.2c0.1,0.2,0.2,0.4,0.3,0.6c0.3,0,0.2-0.2,0.2-0.3
					c0-0.8,0-1.7,0.1-2.5c0.1-1.8,0.6-3.6,1.5-5.3c0.4-0.9,1.1-1.6,1.8-2.3c1.4-1.1,3-2,4.6-2.7c-0.3,1.5-0.1,3,0.5,4.4l0,0
					c0.3,0,0.3-0.2,0.4-0.3c0.4-1,0.8-2.1,1.2-3.2c0.4-0.8,0.8-1.6,1.3-2.3c0.2-0.3,0.5-0.7,0.7-1l0,0c0.5,0,1,0.2,1.4,0.6
					c0.8,0.7,1.4,1.6,2,2.5c0.2,0.4,0.3,0.7,0.4,1.1c0.3,0.8,0.6,1.6,0.8,2.4C145.2,44.7,145.3,44.9,145.6,45 M169.3,32.4
					c0.1-0.1,0.2-0.3,0.3-0.4c1.2-0.9,2.6-1.6,4-2.1c1.4-0.5,2.8-0.8,4.1-1.3c0.7-0.2,1.5-0.5,2.2-0.9c1.3-0.6,2.3-1.6,2.9-2.9
					c0.1-0.2,0.2-0.5,0.4-0.7c0.7,2.4-1.6,9.7-4.1,12.2c-1-1.6-2.5-2.9-4.2-3.5c-1.2-0.4-2.4-0.6-3.6-0.6
					C170.7,32.3,170,32.3,169.3,32.4 M173.6,27.8c0.7-1,1.3-1.8,1.8-2.6s0.9-1.8,1.3-2.8c0.5,1.4,0.6,3,0.2,4.4l-1.6,0.5L173.6,27.8
					 M145.6,17.3c0,0.2,0,0.4-0.1,0.7c-0.5,1.8-0.8,3.6-1,5.5c-0.1,1.8,0,3.5,0.4,5.3c0,0.1,0,0.3,0.1,0.4c0,0,0,0.1,0,0.1
					c-1.1-1.1-2.2-2.4-3-3.8C142.9,22.7,144.2,19.9,145.6,17.3 M139.8,35c-0.1-0.1-0.3-0.3-0.4-0.5c-0.6-1-1.3-1.8-2.1-2.6
					c-0.8-0.8-1.6-1.6-2.3-2.5c-1.5-1.6-2.6-3.6-3.2-5.8c-0.3-1.3-0.4-2.6-0.2-3.9c0.3-1.9,0.8-3.7,1.4-5.4c0-0.1,0.1-0.2,0.3-0.6
					c0.3,1.6,0.6,3.1,1.1,4.6c0.8,2.5,2.1,4.8,3.7,6.9c1.2,1.5,2.3,3.1,3.5,4.7c1.1,1.5,1.9,3.1,2.4,4.9c-0.1,0.1-0.2,0.1-0.3,0.2
					c-0.1,0-0.3-0.1-0.4-0.2c-0.5-0.2-1.1-0.4-1.6-0.4c-0.3,0-0.6,0-0.9,0.1C140.5,34.7,140.1,34.9,139.8,35 M154.2,14.5l0.7-5.9
					c0.1,0,0.2,0,0.2,0.1c0.2,0.6,0.4,1.3,0.6,1.9c0.1,0.2,0.1,0.5,0,0.7c-0.4,1-0.9,2.1-1.4,3.1C154.4,14.5,154.3,14.5,154.2,14.5
					 M147.7,33.4c0-0.2-0.1-0.3-0.1-0.5c0.1-1.1,0.5-2.2,1-3.2c1-1.8,2-3.7,3-5.5c1-1.8,2.1-3.5,3.1-5.3c2.2-3.8,3.8-7.8,4.9-12.1
					c0.1-0.2,0.1-0.5,0.2-0.7h0.2c0.1,0.6,0.2,1.1,0.3,1.6c0.7,3.6,1.6,7.1,2.5,10.6c0.4,1.6,0.9,3.3,1.3,4.9c0.5,2,0.6,4.1,0.4,6.2
					c-0.2,1.3-0.7,2.6-1.4,3.7c-0.2-0.1-0.4-0.2-0.5-0.3c-1.5-0.9-3.2-1.4-4.9-1.4h-0.1c-2.1,0.1-4.2,0.3-6.3,0.8
					c-1.1,0.2-2.2,0.6-3.3,1C148,33.4,147.8,33.4,147.7,33.4 M159.8,0c-0.1,0.2-0.2,0.4-0.3,0.6c-0.5,1.5-1.1,2.9-1.6,4.4
					c-0.3,1-0.6,2-0.9,3c-0.1,0.2,0,0.4-0.4,0.5c-0.2-0.4-0.3-0.8-0.5-1.3s-0.3-0.9-0.5-1.3s-0.3-0.8-0.4-1.2s-0.3-0.9-0.4-1.3
					c-0.1-0.4-0.3-0.9-0.5-1.2c-0.1,0.1-0.1,0.2-0.2,0.3c-0.1,1-0.3,2-0.4,2.9c-0.3,1.8-0.5,3.6-0.7,5.4c-0.3,2.5-0.7,5-1,7.5
					c-0.1,0.6-0.3,1.2-0.6,1.8c-1.4,2.4-2.8,4.8-4.1,7.2c-0.1,0.1-0.1,0.2-0.3,0.4c-0.2-0.4-0.3-0.9-0.3-1.3c-0.2-3-0.1-6,0.5-9
					c0.4-1.9,0.9-3.7,1.3-5.6c0-0.2,0.2-0.5,0-0.7c-0.3,0.2-0.5,0.4-0.8,0.6c-0.4,0.4-0.8,0.8-1.2,1.2c-1.6,1.9-3,3.9-4.1,6.1
					c-0.6,1.2-1.2,2.5-1.8,3.7c-0.1,0.2-0.2,0.4-0.4,0.7c-0.3-0.3-0.4-0.5-0.6-0.8c-1.6-2.3-2.8-5-3.3-7.8c-0.5-2.3-0.7-4.7-0.7-7.1
					c0-0.2,0.2-0.5-0.2-0.7c-0.2,0.3-0.5,0.5-0.7,0.8c-1.2,1.6-2.3,3.4-3.3,5.2c-1,1.8-1.7,3.7-2.1,5.6c-0.4,2.1-0.3,4.2,0.3,6.2
					c0.8,2.5,2.2,4.7,4,6.6c0.7,0.8,1.5,1.5,2.2,2.3c0.6,0.6,1.1,1.3,1.6,2c0.2,0.3,0.4,0.7,0.5,1c-0.4,0.1-0.6,0.2-0.9,0.2
					c-1.6,0.4-3.2,0.9-4.7,1.6c-1.2,0.5-2.3,1.3-3.2,2.2c-0.3,0.3-0.7,0.5-1.2,0.6c-0.3,0.1-0.7,0.2-1,0.3c-2.6,1.1-4.5,3.4-5.2,6.1
					c-0.8,2.6-0.4,5.4,1.2,7.6c0.1,0.2,0.2,0.3,0.3,0.5c-0.4,0.6-0.9,1.1-1.2,1.7c-1.4,2-2.2,4.3-2.3,6.7c-0.1,2,0.3,3.9,1.3,5.6
					c0.1,0.2,0.2,0.4,0.3,0.6c-0.4,0.7-0.7,1.3-1,2c-0.7,1.8-0.8,3.7-0.3,5.5c0.6,3.7,3,6.8,6.5,8.4c0.2,0.1,0.4,0.2,0.5,0.3
					c0,0.1,0,0.1,0,0.2c0,0.1,0,0.1-0.1,0.2c-0.6,2.1-0.4,4.3,0.6,6.2c0.8,1.6,1.8,3,3.2,4.1c1.3,1.2,2.9,2,4.6,2.6
					c0.5,0.1,0.8,0.4,1,0.8c1,2.5,3.1,4.4,5.7,5c1,0.3,2,0.4,3,0.4h0.7c1.5-0.1,3-0.3,4.6-0.4h0.8c0.2,0.5,0.4,0.9,0.6,1.3
					c0.2,0.4,0.5,0.8,0.9,1.2c1.1,1.3,2.5,2.4,4.1,3.1c1.3,0.6,2.7,1,4.1,1c0.3,0,0.5,0,0.8,0c1.2-0.1,2.3-0.5,3.3-1
					c1.7-0.8,3.2-1.8,4.5-3.1c0.7-0.7,1.4-1.3,2.1-2c0.5-0.5,1.2-0.9,1.9-1.2c2.2-0.7,3.9-2.4,4.8-4.6c0.2-0.5,0.4-1.1,0.6-1.6
					l0.3-0.7c1.2-0.2,2.3-0.7,3.2-1.5c1.3-1,2.5-2.2,3.4-3.6c0.4-0.6,0.8-1.2,1.2-1.8c0.4-0.7,0.8-1.2,1.4-1.7
					c0.2-0.1,0.4-0.3,0.5-0.5c0.3-0.4,0.6-0.7,1-0.9c2.5-1.5,4.5-3.8,5.8-6.4c0.6-1.3,1.2-2.6,1.6-3.9c0.8-2.7,1.1-5.4,0-8.1
					c0-0.1,0-0.1,0-0.2c0.1-0.1,0.1-0.3,0.2-0.4c1.4-2.5,2.4-5.1,2.9-7.9c0.4-2.1,0.4-4.3-0.1-6.3c-0.5-1.8-1.3-3.5-2.3-5.1
					c-1.2-2.2-3.2-3.9-5.5-4.8c0-0.2,0-0.5,0-0.7c-0.1-0.8-0.1-1.6-0.2-2.4c-0.3-2-1.1-3.8-2.5-5.2c-0.9-1-2.1-1.6-3.4-1.8
					c-0.2,0-0.5-0.1-0.8,0c-0.6,0-1.3,0.1-1.9,0.3c-0.2,0-0.4,0.1-0.7,0.1c0.1-0.3,0.3-0.6,0.4-0.8c1-2,1.8-4.1,2.2-6.3
					c0.6-2.5,0.5-5.1-0.4-7.5c-1.1-3-2.7-5.9-4.8-8.3c-0.1-0.1-0.1-0.2-0.3-0.2h-0.1c0,0,0,0.1,0,0.1c0.1,0.2,0.2,0.5,0.3,0.7
					c1.1,2.5,1.7,5.2,1.8,8c0,0.6,0,1.3-0.2,1.9c-0.2,1.1-0.9,2.1-1.8,2.8c-0.1,0.1-0.3,0.1-0.4,0.2c0-0.3,0-0.6,0-0.8
					c0-0.9-0.1-1.8-0.2-2.6c-0.5-2.8-1.3-5.6-2.4-8.3c-0.2-0.5-0.5-1-0.8-1.5c-0.1-0.1-0.1-0.2-0.3-0.2c0,0-0.1,0-0.1,0
					c0,0.1,0,0.1,0,0.2c0.3,1.7,0.3,3.5,0,5.2c-0.2,1.1-0.5,2.3-0.8,3.4c-0.4,1.4-1,2.8-1.9,4c-1.3,1.8-2.9,3.3-4.6,4.7
					c-0.1,0.1-0.2,0.1-0.4,0.2c-0.1-1-0.2-2-0.4-2.9c-0.6-3.3-1.4-6.6-2.3-9.8c-1.6-5.7-3.4-11.4-4.8-17.2c0-0.2-0.1-0.3-0.4-0.4
					 M169.7,105h0.2H169.7L169.7,105 M189.5,85.9L189.5,85.9 M146.3,34.7L146.3,34.7v0.2C146.3,34.9,146.3,34.8,146.3,34.7"/>
				<path class="st1" d="M288,12.8c-0.5,0-1.1,0-1.6,0l-1.1,0.1c-0.9,0-1.9,0.1-2.8,0.2s-2.3,0.3-3.5,0.5c-3,0.6-5.9,1.5-8.7,2.6
					c-2.5,0.9-4.9,2-7.2,3.3c-2.7,1.5-5.1,3.5-7.2,5.7l0,0c-0.3,0.2-0.5,0.6-0.5,1c0,0.3,0.1,0.7,0.4,0.9c0.2,0.1,0.4,0.2,0.6,0.2
					h0.1c0.2,0,0.4,0,0.6-0.1c1.3-0.3,2.7-0.5,4-0.6c1.6-0.2,3.3-0.3,5-0.3h4.7h3.3c0.5,0,0.9,0,1.4-0.1c0.5-0.1,0.9-0.1,1.4-0.1
					c0.3,0,0.7,0,1,0c0.8,0.1,1.6,0.1,2.5,0.1h1.9c2.9,0,5.8,0.1,8.6,0.2l1.9,0.1h0.5l1.9,0.1c1.4,0.1,2.8,0.1,4.2,0.2
					s2.7,0.1,4,0.1c2.5,0,5-0.1,7.4-0.3c0.7,0,1.3-0.1,2-0.2s1.1-0.2,1.8-0.4c0.7-0.2,1.3-0.4,1.9-0.8c0.4-0.2,0.7-0.6,0.8-1.1
					c0-0.2,0-0.5-0.1-0.7v-0.1c-0.1-0.2-0.2-0.4-0.3-0.5c-0.4-0.5-0.9-0.9-1.5-1.3h0c-0.8-0.5-1.6-1.1-2.5-1.6
					c-3-1.7-6.1-3.3-9.4-4.5c-3.2-1.3-6.6-2.1-10.1-2.4c-0.8-0.1-1.6-0.1-2.5-0.2l-0.8-0.1C289.3,12.9,288.6,12.8,288,12.8
					 M266.3,26.7c-2.8,0-5.6,0.2-8.4,0.7c-1,0.2-2,0.4-3,0.8c-0.7,0.3-1.3,0.6-1.9,1.1c-0.7,0.6-1.3,1.2-1.7,1.9
					c-0.3,0.4-0.3,0.8-0.1,1.2c0.1,0.2,0.2,0.4,0.4,0.5c0.5,0.3,0.9,0.6,1.2,1.1c0.3,0.5,0.6,1,0.9,1.5c0.3,0.7,0.7,1.4,1.2,2
					c0.1,0.1,0.2,0.2,0.4,0.3l0,0c0.2,0.1,0.4,0.2,0.6,0.2h0.1c0.4,0,0.8-0.2,1-0.5l0,0l0.8-0.9c2.5-3.1,5.6-5.7,9.1-7.5
					c0.2-0.1,0.5-0.3,0.7-0.4c0.3-0.2,0.4-0.4,0.5-0.7l0,0c0.1-0.5-0.3-1.1-0.8-1.1c0,0,0,0,0,0h-0.1
					C266.7,26.8,266.5,26.8,266.3,26.7L266.3,26.7z M251.3,25h-0.2l-0.7,0.1l-0.5,0.1c-2.7,0.4-5.3,1.2-7.9,2.2l-0.3,0.1
					c-3,1.4-5.8,3.2-8.4,5.4c-1.8,1.5-3.5,3.2-5.1,5c-2.9,3.3-5.2,7.1-6.7,11.3c-1.5,3.8-2.3,7.9-2.5,12c0,1.3,0,2.7,0.1,4
					c0.2,2.4,0.7,4.7,1.4,6.9c1.4,4.6,3.7,9,6.8,12.7c1.7,2,3.5,3.8,5.5,5.4c3,2.5,6.3,4.5,9.9,6.1c1.4,0.6,2.9,1.2,4.7,1.8
					c4.4,1.6,8.9,2.7,13.5,3.4c1.4,0.2,3.3,0.4,5.2,0.5c1.3,0.1,2.3,0.1,3.3,0.1c1.4,0,2.9-0.1,4.3-0.2c1.3-0.1,2.7-0.4,4-0.7
					c3.3-0.8,6.3-2.4,8.6-4.8c1-1,2-2.1,2.9-3.3c2.6-3.3,4.8-6.9,6.8-10.6c0.8-1.6,1.5-3.2,2.1-4.9c1.4-4.2,2.2-8.5,2.4-12.9
					c0.1-2.9,0-5.8-0.4-8.6c-0.2-1.3-0.4-2.5-0.6-3.7l-0.1-0.6c-0.4-2.1-0.9-4.2-1.6-6.3c-1.7-5.1-4.6-9.8-8.5-13.6
					c-1.8-1.8-4-3.2-6.4-4c-1.5-0.5-3-0.9-4.6-1.1c-1.3-0.2-2.7-0.1-4,0.1c-1.1,0.2-2.1,0.4-3.2,0.8c-3.4,1.2-6.7,2.9-9.5,5.2
					c-1.4,1.2-2.8,2.5-4,3.9c-0.7,0.8-1.5,1.6-2.4,2.6c-1.6,1.6-3.4,2.9-5.4,3.9c-1.4,0.7-2.9,1.4-4.4,1.9l-2.5,0.9l-2.5,0.9
					c-1.6,0.6-3.1,1.2-4.6,2c-0.8,0.4-1.5,0.9-2.2,1.5c-1.6,1.3-2.9,3.1-3.5,5.1c-0.4,1.4-0.9,2.8-1.2,4.3c0.2-1.3,0.4-2.7,0.7-4
					c0.4-1.6,1.1-3,2.3-4.3c1-1.1,2.1-2.1,3.4-2.8c0.7-0.4,1.5-0.8,2.3-1.1c1.3-0.6,2.6-1,4.1-1.5l4-1.4l0,0c0.5-0.1,0.8-0.5,1-0.9
					c0.1-0.2,0.1-0.4,0.1-0.5l-0.1-0.8l-0.3-2.2l-0.1-0.5c-0.1-0.5-0.1-0.9-0.2-1.4c-0.1-0.8-0.1-1.6,0.1-2.4c0.2-1,0.9-1.9,1.9-2.3
					l0.9-0.4l0.6-0.2l0.4-0.2l0.1,0c0.2-0.1,0.4-0.3,0.5-0.5c0.3-0.6,0.5-1.1,0.6-1.8c0.1-0.3,0.2-0.7,0.3-1v-0.1l0.7-2.2l0.2-0.8
					l0,0c0.1-0.3,0.1-0.7,0-1.1c-0.1-0.3-0.4-0.5-0.8-0.6l0,0C251.5,25.1,251.4,25.1,251.3,25 M268.7,102.7c-1.7,0-3.5-0.1-5.7-0.3
					c-1.1-0.1-2.2-0.2-3.3-0.4c-2.2-0.3-4.4-0.8-6.5-1.4c-3.2-0.9-6.4-1.9-9.4-3.2c-7.2-2.9-13.4-7.7-18.1-13.8
					c-4-5.5-6.5-12-7.1-18.9c-0.2-2-0.1-4,0.1-5.9c0.4-3.9,1.5-7.8,3-11.4c1.5-3.6,3.6-6.9,6.2-9.8c1.7-1.9,3.5-3.7,5.5-5.3
					c2.2-1.9,4.7-3.4,7.4-4.7c2.3-1.1,4.6-1.9,7.1-2.6c1.5-0.5,3-0.7,4.6-0.7c0.2,0,0.3,0,0.5-0.1h0c0.3-0.1,0.5-0.3,0.6-0.6l0-0.1
					c0-0.1,0.1-0.3,0.2-0.4s0.2-0.6,0.3-0.8c0.6-2,1.9-3.6,3.6-4.7c0.5-0.3,0.9-0.6,1.4-0.9c1.5-0.8,3-1.5,4.5-2.2
					c1.6-0.7,3.3-1.4,5-2.1l-1.8,0.8c-0.7,0.3-1.5,0.6-2.2,0.9l-1.7,0.7c-1.6,0.7-3.2,1.5-4.7,2.3c-1,0.6-1.8,1.3-2.6,2.1
					c-0.7,0.7-1.2,1.6-1.5,2.5l-0.5,1.5l-0.4,1.2c0,0.1-0.1,0.2-0.1,0.3v0c-0.1,0.5,0.1,1,0.6,1.2h0c0.4,0.1,0.8,0,1.1-0.3l0.1-0.1
					l0.3-0.3c2.3-2.6,5-4.8,8-6.5c2.6-1.5,5.4-2.7,8.3-3.7c1.8-0.6,3.5-1.1,5.1-1.6l0,0c0.4-0.1,0.8-0.3,1-0.6
					c0.2-0.3,0.2-0.7,0.1-1c0.2,0.2,0.4,0.4,0.7,0.5c0.1,0.1,0.2,0.1,0.4,0.1h0.1c0.2,0,0.3,0,0.5,0h0.5c0.7,0,1.4-0.1,2.2-0.1
					c2.2-0.2,4.1-0.3,6-0.3c0.9,0,1.7,0,2.6,0.1c1.1,0.1,2.1,0.2,3.1,0.3s2,0.3,2.9,0.4c2.6,0.4,5.1,1.1,7.5,2.2
					c3.3,1.3,6.4,2.9,9.4,4.7c0.8,0.5,1.5,1,2.3,1.5l0.1,0.1c0.5,0.3,0.9,0.7,1.3,1.2c0.2,0.3,0.4,0.6,0.5,1c0.2,0.6,0,1.3-0.5,1.7
					c-0.2,0.2-0.5,0.4-0.8,0.6c-0.5,0.3-1,0.5-1.6,0.6c-1,0.3-1.9,0.5-2.9,0.5c-0.8,0.1-1.6,0.1-2.4,0.2l-1,0.1
					c-1.6,0.1-3.3,0.2-5.1,0.2H302c-1,0-2,0-3-0.1h-0.2l-4.6-0.2l-2.9-0.2l-2.6-0.1h-0.1h-1h-0.5c-0.6,0-1,0.5-0.9,1.1
					c0,0,0,0.1,0,0.1l0,0c0,0.3,0.2,0.5,0.4,0.7c0.2,0.1,0.4,0.3,0.6,0.4c1,0.6,1.9,1.4,2.8,2.2c2.6,2.5,4.8,5.4,6.4,8.6
					c1.5,2.9,2.7,5.9,3.4,9.1c0.5,2.3,0.9,4.6,1.2,6.9c0.3,2.3,0.5,4.6,0.5,6.9c0,3-0.3,5.9-0.9,8.8c-0.3,1.4-0.6,2.7-0.9,4
					c-0.7,2.5-1.7,4.9-2.9,7.2c-2,3.8-4.3,7.3-6.9,10.7c-0.9,1.2-1.9,2.3-3,3.4c-2.4,2.3-5.3,4-8.5,4.8c-1.6,0.4-3.3,0.7-5,0.8
					c-1.2,0.1-2.6,0.2-4.1,0.2L268.7,102.7"/>
				<path class="st1" d="M230,71L230,71L230,71z M230,71L230,71z M255.5,37.2L255.5,37.2c-0.1,0-0.1-0.1-0.2-0.1
					c-0.4-0.5-0.7-1.1-1-1.8c-0.3-0.6-0.6-1.2-1-1.7c-0.3-0.6-0.9-1.1-1.5-1.4l0,0c0-0.1,0-0.3,0.1-0.3c0.4-0.7,0.9-1.3,1.5-1.8
					c0.5-0.4,1-0.7,1.6-0.9c0.9-0.3,1.9-0.6,2.8-0.7c2.7-0.4,5.5-0.7,8.2-0.7l0,0c0.1,0,0.3,0,0.4,0c0,0,0.1,0,0.1,0.1c0,0,0,0,0,0
					c0,0.1,0,0.1,0,0.1c-0.2,0.1-0.4,0.2-0.6,0.3c-3.7,1.9-6.9,4.5-9.5,7.8l-0.7,0.9C255.7,37,255.6,37.1,255.5,37.2L255.5,37.2
					 M269.2,101c-1.1,0-2.1,0-3.2-0.1c-1.7-0.1-3.4-0.3-5.1-0.5c-4.5-0.6-9-1.8-13.3-3.3c-1.6-0.5-3.1-1.1-4.6-1.8
					c-3.5-1.5-6.7-3.5-9.6-5.9c-2-1.6-3.8-3.4-5.4-5.3c-3-3.6-5.3-7.8-6.6-12.3c-0.7-2.2-1.1-4.5-1.3-6.8c-0.1-1.3-0.2-2.6-0.1-3.8
					c0.2-4,1-7.9,2.4-11.7c1.5-4,3.7-7.8,6.6-11c1.6-1.8,3.2-3.4,5-4.9c2.5-2.1,5.2-3.8,8.2-5.2l0.2-0.1c2.5-1,5-1.7,7.7-2.2
					l1.2-0.2h0.1h0.3l0,0c0.1,0.2,0.1,0.3,0,0.5c-0.3,1-0.6,1.9-0.9,2.9c-0.1,0.4-0.3,0.8-0.3,1.2c-0.1,0.5-0.3,1.1-0.5,1.6l0,0
					c-0.1,0.1-0.3,0.1-0.4,0.2c-0.5,0.2-1,0.4-1.5,0.6c-1.2,0.6-2.1,1.7-2.4,3c-0.2,0.9-0.3,1.8-0.1,2.8c0.1,0.6,0.2,1.2,0.3,1.9
					c0.1,1,0.3,2.1,0.4,3l0,0c-0.1,0.2-0.3,0.3-0.5,0.4l-4,1.4c-1.4,0.5-2.8,1-4.1,1.6c-0.8,0.4-1.6,0.8-2.4,1.2
					c-1.3,0.8-2.6,1.8-3.6,2.9c-1.2,1.3-2.1,2.9-2.5,4.7c-0.7,3-1,6.1-0.9,9.2c0.1,1.2,0.3,2.3,0.6,3.4c0.1,0.5,0.3,1.1,0.6,1.6
					c0.2,0.3,0.4,0.6,0.6,0.9c0.1,0.1,0.2,0.1,0.3,0.1h0.1c0-0.1,0-0.3-0.1-0.4c-0.4-0.9-0.7-2-0.7-3c-0.2-2.3,0-4.6,0.5-6.9
					c0.3-1.6,0.8-3.2,1.3-4.8c0.6-1.8,1.7-3.5,3.2-4.7c0.6-0.5,1.3-1,2-1.4c1.4-0.8,2.9-1.4,4.4-1.9c1.7-0.6,3.4-1.2,5-1.8
					c1.5-0.6,3.1-1.2,4.5-2c2.1-1.1,4-2.5,5.6-4.1c0.9-0.9,1.7-1.7,2.5-2.7c1.2-1.4,2.5-2.7,3.9-3.8c2.7-2.2,5.8-4,9.2-5.1
					c1-0.3,2-0.6,3-0.8c1.3-0.2,2.5-0.2,3.8-0.1c1.5,0.2,3,0.5,4.4,1c2.3,0.8,4.3,2.1,6.1,3.8c3.8,3.7,6.6,8.2,8.2,13.2
					c0.7,2,1.2,4,1.6,6.1c0.3,1.4,0.5,2.9,0.7,4.3c0.4,2.8,0.5,5.6,0.4,8.5c-0.2,4.3-1,8.6-2.4,12.6c-0.5,1.7-1.2,3.3-2,4.9
					c-1.9,3.7-4.2,7.2-6.7,10.5c-0.9,1.1-1.8,2.2-2.8,3.2c-2.2,2.3-5.1,3.8-8.2,4.5c-1.3,0.3-2.6,0.5-3.9,0.6
					C272.1,101,270.7,101,269.2,101 M256.1,26.4L256.1,26.4C256,26.4,256,26.4,256.1,26.4c-0.1-0.3,0.1-0.4,0.3-0.5
					c2.1-2.2,4.4-4,7-5.5c2.3-1.3,4.6-2.4,7.1-3.3c2.8-1.1,5.7-1.9,8.6-2.5c1.1-0.2,2.3-0.4,3.4-0.5s2.6-0.2,3.8-0.3
					c0.5,0,1,0,1.5,0c0.7,0,1.3,0,1.9,0.1c1.1,0.1,2.2,0.2,3.2,0.3c3.4,0.3,6.7,1.1,9.9,2.3c3.2,1.2,6.2,2.7,9.1,4.4
					c0.9,0.5,1.7,1,2.5,1.6c0.5,0.3,0.9,0.7,1.3,1.1c0.1,0.1,0.2,0.3,0.3,0.4l0,0c0,0.2-0.2,0.4-0.4,0.5c-0.5,0.3-1.1,0.5-1.6,0.7
					c-0.6,0.1-1.2,0.3-1.7,0.4s-1.3,0.2-2,0.2c-2.4,0.2-4.9,0.3-7.3,0.3c-1.3,0-2.6,0-3.9-0.1c-2-0.1-4.1-0.2-6.1-0.3h-0.5
					c-3.5-0.1-7-0.3-10.6-0.3h-1.9c-0.8,0-1.6,0-2.4-0.1c-0.4,0-0.7-0.1-1.1-0.1c-0.5,0-1,0-1.5,0.1c-0.4,0-0.9,0.1-1.3,0.1
					c-2.6,0-5.3,0-7.9,0c-1.7,0-3.4,0.2-5.1,0.3c-1.4,0.1-2.7,0.3-4.1,0.6L256.1,26.4L256.1,26.4 M253.9,25.1L253.9,25.1L253.9,25.1
					C253.8,25.1,253.8,25,253.9,25.1c0-0.2,0-0.3,0-0.4l1-2.8c0.3-0.8,0.7-1.6,1.3-2.2c0.7-0.8,1.5-1.4,2.4-1.9
					c1.5-0.9,3.1-1.7,4.7-2.3c1.3-0.5,2.6-1,3.8-1.6c1.9-0.8,3.7-1.6,5.6-2.5c0.5-0.2,1-0.4,1.6-0.6c0.3-0.1,0.6-0.1,0.9-0.1l0,0
					c0.4,0,0.8,0.2,1,0.5c0.3,0.4,0.5,0.7,0.7,1.1c0,0,0,0,0,0.1c-0.1,0.2-0.3,0.3-0.5,0.3c-1.8,0.5-3.5,1-5.2,1.6
					c-2.9,1-5.8,2.2-8.5,3.7c-3.1,1.8-5.9,4-8.3,6.7L253.9,25.1L253.9,25.1 M274.9,8.9c-0.3,0-0.7,0-1,0.1c-0.6,0.2-1.2,0.4-1.8,0.6
					c-3,1.4-6,2.6-9,3.8c-1.6,0.7-3.1,1.4-4.6,2.2c-0.5,0.3-1,0.6-1.5,0.9c-1.9,1.2-3.3,3.1-4,5.2c-0.1,0.3-0.2,0.5-0.2,0.8
					s-0.1,0.3-0.2,0.5l0,0c-0.1,0-0.2,0.1-0.3,0.1c-1.7,0.1-3.3,0.3-4.9,0.9c-2.5,0.7-4.9,1.6-7.2,2.7c-2.7,1.3-5.3,2.9-7.6,4.8
					c-2,1.7-3.9,3.5-5.6,5.4c-2.7,3-4.8,6.4-6.4,10c-1.6,3.7-2.6,7.7-3.1,11.7c-0.2,2-0.2,4.1-0.1,6.1c0.6,7,3.1,13.7,7.3,19.3
					c4.8,6.3,11.2,11.2,18.5,14.2c3.1,1.2,6.3,2.3,9.5,3.2c2.2,0.6,4.4,1.1,6.6,1.4c1.1,0.2,2.2,0.3,3.3,0.4
					c1.9,0.2,3.9,0.3,5.8,0.3h0.4c1.4,0,2.8,0,4.2-0.2c1.7-0.1,3.5-0.4,5.2-0.8c3.4-0.8,6.5-2.6,8.9-5c1.1-1.1,2.1-2.2,3.1-3.5
					c2.6-3.4,5-7,7-10.8c1.3-2.3,2.3-4.8,3-7.4c0.4-1.3,0.7-2.7,1-4c0.6-3,0.9-6,0.9-9c0-2.3-0.2-4.7-0.5-7c-0.3-2.4-0.7-4.7-1.3-7
					c-0.8-3.3-1.9-6.4-3.5-9.4c-1.7-3.3-4-6.2-6.6-8.8c-0.9-0.9-1.9-1.7-2.9-2.3c-0.2-0.1-0.3-0.2-0.5-0.3c0,0,0-0.1,0-0.1
					c0,0,0-0.1,0-0.1c0,0,0,0,0,0h0.5c0.4,0,0.7,0,1.1,0l3.8,0.2l6.4,0.3c1.1,0,2.2,0.1,3.3,0.1h1.4c1.7,0,3.5,0,5.2-0.2
					c1.1-0.1,2.3-0.1,3.5-0.3c1-0.1,2.1-0.3,3.1-0.6c0.6-0.2,1.3-0.4,1.8-0.8c0.3-0.2,0.7-0.4,1-0.7c0.7-0.7,1-1.7,0.7-2.6
					c-0.1-0.5-0.4-0.9-0.7-1.3c-0.4-0.5-0.9-1-1.5-1.3c-0.8-0.5-1.6-1.1-2.4-1.6c-3-1.8-6.2-3.4-9.5-4.8c-2.5-1-5-1.8-7.6-2.2
					c-1-0.2-2-0.3-2.9-0.4s-2.1-0.2-3.1-0.3c-0.9,0-1.8-0.1-2.6-0.1c-2,0-4,0.1-6.1,0.3c-0.8,0.1-1.6,0.1-2.5,0.1h-0.2
					c-0.2,0-0.4,0-0.5,0l0,0c-0.3-0.2-0.6-0.4-0.7-0.7c-0.2-0.4-0.5-0.8-0.8-1.1c-0.4-0.5-1-0.7-1.6-0.8C275.4,9,275.2,9,274.9,8.9
					 M250.8,33.7L250.8,33.7c0.2,0.1,0.4,0.2,0.5,0.3c0.1,0.2,0.3,0.4,0.4,0.5c0.3,0.4,0.6,0.9,0.8,1.3c0.3,0.8,0.8,1.5,1.3,2.2
					c0.2,0.2,0.4,0.4,0.6,0.5l0,0l0.2,0.2l-0.1,0.1c-1.5,1.5-3.3,2.8-5.2,3.8c-0.5,0.3-1.1,0.6-1.7,0.8v-0.1l-0.1-0.9
					c-0.1-0.7-0.2-1.5-0.3-2.2l-0.1-0.5c-0.1-0.5-0.1-0.9-0.2-1.3c-0.1-0.7-0.1-1.4,0.1-2.1c0.1-0.8,0.6-1.4,1.4-1.7l0.9-0.4
					l0.6-0.3c0.2-0.1,0.3-0.2,0.4-0.2h0.1C250.5,33.9,250.7,33.8,250.8,33.7 M283.4,27.2h1.5c-0.1,0.2-0.1,0.4-0.1,0.6
					C284.4,27.6,283.9,27.4,283.4,27.2 M269.9,27.2c-0.5,0.2-1,0.4-1.5,0.6c0-0.2,0-0.4-0.1-0.6L269.9,27.2 M253.2,27L253.2,27z
					 M253.3,26.8L253.3,26.8c0.2,0.1,0.4,0.1,0.7,0.1h0.3c0,0.1,0.1,0.3,0.2,0.4h-0.1c-0.5,0.2-1,0.5-1.5,0.8l0.1-0.3l0.2-0.8l0,0
					L253.3,26.8"/>
			</g>
		</g>
	</g>
	<text transform="matrix(1 0 0 1 1.33 161.98)" class="st1 st2 st3">FRUK</text>
	<text transform="matrix(1 0 0 1 155.69 161.98)" class="st1 st2 st3 st4">T</text>
	<text transform="matrix(1 0 0 1 188.33 161.98)" class="st1 st2 st3">O</text>
	<text transform="matrix(1 0 0 1 231.21 161.98)" class="st1 st2 st3">V</text>
	<text transform="matrix(1 0 0 1 269.74 161.98)" class="st1 st2 st3 st4">Y</text>
</g>
</svg>
