<?xml version="1.0" encoding="utf-8"?>
<!-- Generator: Adobe Illustrator 21.0.0, SVG Export Plug-In . SVG Version: 6.00 Build 0)  -->
<svg version="1.1" xmlns="http://www.w3.org/2000/svg" xmlns:xlink="http://www.w3.org/1999/xlink" x="0px" y="0px"
	 viewBox="0 0 113.4 113.4" style="enable-background:new 0 0 113.4 113.4;" xml:space="preserve">
<style type="text/css">
	.st0{fill:none;}
	.st1{fill:#D67066;}
</style>
<g id="Laag_3">
</g>
<g id="Laag_2">
	<rect x="-196.8" y="0.5" class="st0" width="506.3" height="112.5"/>
	<path class="st1" d="M17.3,73.3L17.3,73.3L17.3,73.3L17.3,73.3z M17.3,73.3L17.3,73.3L17.3,73.3z M44.3,37.5
		C44.3,37.5,44.2,37.5,44.3,37.5c-0.1,0-0.2-0.1-0.2-0.2c-0.4-0.6-0.8-1.2-1.1-1.9c-0.2-0.6-0.6-1.3-1.1-1.8c-0.6-0.8-0.7-1-1.6-1.5
		l0,0c-0.1-0.1,0-0.2,0.1-0.3c0.4-0.7,1.1-1.3,1.7-1.9c0.5-0.4,1.1-0.7,1.7-1c1-0.4,2-0.6,3.1-0.7c2.9-0.5,5.8-0.6,8.7-0.7l0,0
		c0.1,0,0.3,0,0.4,0c0,0,0.1,0,0.1,0.1s0,0.1,0,0.1c-0.2,0.1-0.4,0.2-0.6,0.3c-3.9,2-7.2,4.8-10,8.3c-0.2,0.3-0.5,0.6-0.7,1
		C44.5,37.4,44.4,37.5,44.3,37.5L44.3,37.5 M58.8,105.3c-1.2,0-2.2,0-3.4-0.1c-1.8-0.1-3.6-0.3-5.4-0.5c-4.9-0.6-9.4-1.9-14.1-3.5
		c-1.7-0.5-3.3-1.2-4.9-1.9c-3.7-1.6-7.1-3.7-10.2-6.3c-2.1-1.7-4-3.6-5.7-5.6c-3.3-3.8-5.5-8.3-7-13.1C7.4,71.9,7,69.4,6.7,67
		c-0.1-1.4-0.2-2.8-0.1-4c0.1-4.2,1.1-8.4,2.5-12.4c1.6-4.2,3.9-8.3,7-11.7c1.7-1.9,3.5-3.6,5.3-5.2c2.7-2.2,5.5-4,8.7-5.5
		c0.1,0,0.2-0.1,0.2-0.1c2.7-1.1,5.3-1.9,8.2-2.3c0.4-0.1,0.8-0.1,1.3-0.2c0,0,0,0,0.1,0s0.2,0,0.3,0l0,0c0.1,0.2,0,0.3,0,0.5
		c-0.3,1.1-0.6,2-1,3.1c-0.1,0.4-0.3,0.8-0.3,1.3c-0.1,0.5-0.3,1.2-0.5,1.7l0,0c-0.1,0.1-0.3,0.1-0.4,0.2c-0.5,0.2-1.1,0.4-1.6,0.6
		c-1.4,0.6-2.1,1.7-2.5,3.2c-0.6,1.2-0.6,2.1-0.5,3.1c0.1,0.6,0.2,1.3,0.3,2c0.1,1.1,0.3,2.2,0.4,3.2l0,0c-0.1,0.3-0.3,0.3-0.5,0.4
		c-1.4,0.5-2.9,1-4.2,1.5c-1.5,0.5-3,1.1-4.5,1.7c-0.8,0.4-1.7,0.7-2.5,1.3c-1.5,0.8-2.7,1.8-3.8,3.1c-1.3,1.5-2.2,3.1-2.7,5
		c-0.7,3.2-1.1,6.5-1,9.8c0.1,1.3,0.3,2.4,0.6,3.6c0.2,0.5,0.3,1.2,0.6,1.7c0.2,0.3,0.4,0.6,0.6,1c0.1,0.1,0.1,0.1,0.2,0.1h0.1
		c0-0.1,0-0.2-0.1-0.4c-0.4-1-0.6-2-0.7-3.2c-0.2-2.4,0-4.9,0.5-7.3c0.3-1.7,0.8-3.4,1.4-5.1c0.6-2,1.8-3.6,3.4-4.9
		c0.6-0.5,1.4-1.1,2.1-1.5c1.5-0.8,3.1-1.5,4.7-2c1.8-0.6,3.5-1.3,5.3-1.9c1.6-0.6,3.3-1.3,4.8-2.1c2.2-1.2,4.2-2.5,5.9-4.3
		c1-1,1.8-1.8,2.7-2.9c1.3-1.5,2.7-2.8,4.1-4c2.9-2.4,6.1-4.1,9.8-5.4c1.1-0.3,2.1-0.6,3.2-0.7c0.7-0.1,1.5-0.2,2.3-0.2
		c0.5,0,1.2,0,1.7,0.1c1.6,0.2,3.1,0.5,4.7,1.1c2.4,0.8,4.6,2.2,6.5,4c4,3.9,6.9,8.7,8.7,14c0.7,2.1,1.3,4.3,1.7,6.5
		c0.3,1.5,0.5,3.1,0.7,4.6c0.4,3,0.5,5.9,0.4,9c-0.2,4.6-1.1,9-2.5,13.4c-0.6,1.7-1.4,3.4-2.2,5c-2.1,3.9-4.5,7.5-7.2,11
		c-1,1.2-1.9,2.3-3,3.4c-2.4,2.4-5.3,4-8.7,4.8c-1.4,0.3-2.8,0.5-4.1,0.6C61.8,105.1,60.3,105.3,58.8,105.3 M44.9,26.1
		C44.9,26.1,44.8,26.1,44.9,26.1C44.8,26.1,44.8,26.1,44.9,26.1c-0.1-0.3,0.1-0.4,0.2-0.5c2.2-2.3,4.7-4.2,7.4-5.8
		c2.4-1.4,4.9-2.5,7.5-3.5c3-1.1,6-2,9.1-2.7c1.2-0.2,2.4-0.4,3.6-0.5c1.4-0.2,2.8-0.2,4-0.3c0.5,0,1.1-0.1,1.6-0.1
		c0.6,0,1.4,0,2,0.1c1.2,0.1,2.3,0.2,3.4,0.3c3.6,0.3,7.1,1.1,10.5,2.4c3.3,1.4,6.6,2.9,9.6,4.7c1,0.5,1.8,1.1,2.7,1.7
		c0.5,0.3,1,0.7,1.4,1.2c0.1,0.1,0.2,0.3,0.2,0.4l0,0c-0.1,0.3-0.2,0.4-0.4,0.5c-0.5,0.3-1.2,0.5-1.7,0.7c-0.6,0.1-1.3,0.3-1.8,0.4
		c-0.6,0.1-1.4,0.2-2.1,0.2c-2.5,0.2-5.2,0.3-7.7,0.3c-1.4,0-2.8,0-4.1-0.1c-2.1-0.1-4.3-0.2-6.5-0.3c-0.2,0-0.3,0-0.5,0
		c-3.7-0.1-7.5-0.3-11.2-0.3c-0.5,0-1.1,0-1.6,0c-0.1,0-0.3,0-0.4,0c-0.8,0-1.7,0-2.4-0.1c-0.4,0-0.7-0.1-1.2-0.1
		c-0.5,0-1.1,0-1.6,0.1c-0.4,0-1,0.1-1.4,0.1c-2.8,0-5.6,0-8.4,0c-1.8,0-3.6,0.2-5.4,0.3c-1.5,0.1-2.9,0.3-4.3,0.6
		C45.3,26.1,45,26.1,44.9,26.1L44.9,26.1 M42.6,24.7L42.6,24.7L42.6,24.7c-0.1,0-0.1-0.1-0.1-0.1c0-0.1,0.1-0.2,0.1-0.3
		c0.3-1,0.7-2,1.1-3c0.3-0.8,0.7-1.6,1.4-2.3c0.7-0.8,1.6-1.5,2.5-2c1.6-1,3.3-1.8,5-2.4c1.4-0.5,2.8-1.1,4-1.7
		c2-0.8,3.9-1.7,5.9-2.7c0.5-0.2,1.1-0.5,1.7-0.6c0.3-0.1,0.6-0.1,1-0.1l0,0c0.4,0,0.7,0.2,1.1,0.5s0.5,0.7,0.7,1.2c0,0,0,0,0,0.1
		c-0.2,0.2-0.3,0.2-0.5,0.3c-1.9,0.5-3.7,1.1-5.5,1.7c-3.1,1.1-6.1,2.3-9,4c-3.3,1.9-6.3,4.2-8.8,7.1C42.9,24.5,42.8,24.6,42.6,24.7
		C42.7,24.7,42.7,24.7,42.6,24.7 M64.9,7.5c-0.4,0-0.7,0-1.1,0.1c-0.6,0.1-1.3,0.4-1.9,0.6c-3.2,1.5-6.4,2.8-9.5,4
		c-1.7,0.6-3.3,1.5-4.9,2.3c-0.5,0.3-1.1,0.6-1.6,1c-2,1.4-3.5,3.2-4.2,5.5c-0.1,0.3-0.2,0.5-0.2,0.8c-0.1,0.2-0.1,0.3-0.2,0.5l0,0
		c-0.1,0-0.2,0.1-0.3,0.1c-1.8,0-3.5,0.3-5.2,0.8c-2.7,0.7-5.2,1.7-7.6,2.9c-2.9,1.4-5.6,3.1-8.1,5.1c-2.1,1.8-4.1,3.7-5.9,5.7
		c-2.9,3.2-5.1,6.8-6.8,10.7S4.5,55.9,4,60.2c-0.2,2.1-0.2,4.3-0.1,6.5c0.2,2.9,0.7,5.6,1.6,8.3c1.4,4.5,3.3,8.5,6,12.2
		c1.8,2.3,3.8,4.5,5.9,6.5c4,3.6,8.6,6.6,13.7,8.6c3.3,1.3,6.7,2.4,10.1,3.4c2.3,0.6,4.7,1.2,7.1,1.5c1.2,0.2,2.3,0.3,3.5,0.4
		c2,0.2,4.1,0.3,6.1,0.3c0.1,0,0.2,0,0.4,0c1.5,0,3,0,4.5-0.2c1.8-0.2,3.7-0.4,5.5-0.8c3.6-1,6.8-2.7,9.4-5.3
		c1.2-1.2,2.2-2.3,3.3-3.7c2.8-3.6,5.3-7.4,7.4-11.4c1.4-2.5,2.4-5.1,3.2-7.8c0.4-1.4,0.7-2.9,1.1-4.2c0.6-3.2,1-6.4,1-9.5
		c0-2.4-0.2-5-0.5-7.4c-0.3-2.5-0.7-5-1.4-7.4c-0.8-3.5-2-6.8-3.7-10c-1.8-3.5-4.1-6.6-7-9.3c-1-1-2-1.8-3.1-2.4
		c-0.2-0.1-0.3-0.2-0.5-0.3v-0.1c0,0,0-0.1,0.1-0.1c0.2,0,0.3,0,0.5,0c0.4,0,0.7,0,1.2,0c1.3,0,2.7,0.1,3.9,0.2
		c2.2,0.1,4.6,0.2,6.8,0.3c1.2,0,2.3,0.1,3.5,0.1c0.4,0,1,0,1.4,0c1.8,0,3.6,0,5.5-0.2c1.2-0.1,2.4-0.1,3.6-0.2
		c1.1-0.1,2.2-0.3,3.3-0.6c0.6-0.2,1.4-0.4,1.9-0.8c0.3-0.2,0.7-0.4,1-0.7c0.7-0.8,1.1-1.7,0.7-2.8c-0.1-0.5-0.4-1-0.7-1.4
		c-0.4-0.5-1-1.1-1.6-1.4c-0.8-0.5-1.7-1.2-2.5-1.7c-3.2-2-6.6-3.6-10.1-5c-2.7-1.1-5.3-1.9-8.2-2.3c-1.1-0.2-2-0.3-3.1-0.4
		c-1.1-0.1-2.2-0.2-3.3-0.3c-1-0.1-1.8-0.1-2.8-0.1c-2.1,0-4.2,0.1-6.5,0.3c-0.8,0.1-1.7,0.1-2.7,0.1c0,0,0,0-0.1,0
		c-0.2,0-0.4,0-0.5-0.1l0,0c-0.4-0.2-0.6-0.5-0.7-0.7c-0.2-0.4-0.5-0.8-0.8-1.2c-0.5-0.5-1.1-0.7-1.7-0.8
		C65.3,7.6,65.1,7.5,64.9,7.5 M39.3,33.8L39.3,33.8c0.3,0.2,0.5,0.3,0.6,0.4c0.1,0.1,0.2,0.3,0.4,0.5c0.3,0.4,0.6,1,0.7,1.4
		c0.3,0.8,0.7,1.6,1.4,2.3c0.2,0.3,0.5,0.5,0.6,0.5l0,0c0.1,0.1,0.2,0.1,0.2,0.1l-0.1,0.1c-1.6,1.6-3.4,2.9-5.5,4
		c-0.5,0.3-1.2,0.6-1.8,0.8c0,0,0,0,0-0.1l-0.1-1c-0.1-0.7-0.2-1.5-0.3-2.3c0-0.2,0-0.3-0.1-0.5c-0.1-0.5-0.1-1-0.2-1.4
		c-0.1-0.8,0-1.6,0.1-2.2c0.2-1,0.6-1.5,1.5-1.8c0.3-0.1,0.6-0.2,1-0.4c0.2-0.1,0.4-0.2,0.6-0.2c0.2-0.1,0.3-0.1,0.4-0.2h0.1
		C39.1,33.9,39.2,33.9,39.3,33.8 M74,26.9c0.5,0,1.1,0,1.6,0c-0.1,0.2-0.1,0.4-0.1,0.6C74.9,27.3,74.4,27.1,74,26.9 M59.6,26.9
		c-0.5,0.2-1.1,0.4-1.6,0.6c0-0.2,0-0.4-0.1-0.6C58.5,26.9,59,26.9,59.6,26.9 M41.9,26.7L41.9,26.7L41.9,26.7z M42,26.6L42,26.6
		c0.2,0.1,0.5,0.1,0.7,0.1c0.1,0,0.2,0,0.3,0c0,0.1,0.1,0.3,0.2,0.4c0,0,0,0-0.1,0c-0.6,0.2-1.2,0.5-1.6,0.8c0-0.1,0.1-0.2,0.1-0.3
		l0.2-0.8l0,0C41.9,26.7,41.9,26.6,42,26.6"/>
	<path class="st1" d="M78.3,12c-0.5,0-1.2,0-1.7,0.1c-0.4,0-0.7,0-1.2,0.1c-1,0.1-2,0.1-3,0.2c-1.1,0.1-2.4,0.3-3.7,0.5
		c-3,0.6-5.9,1.5-9.2,2.7c-2.9,1.1-5.4,2.2-7.6,3.5c-3,1.7-5.5,3.7-7.7,6l0,0c-0.2,0.1-0.5,0.4-0.5,1.1c0,0.3,0.1,0.7,0.4,1
		c0.1,0,0.3,0.2,0.6,0.2h0.1c0.2,0,0.4,0,0.6-0.1c1.4-0.3,2.8-0.5,4.2-0.6c1.7-0.2,3.5-0.3,5.3-0.3c1.7,0,3.3,0,5,0
		c1.2,0,2.3,0,3.4,0c0.5,0,1,0,1.5-0.1s1.1-0.1,1.5-0.1c0.4,0,0.7,0,1.1,0.1c0.7,0.1,1.6,0.1,2.5,0.1c0.1,0,0.3,0,0.4,0
		c0.5,0,1.1,0,1.5,0c3.1,0,6.1,0.1,9.1,0.2c0.6,0,1.4,0,2,0.1c0.1,0,0.2,0,0.3,0h0.2c0.6,0,1.4,0.1,2,0.1c1.5,0.1,3,0.1,4.5,0.2
		c1.4,0,2.9,0.1,4.2,0.1c2.7,0,5.3-0.1,7.8-0.3c0.7,0,1.4-0.1,2.1-0.2c0.5-0.1,1.2-0.2,1.9-0.4c0.7-0.2,1.5-0.4,2-0.8
		c0.2-0.1,0.6-0.4,0.8-1.2c0-0.2,0-0.5-0.1-0.7v-0.1c-0.1-0.1-0.2-0.3-0.3-0.5c-0.5-0.6-1.1-1.1-1.6-1.4h-0.1
		c-0.8-0.5-1.7-1.2-2.7-1.7c-2.9-1.7-6.1-3.3-9.9-4.8c-3.3-1.3-6.8-2.1-10.7-2.5c-0.8-0.1-1.8-0.1-2.7-0.2c-0.3,0-0.5,0-0.8-0.1
		C79.8,12,79.1,12,78.3,12 M55.3,26.7c-3.3,0-6.3,0.3-8.9,0.7c-1.3,0.2-2.2,0.5-3.2,0.8c-0.8,0.3-1.5,0.6-2,1.2
		c-0.7,0.6-1.3,1.3-1.8,2c-0.3,0.5-0.2,1.1-0.2,1.3c0.1,0.2,0.2,0.4,0.4,0.5c0.7,0.4,0.7,0.4,1.3,1.2c0.4,0.5,0.6,1.1,0.8,1.6
		c0.3,0.7,0.7,1.4,1.3,2.1c0.1,0.2,0.3,0.3,0.4,0.3l0,0c0.2,0.1,0.4,0.2,0.6,0.2c0,0,0,0,0.1,0c0.6,0,0.8-0.4,1.1-0.5l0,0
		c0.3-0.3,0.5-0.6,0.8-1c2.7-3.3,5.8-6,9.6-8c0.2-0.1,0.5-0.3,0.7-0.4c0.4-0.2,0.4-0.6,0.5-0.7l0,0c0-0.3,0-0.5-0.2-0.8
		c-0.2-0.2-0.4-0.4-0.7-0.4h-0.1C55.7,26.7,55.5,26.7,55.3,26.7L55.3,26.7z M39.5,24.9c-0.1,0-0.1,0-0.2,0c-0.2,0-0.5,0.1-0.7,0.1
		c-0.2,0-0.3,0-0.5,0.1c-3.1,0.4-5.9,1.4-8.4,2.3c-0.1,0-0.2,0.1-0.3,0.1c-3.4,1.6-6.3,3.5-8.9,5.7c-1.9,1.7-3.8,3.5-5.4,5.3
		c-3.1,3.5-5.5,7.5-7.1,12s-2.5,8.7-2.7,12.7c0,1.5,0,2.9,0.1,4.2c0.2,2.4,0.7,5,1.5,7.3c1.6,5.1,4,9.6,7.2,13.5
		c1.7,2,3.6,3.9,5.8,5.7c3.3,2.7,6.8,4.9,10.5,6.5c1.5,0.6,3.1,1.3,5,1.9c5.4,1.9,10,3.1,14.3,3.6c1.5,0.2,3.5,0.4,5.5,0.5
		c1.4,0.1,2.4,0.1,3.5,0.1c1.7,0,3.2-0.1,4.6-0.2c1.7-0.2,3-0.4,4.2-0.7c3.6-0.8,6.7-2.5,9.1-5.1c1.2-1.2,2.2-2.3,3.1-3.5
		c2.8-3.5,5.2-7.3,7.2-11.2c0.8-1.7,1.7-3.4,2.2-5.2c1.5-4.3,2.3-8.9,2.5-13.7c0.1-2.9,0-5.8-0.4-9.1c-0.2-1.4-0.4-2.7-0.6-3.9
		l-0.1-0.6c-0.4-2.3-1-4.6-1.7-6.7c-1.9-5.6-5-10.5-9-14.4c-1.9-1.9-4.2-3.4-6.8-4.2c-1.6-0.5-3.3-1-4.9-1.2
		c-0.6-0.1-1.3-0.1-1.8-0.1c-0.8,0-1.6,0.1-2.4,0.2c-1.2,0.2-2.3,0.4-3.4,0.8c-3.9,1.4-7.1,3.2-10.1,5.6c-1.5,1.3-2.9,2.7-4.2,4.1
		c-0.7,0.8-1.6,1.7-2.5,2.8c-1.6,1.6-3.6,3.1-5.7,4.1c-1.4,0.7-3,1.4-4.7,2c-0.8,0.3-1.8,0.6-2.7,1s-1.8,0.6-2.7,1
		c-1.4,0.5-3.1,1.2-4.9,2.1c-0.8,0.5-1.6,1-2.3,1.6c-1.8,1.5-3.1,3.3-3.7,5.4c-0.4,1.5-0.8,3-1.3,4.6c0.1-1.4,0.4-2.9,0.7-4.2
		c0.4-1.7,1.2-3.2,2.3-4.6c1.1-1.2,2.2-2.1,3.6-2.9c0.7-0.4,1.5-0.8,2.4-1.2c1.4-0.6,2.8-1.1,4.3-1.6c1.4-0.5,2.9-1,4.2-1.5l0,0
		c0.2-0.1,0.7-0.3,1.1-1c0.1-0.2,0.1-0.3,0.1-0.5l-0.1-0.8c-0.1-0.7-0.2-1.6-0.3-2.3c0-0.1,0-0.3-0.1-0.4c-0.1-0.5-0.1-1-0.2-1.5
		c-0.1-1.1-0.1-1.8,0.1-2.5c0.3-1.3,1-2,2-2.4c0.3-0.1,0.6-0.3,1-0.4c0.2-0.1,0.4-0.2,0.6-0.2c0.1-0.1,0.3-0.1,0.4-0.2
		c0,0,0.1,0,0.1-0.1c0.2-0.1,0.4-0.3,0.5-0.5c0.2-0.5,0.5-1.2,0.6-1.9c0.1-0.3,0.2-0.7,0.3-1.1V30c0.2-0.7,0.4-1.5,0.7-2.3l0.2-0.7
		l0,0c0.1-0.2,0.2-0.6,0-1.2c-0.1-0.3-0.4-0.5-0.8-0.6l0,0C39.7,24.9,39.6,24.9,39.5,24.9 M58,107.2c-1.8,0-3.7-0.1-6-0.3
		c-1.2-0.1-2.3-0.2-3.5-0.4c-2.2-0.3-4.5-0.8-6.9-1.5c-3.2-0.8-6.5-2-10-3.4c-4.8-1.9-9.3-4.7-13.4-8.4c-2.2-2-4.1-4.1-5.8-6.4
		c-2.7-3.5-4.6-7.3-5.9-11.9c-0.8-2.8-1.4-5.4-1.6-8.1c-0.2-2.1-0.1-4.2,0.1-6.3c0.4-4,1.5-8.2,3.2-12.1c1.6-3.8,3.8-7.3,6.6-10.4
		c1.8-2,3.7-3.9,5.8-5.6c2.4-2,5-3.7,7.8-5c2.7-1.2,5.1-2.1,7.5-2.8c1.9-0.5,3.4-0.7,4.9-0.7c0.2,0,0.4-0.1,0.5-0.1c0,0,0,0,0.1,0
		c0.3-0.1,0.5-0.3,0.6-0.6l0.1-0.1c0.1-0.1,0.1-0.3,0.2-0.4c0.1-0.3,0.2-0.6,0.3-0.8c0.5-2,1.8-3.6,3.8-5c0.4-0.3,0.8-0.5,1.5-1
		c1.7-1,3.3-1.7,4.8-2.3c1.7-0.7,3.5-1.5,5.3-2.2c-0.6,0.3-1.3,0.5-1.9,0.8c-0.7,0.3-1.5,0.6-2.3,1c-0.5,0.2-1.2,0.5-1.8,0.7
		c-1.7,0.7-3.4,1.6-5.1,2.5c-1,0.5-1.9,1.4-2.8,2.2c-0.7,0.8-1.3,1.7-1.6,2.7c-0.2,0.5-0.4,1.1-0.5,1.7c-0.1,0.4-0.3,0.8-0.4,1.3
		c0,0.1-0.1,0.2-0.1,0.3v0.1c-0.1,0.5,0.1,1.1,0.6,1.3h0.1c0.1,0,0.2,0.1,0.3,0.1c0.3,0,0.5-0.1,0.7-0.3l0.1-0.1
		c0.1-0.1,0.2-0.2,0.3-0.3c2.3-2.7,5.1-4.9,8.5-6.9c2.5-1.5,5.4-2.8,8.8-3.9c1.9-0.6,3.7-1.2,5.4-1.7l0,0c0.2-0.1,0.6-0.2,1.1-0.6
		c0.2-0.3,0.3-0.7,0.1-1.1c0.2,0.2,0.4,0.4,0.7,0.5c0.1,0.1,0.2,0.1,0.4,0.1h0.1c0.1,0,0.3,0,0.5,0h0.1h0.4c0.7,0,1.5-0.1,2.3-0.1
		c2.3-0.2,4.3-0.3,6.4-0.3c1,0,1.8,0,2.8,0.1c1.2,0.1,2.2,0.2,3.3,0.3c1.1,0.1,2.1,0.3,3.1,0.4c2.7,0.4,5.2,1.2,7.8,2.3
		c3.9,1.6,7.1,3.2,10,5c0.8,0.5,1.6,1.1,2.4,1.6l0.1,0.1c0.5,0.3,1,0.7,1.4,1.3c0.3,0.3,0.4,0.6,0.5,1.1c0.2,0.7,0,1.3-0.5,1.8
		c-0.2,0.2-0.5,0.4-0.8,0.6c-0.5,0.3-1.1,0.5-1.7,0.6c-1,0.2-1.9,0.4-3.1,0.5c-0.8,0.1-1.7,0.1-2.5,0.2c-0.3,0-0.7,0-1.1,0.1
		c-1.7,0.1-3.5,0.2-5.4,0.2c-0.4,0-1,0-1.4,0c-1.1,0-2.1-0.1-3.2-0.1h-0.2c-1.6-0.1-3.3-0.1-4.9-0.2l-3.1-0.1c-1,0-1.8-0.1-2.8-0.1
		h-0.1c-0.3,0-0.7,0-1.1,0c-0.2,0-0.4,0-0.5,0c-0.3,0-0.5,0.1-0.7,0.4c-0.2,0.2-0.2,0.5-0.2,0.8l0,0c0,0.1,0.1,0.4,0.4,0.7
		c0.2,0.1,0.4,0.3,0.6,0.4c1,0.6,1.9,1.4,3,2.3c2.7,2.5,5,5.6,6.8,9.1c1.6,3,2.8,6.3,3.6,9.8c0.5,2.2,1,4.6,1.3,7.3
		c0.3,2.5,0.5,5,0.5,7.3c0,3.1-0.3,6.3-1,9.3c-0.3,1.5-0.6,2.9-1,4.2c-0.7,2.7-1.8,5.2-3.1,7.6c-2.1,3.9-4.6,7.7-7.3,11.3
		c-1,1.2-1.9,2.3-3.2,3.6c-2.5,2.4-5.5,4.1-9,5.1c-1.6,0.4-3.3,0.6-5.3,0.8c-1.3,0.1-2.8,0.2-4.3,0.2
		C58.2,107.2,58.1,107.2,58,107.2"/>
</g>
</svg>
