<?xml version="1.0" encoding="utf-8"?>
<!-- Generator: Adobe Illustrator 21.0.0, SVG Export Plug-In . SVG Version: 6.00 Build 0)  -->
<svg version="1.1" id="Laag_2" xmlns="http://www.w3.org/2000/svg" xmlns:xlink="http://www.w3.org/1999/xlink" x="0px" y="0px"
	 viewBox="0 0 113.4 117.3" style="enable-background:new 0 0 113.4 117.3;" xml:space="preserve">
<style type="text/css">
	.st0{fill:none;}
	.st1{fill:#D67066;}
</style>
<rect x="-210.3" y="12.1" class="st0" width="506.3" height="112.5"/>
<path class="st1" d="M21,83.2C21,83.2,21,83.2,21,83.2C21,83.2,21,83.2,21,83.2L21,83.2z M21,83.2L21,83.2L21,83.2z M46.5,49.4
	C46.5,49.4,46.4,49.4,46.5,49.4c-0.1,0-0.2-0.1-0.2-0.2c-0.4-0.6-0.8-1.1-1-1.8c-0.2-0.6-0.6-1.2-1-1.7c-0.6-0.8-0.7-0.9-1.5-1.4
	c0,0,0,0,0,0c-0.1-0.1,0-0.2,0.1-0.3c0.4-0.7,1-1.2,1.6-1.8c0.5-0.4,1-0.7,1.6-0.9c0.9-0.4,1.9-0.6,2.9-0.7c2.7-0.5,5.5-0.6,8.2-0.7
	c0,0,0,0,0,0c0.1,0,0.3,0,0.4,0c0,0,0.1,0,0.1,0.1c0,0.1,0,0.1,0,0.1c-0.2,0.1-0.4,0.2-0.6,0.3c-3.7,1.9-6.8,4.5-9.4,7.8
	c-0.2,0.3-0.5,0.6-0.7,0.9C46.7,49.3,46.6,49.4,46.5,49.4C46.5,49.4,46.5,49.4,46.5,49.4 M60.2,113.3c-1.1,0-2.1,0-3.2-0.1
	c-1.7-0.1-3.4-0.3-5.1-0.5c-4.6-0.6-8.9-1.8-13.3-3.3c-1.6-0.5-3.1-1.1-4.6-1.8c-3.5-1.5-6.7-3.5-9.6-5.9c-2-1.6-3.8-3.4-5.4-5.3
	c-3.1-3.6-5.2-7.8-6.6-12.4c-0.7-2.2-1.1-4.5-1.4-6.8c-0.1-1.3-0.2-2.6-0.1-3.8c0.1-4,1-7.9,2.4-11.7c1.5-4,3.7-7.8,6.6-11
	c1.6-1.8,3.3-3.4,5-4.9c2.5-2.1,5.2-3.8,8.2-5.2c0.1,0,0.2-0.1,0.2-0.1c2.5-1,5-1.8,7.7-2.2c0.4-0.1,0.8-0.1,1.2-0.2c0,0,0,0,0.1,0
	c0.1,0,0.2,0,0.3,0c0,0,0,0,0,0c0.1,0.2,0,0.3,0,0.5c-0.3,1-0.6,1.9-0.9,2.9c-0.1,0.4-0.3,0.8-0.3,1.2c-0.1,0.5-0.3,1.1-0.5,1.6
	c0,0,0,0,0,0c-0.1,0.1-0.3,0.1-0.4,0.2c-0.5,0.2-1,0.4-1.5,0.6c-1.3,0.6-2,1.6-2.4,3C36,49.2,36,50.1,36.1,51
	c0.1,0.6,0.2,1.2,0.3,1.9c0.1,1,0.3,2.1,0.4,3c0,0,0,0,0,0c-0.1,0.3-0.3,0.3-0.5,0.4c-1.3,0.5-2.7,0.9-4,1.4c-1.4,0.5-2.8,1-4.2,1.6
	c-0.8,0.4-1.6,0.7-2.4,1.2c-1.4,0.8-2.5,1.7-3.6,2.9c-1.2,1.4-2.1,2.9-2.5,4.7c-0.7,3-1,6.1-0.9,9.2c0.1,1.2,0.3,2.3,0.6,3.4
	c0.2,0.5,0.3,1.1,0.6,1.6c0.2,0.3,0.4,0.6,0.6,0.9c0.1,0.1,0.1,0.1,0.2,0.1c0,0,0.1,0,0.1,0c0-0.1,0-0.2-0.1-0.4
	c-0.4-0.9-0.6-1.9-0.7-3c-0.2-2.3,0-4.6,0.5-6.9c0.3-1.6,0.8-3.2,1.3-4.8c0.6-1.9,1.7-3.4,3.2-4.6c0.6-0.5,1.3-1,2-1.4
	c1.4-0.8,2.9-1.4,4.4-1.9c1.7-0.6,3.3-1.2,5-1.8c1.5-0.6,3.1-1.2,4.5-2c2.1-1.1,4-2.4,5.6-4.1c0.9-0.9,1.7-1.7,2.5-2.7
	c1.2-1.4,2.5-2.6,3.9-3.8c2.7-2.3,5.8-3.9,9.2-5.1c1-0.3,2-0.6,3-0.7c0.7-0.1,1.4-0.2,2.2-0.2c0.5,0,1.1,0,1.6,0.1
	c1.5,0.2,2.9,0.5,4.4,1c2.3,0.8,4.3,2.1,6.1,3.8c3.8,3.7,6.5,8.2,8.2,13.2c0.7,2,1.2,4.1,1.6,6.1c0.3,1.4,0.5,2.9,0.7,4.3
	c0.4,2.8,0.5,5.6,0.4,8.5c-0.2,4.3-1,8.5-2.4,12.6c-0.6,1.6-1.3,3.2-2.1,4.7c-2,3.7-4.2,7.1-6.8,10.4c-0.9,1.1-1.8,2.2-2.8,3.2
	c-2.3,2.3-5,3.8-8.2,4.5c-1.3,0.3-2.6,0.5-3.9,0.6C63,113.2,61.6,113.3,60.2,113.3 M47.1,38.6C47.1,38.6,47,38.6,47.1,38.6
	C47,38.6,47,38.6,47.1,38.6c-0.1-0.3,0.1-0.4,0.2-0.5c2.1-2.2,4.4-4,7-5.5c2.3-1.3,4.6-2.4,7.1-3.3c2.8-1,5.7-1.9,8.6-2.5
	c1.1-0.2,2.3-0.4,3.4-0.5c1.3-0.2,2.6-0.2,3.8-0.3c0.5,0,1-0.1,1.5-0.1c0.6,0,1.3,0,1.9,0.1c1.1,0.1,2.2,0.2,3.2,0.3
	c3.4,0.3,6.7,1,9.9,2.3c3.1,1.3,6.2,2.7,9.1,4.4c0.9,0.5,1.7,1,2.5,1.6c0.5,0.3,0.9,0.7,1.3,1.1c0.1,0.1,0.2,0.3,0.2,0.4
	c0,0,0,0,0,0c-0.1,0.3-0.2,0.4-0.4,0.5c-0.5,0.3-1.1,0.5-1.6,0.7c-0.6,0.1-1.2,0.3-1.7,0.4c-0.6,0.1-1.3,0.2-2,0.2
	c-2.4,0.2-4.9,0.3-7.3,0.3c-1.3,0-2.6,0-3.9-0.1c-2-0.1-4.1-0.2-6.1-0.3c-0.2,0-0.3,0-0.5,0c-3.5-0.1-7.1-0.3-10.6-0.3
	c-0.5,0-1,0-1.5,0c-0.1,0-0.3,0-0.4,0c-0.8,0-1.6,0-2.3-0.1c-0.4,0-0.7-0.1-1.1-0.1c-0.5,0-1,0-1.5,0.1c-0.4,0-0.9,0.1-1.3,0.1
	c-2.6,0-5.3,0-7.9,0c-1.7,0-3.4,0.2-5.1,0.3c-1.4,0.1-2.7,0.3-4.1,0.6C47.4,38.6,47.2,38.6,47.1,38.6C47.1,38.6,47.1,38.6,47.1,38.6
	 M44.9,37.3C44.9,37.3,44.9,37.3,44.9,37.3L44.9,37.3c-0.1,0-0.1-0.1-0.1-0.1c0-0.1,0.1-0.2,0.1-0.3c0.3-0.9,0.7-1.9,1-2.8
	c0.3-0.8,0.7-1.5,1.3-2.2c0.7-0.8,1.5-1.4,2.4-1.9c1.5-0.9,3.1-1.7,4.7-2.3c1.3-0.5,2.6-1,3.8-1.6c1.9-0.8,3.7-1.6,5.6-2.5
	c0.5-0.2,1-0.5,1.6-0.6c0.3-0.1,0.6-0.1,0.9-0.1c0,0,0,0,0,0c0.4,0,0.7,0.2,1,0.5c0.3,0.3,0.5,0.7,0.7,1.1c0,0,0,0,0,0.1
	c-0.2,0.2-0.3,0.2-0.5,0.3c-1.8,0.5-3.5,1-5.2,1.6c-2.9,1-5.8,2.2-8.5,3.8c-3.1,1.8-5.9,4-8.3,6.7C45.2,37.1,45.1,37.2,44.9,37.3
	C45,37.3,45,37.3,44.9,37.3 M65.9,21.1c-0.4,0-0.7,0-1,0.1c-0.6,0.1-1.2,0.4-1.8,0.6c-3,1.4-6,2.6-9,3.8c-1.6,0.6-3.1,1.4-4.6,2.2
	c-0.5,0.3-1,0.6-1.5,0.9c-1.9,1.3-3.3,3-4,5.2c-0.1,0.3-0.2,0.5-0.2,0.8c-0.1,0.2-0.1,0.3-0.2,0.5c0,0,0,0,0,0
	c-0.1,0-0.2,0.1-0.3,0.1c-1.7,0-3.3,0.3-4.9,0.8c-2.5,0.7-4.9,1.6-7.2,2.7c-2.7,1.3-5.3,2.9-7.6,4.8c-2,1.7-3.9,3.5-5.6,5.4
	c-2.7,3-4.8,6.4-6.4,10.1c-1.6,3.7-2.6,7.6-3.1,11.7c-0.2,2-0.2,4.1-0.1,6.1c0.2,2.7,0.7,5.3,1.5,7.8c1.3,4.2,3.1,8,5.7,11.5
	c1.7,2.2,3.6,4.2,5.6,6.1c3.8,3.4,8.1,6.2,12.9,8.1c3.1,1.2,6.3,2.3,9.5,3.2c2.2,0.6,4.4,1.1,6.7,1.4c1.1,0.2,2.2,0.3,3.3,0.4
	c1.9,0.2,3.9,0.3,5.8,0.3c0.1,0,0.2,0,0.4,0c1.4,0,2.8,0,4.2-0.2c1.7-0.2,3.5-0.4,5.2-0.8c3.4-0.9,6.4-2.5,8.9-5
	c1.1-1.1,2.1-2.2,3.1-3.5c2.6-3.4,5-7,7-10.8c1.3-2.4,2.3-4.8,3-7.4c0.4-1.3,0.7-2.7,1-4c0.6-3,0.9-6,0.9-9c0-2.3-0.2-4.7-0.5-7
	c-0.3-2.4-0.7-4.7-1.3-7c-0.8-3.3-1.9-6.4-3.5-9.4c-1.7-3.3-3.9-6.2-6.6-8.8c-0.9-0.9-1.9-1.7-2.9-2.3c-0.2-0.1-0.3-0.2-0.5-0.3
	c0,0,0-0.1,0-0.1c0,0,0-0.1,0.1-0.1c0.2,0,0.3,0,0.5,0c0.4,0,0.7,0,1.1,0c1.2,0,2.5,0.1,3.7,0.2c2.1,0.1,4.3,0.2,6.4,0.3
	c1.1,0,2.2,0.1,3.3,0.1c0.4,0,0.9,0,1.3,0c1.7,0,3.4,0,5.2-0.2c1.1-0.1,2.3-0.1,3.4-0.2c1-0.1,2.1-0.3,3.1-0.6
	c0.6-0.2,1.3-0.4,1.8-0.8c0.3-0.2,0.7-0.4,0.9-0.7c0.7-0.8,1-1.6,0.7-2.6c-0.1-0.5-0.4-0.9-0.7-1.3c-0.4-0.5-0.9-1-1.5-1.3
	c-0.8-0.5-1.6-1.1-2.4-1.6c-3-1.9-6.2-3.4-9.5-4.7c-2.5-1-5-1.8-7.7-2.2c-1-0.2-1.9-0.3-2.9-0.4c-1-0.1-2.1-0.2-3.1-0.3
	c-0.9-0.1-1.7-0.1-2.6-0.1c-2,0-4,0.1-6.1,0.3c-0.8,0.1-1.6,0.1-2.5,0.1c0,0,0,0-0.1,0c-0.2,0-0.4,0-0.5-0.1c0,0,0,0,0,0
	c-0.4-0.2-0.6-0.5-0.7-0.7c-0.2-0.4-0.5-0.8-0.8-1.1c-0.5-0.5-1-0.7-1.6-0.8C66.3,21.2,66.1,21.1,65.9,21.1 M41.8,45.9
	C41.8,45.9,41.8,45.9,41.8,45.9c0.3,0.2,0.5,0.3,0.6,0.4c0.1,0.1,0.2,0.3,0.4,0.5c0.3,0.4,0.6,0.9,0.7,1.3c0.3,0.8,0.7,1.5,1.3,2.2
	c0.2,0.3,0.5,0.5,0.6,0.5l0,0c0.1,0.1,0.2,0.1,0.2,0.1c0,0-0.1,0.1-0.1,0.1c-1.5,1.5-3.2,2.7-5.2,3.8c-0.5,0.3-1.1,0.6-1.7,0.8
	c0,0,0,0,0-0.1l-0.1-0.9c-0.1-0.7-0.2-1.4-0.3-2.2c0-0.2,0-0.3-0.1-0.5c-0.1-0.5-0.1-0.9-0.2-1.3c-0.1-0.8,0-1.5,0.1-2.1
	c0.2-0.9,0.6-1.4,1.4-1.7c0.3-0.1,0.6-0.2,0.9-0.4c0.2-0.1,0.4-0.2,0.6-0.2c0.2-0.1,0.3-0.1,0.4-0.2c0,0,0.1,0,0.1,0
	C41.6,46,41.7,46,41.8,45.9 M74.5,39.4c0.5,0,1,0,1.5,0c-0.1,0.2-0.1,0.4-0.1,0.6C75.4,39.8,74.9,39.6,74.5,39.4 M60.9,39.4
	c-0.5,0.2-1,0.4-1.5,0.6c0-0.2,0-0.4-0.1-0.6C59.9,39.4,60.4,39.4,60.9,39.4 M44.2,39.2L44.2,39.2L44.2,39.2z M44.3,39.1L44.3,39.1
	c0.2,0.1,0.5,0.1,0.7,0.1c0.1,0,0.2,0,0.3,0c0,0.1,0.1,0.3,0.2,0.4c0,0,0,0-0.1,0c-0.6,0.2-1.1,0.5-1.5,0.8c0-0.1,0.1-0.2,0.1-0.3
	l0.2-0.8l0,0C44.2,39.2,44.2,39.1,44.3,39.1"/>
<path class="st1" d="M78.7,25.3c-0.5,0-1.1,0-1.6,0.1c-0.4,0-0.7,0-1.1,0.1c-0.9,0.1-1.9,0.1-2.8,0.2c-1,0.1-2.3,0.3-3.5,0.5
	c-2.8,0.6-5.6,1.4-8.7,2.5c-2.7,1-5.1,2.1-7.2,3.3c-2.8,1.6-5.2,3.5-7.3,5.7c0,0,0,0,0,0c-0.2,0.1-0.5,0.4-0.5,1
	c0,0.3,0.1,0.7,0.4,0.9c0.1,0,0.3,0.2,0.6,0.2c0,0,0.1,0,0.1,0c0.2,0,0.4,0,0.6-0.1c1.3-0.3,2.6-0.5,4-0.6c1.6-0.2,3.3-0.3,5-0.3
	c1.6,0,3.1,0,4.7,0c1.1,0,2.2,0,3.2,0c0.5,0,0.9,0,1.4-0.1c0.5-0.1,1-0.1,1.4-0.1c0.4,0,0.7,0,1,0.1c0.7,0.1,1.5,0.1,2.4,0.1
	c0.1,0,0.3,0,0.4,0c0.5,0,1,0,1.4,0c2.9,0,5.8,0.1,8.6,0.2c0.6,0,1.3,0,1.9,0.1c0.1,0,0.2,0,0.3,0l0.2,0c0.6,0,1.3,0.1,1.9,0.1
	c1.4,0.1,2.8,0.1,4.2,0.2c1.3,0,2.7,0.1,4,0.1c2.5,0,5-0.1,7.4-0.3c0.7,0,1.3-0.1,2-0.2c0.5-0.1,1.1-0.2,1.8-0.4
	c0.7-0.2,1.4-0.4,1.9-0.8c0.2-0.1,0.6-0.4,0.8-1.1c0-0.2,0-0.5-0.1-0.7c0,0,0-0.1,0-0.1c-0.1-0.1-0.2-0.3-0.3-0.5
	c-0.5-0.6-1-1-1.5-1.3l-0.1,0c-0.8-0.5-1.6-1.1-2.5-1.6c-2.7-1.6-5.8-3.1-9.3-4.5c-3.1-1.2-6.4-2-10.1-2.4c-0.8-0.1-1.7-0.1-2.5-0.2
	c-0.3,0-0.5,0-0.8-0.1C80.1,25.3,79.4,25.3,78.7,25.3 M57,39.2c-3.1,0-5.9,0.3-8.4,0.7c-1.2,0.2-2.1,0.5-3,0.8
	c-0.8,0.3-1.4,0.6-1.9,1.1C43,42.4,42.5,43,42,43.7c-0.3,0.5-0.2,1-0.2,1.2c0.1,0.2,0.2,0.4,0.4,0.5c0.7,0.4,0.7,0.4,1.2,1.1
	c0.4,0.5,0.6,1,0.8,1.5c0.3,0.7,0.7,1.3,1.2,2c0.1,0.2,0.3,0.3,0.4,0.3l0,0c0.2,0.1,0.4,0.2,0.6,0.2c0,0,0,0,0.1,0
	c0.6,0,0.8-0.4,1-0.5l0,0c0.3-0.3,0.5-0.6,0.8-0.9c2.5-3.1,5.5-5.7,9.1-7.5c0.2-0.1,0.5-0.3,0.7-0.4c0.4-0.2,0.4-0.6,0.5-0.7l0,0
	c0-0.3,0-0.5-0.2-0.8c-0.2-0.2-0.4-0.4-0.7-0.4l-0.1,0C57.4,39.2,57.2,39.2,57,39.2L57,39.2z M42.1,37.5c-0.1,0-0.1,0-0.2,0
	c-0.2,0-0.5,0.1-0.7,0.1c-0.2,0-0.3,0-0.5,0.1c-2.9,0.4-5.6,1.3-7.9,2.2c-0.1,0-0.2,0.1-0.3,0.1c-3.2,1.5-5.9,3.3-8.4,5.4
	c-1.8,1.6-3.6,3.3-5.1,5c-2.9,3.3-5.2,7.1-6.7,11.3c-1.5,4.2-2.4,8.2-2.5,12c0,1.4,0,2.7,0.1,4c0.2,2.3,0.7,4.7,1.4,6.9
	c1.5,4.8,3.8,9.1,6.8,12.7c1.6,1.9,3.4,3.7,5.5,5.4c3.1,2.5,6.4,4.6,9.9,6.1c1.4,0.6,2.9,1.2,4.7,1.8c5.1,1.8,9.4,2.9,13.5,3.4
	c1.4,0.2,3.3,0.4,5.2,0.5c1.3,0.1,2.3,0.1,3.3,0.1c1.6,0,3-0.1,4.3-0.2c1.6-0.2,2.8-0.4,4-0.7c3.4-0.8,6.3-2.4,8.6-4.8
	c1.1-1.1,2.1-2.2,2.9-3.3c2.6-3.3,4.9-6.9,6.8-10.6c0.8-1.6,1.6-3.2,2.1-4.9c1.4-4.1,2.2-8.4,2.4-12.9c0.1-2.7,0-5.5-0.4-8.6
	c-0.2-1.3-0.4-2.5-0.6-3.7l-0.1-0.6c-0.4-2.2-0.9-4.3-1.6-6.3c-1.8-5.3-4.7-9.9-8.5-13.6c-1.8-1.8-4-3.2-6.4-4
	c-1.5-0.5-3.1-0.9-4.6-1.1c-0.6-0.1-1.2-0.1-1.7-0.1c-0.8,0-1.5,0.1-2.3,0.2c-1.1,0.2-2.2,0.4-3.2,0.8c-3.7,1.3-6.7,3-9.5,5.3
	c-1.4,1.2-2.7,2.5-4,3.9c-0.7,0.8-1.5,1.6-2.4,2.6c-1.5,1.5-3.4,2.9-5.4,3.9c-1.3,0.7-2.8,1.3-4.4,1.9c-0.8,0.3-1.7,0.6-2.5,0.9
	c-0.8,0.3-1.7,0.6-2.5,0.9c-1.3,0.5-2.9,1.1-4.6,2c-0.8,0.5-1.5,0.9-2.2,1.5c-1.7,1.4-2.9,3.1-3.5,5.1c-0.4,1.4-0.8,2.8-1.2,4.3
	c0.1-1.3,0.4-2.7,0.7-4c0.4-1.6,1.1-3,2.2-4.3c1-1.1,2.1-2,3.4-2.7c0.7-0.4,1.4-0.8,2.3-1.1c1.3-0.6,2.6-1,4.1-1.5
	c1.3-0.5,2.7-0.9,4-1.4l0,0c0.2-0.1,0.7-0.3,1-0.9c0.1-0.2,0.1-0.3,0.1-0.5l-0.1-0.8c-0.1-0.7-0.2-1.5-0.3-2.2c0-0.1,0-0.3-0.1-0.4
	c-0.1-0.5-0.1-0.9-0.2-1.4c-0.1-1-0.1-1.7,0.1-2.4c0.3-1.2,0.9-1.9,1.9-2.3c0.3-0.1,0.6-0.3,0.9-0.4c0.2-0.1,0.4-0.2,0.6-0.2
	c0.1-0.1,0.3-0.1,0.4-0.2c0,0,0.1,0,0.1-0.1c0.2-0.1,0.4-0.3,0.5-0.5c0.2-0.5,0.5-1.1,0.6-1.8c0.1-0.3,0.2-0.7,0.3-1l0-0.1
	c0.2-0.7,0.4-1.4,0.7-2.2l0.2-0.7l0,0c0.1-0.2,0.2-0.6,0-1.1c-0.1-0.3-0.4-0.5-0.8-0.6l0,0C42.3,37.5,42.2,37.5,42.1,37.5
	 M59.5,115.1c-1.7,0-3.5-0.1-5.7-0.3c-1.1-0.1-2.2-0.2-3.3-0.4c-2.1-0.3-4.2-0.8-6.5-1.4c-3-0.8-6.1-1.9-9.4-3.2
	c-4.5-1.8-8.8-4.4-12.6-7.9c-2.1-1.9-3.9-3.9-5.5-6c-2.5-3.3-4.3-6.9-5.6-11.2c-0.8-2.6-1.3-5.1-1.5-7.6c-0.2-2-0.1-4,0.1-5.9
	c0.4-3.8,1.4-7.7,3-11.4c1.5-3.6,3.6-6.9,6.2-9.8c1.7-1.9,3.5-3.7,5.5-5.3c2.3-1.9,4.7-3.5,7.4-4.7c2.5-1.1,4.8-2,7.1-2.6
	c1.8-0.5,3.2-0.7,4.6-0.7c0.2,0,0.4-0.1,0.5-0.1c0,0,0,0,0.1,0c0.3-0.1,0.5-0.3,0.6-0.6l0.1-0.1c0.1-0.1,0.1-0.3,0.2-0.4
	c0.1-0.3,0.2-0.6,0.3-0.8c0.5-1.9,1.7-3.4,3.6-4.7c0.4-0.3,0.8-0.5,1.4-0.9c1.6-0.9,3.1-1.6,4.5-2.2c1.6-0.7,3.3-1.4,5-2.1
	c-0.6,0.3-1.2,0.5-1.8,0.8c-0.7,0.3-1.4,0.6-2.2,0.9c-0.5,0.2-1.1,0.5-1.7,0.7c-1.6,0.7-3.2,1.5-4.8,2.4c-0.9,0.5-1.8,1.3-2.6,2.1
	c-0.7,0.8-1.2,1.6-1.5,2.5c-0.2,0.5-0.4,1-0.5,1.6c-0.1,0.4-0.3,0.8-0.4,1.2c0,0.1-0.1,0.2-0.1,0.3l0,0.1c-0.1,0.5,0.1,1,0.6,1.2
	l0.1,0c0.1,0,0.2,0.1,0.3,0.1c0.3,0,0.5-0.1,0.7-0.3l0.1-0.1c0.1-0.1,0.2-0.2,0.3-0.3c2.2-2.5,4.8-4.6,8-6.5
	c2.4-1.4,5.1-2.6,8.3-3.7c1.8-0.6,3.5-1.1,5.1-1.6l0,0c0.2-0.1,0.6-0.2,1-0.6c0.2-0.3,0.3-0.7,0.1-1c0.2,0.2,0.4,0.4,0.7,0.5
	c0.1,0.1,0.2,0.1,0.4,0.1c0,0,0.1,0,0.1,0c0.1,0,0.3,0,0.5,0c0,0,0.1,0,0.1,0l0.4,0c0.7,0,1.4-0.1,2.2-0.1c2.2-0.2,4.1-0.3,6-0.3
	c0.9,0,1.7,0,2.6,0.1c1.1,0.1,2.1,0.2,3.1,0.3c1,0.1,2,0.3,2.9,0.4c2.5,0.4,4.9,1.1,7.4,2.2c3.7,1.5,6.7,3,9.4,4.7
	c0.8,0.5,1.5,1,2.3,1.5l0.1,0.1c0.5,0.3,0.9,0.7,1.3,1.2c0.3,0.3,0.4,0.6,0.5,1c0.2,0.7,0,1.2-0.5,1.7c-0.2,0.2-0.5,0.4-0.8,0.6
	c-0.5,0.3-1,0.5-1.6,0.6c-0.9,0.2-1.8,0.4-2.9,0.5c-0.8,0.1-1.6,0.1-2.4,0.2c-0.3,0-0.7,0-1,0.1c-1.6,0.1-3.3,0.2-5.1,0.2
	c-0.4,0-0.9,0-1.3,0c-1,0-2-0.1-3-0.1l-0.2,0c-1.5-0.1-3.1-0.1-4.6-0.2l-2.9-0.1c-0.9,0-1.7-0.1-2.6-0.1l-0.1,0c-0.3,0-0.7,0-1,0
	c-0.2,0-0.4,0-0.5,0c-0.3,0-0.5,0.1-0.7,0.4c-0.2,0.2-0.2,0.5-0.2,0.8l0,0c0,0.1,0.1,0.4,0.4,0.7c0.2,0.1,0.4,0.3,0.6,0.4
	c0.9,0.6,1.8,1.3,2.8,2.2c2.5,2.4,4.7,5.3,6.4,8.6c1.5,2.8,2.6,5.9,3.4,9.2c0.5,2.1,0.9,4.3,1.2,6.9c0.3,2.4,0.5,4.7,0.5,6.9
	c0,2.9-0.3,5.9-0.9,8.8c-0.3,1.4-0.6,2.7-0.9,4c-0.7,2.5-1.7,4.9-2.9,7.2c-2,3.7-4.3,7.3-6.9,10.7c-0.9,1.1-1.8,2.2-3,3.4
	c-2.4,2.3-5.2,3.9-8.5,4.8c-1.5,0.4-3.1,0.6-5,0.8c-1.2,0.1-2.6,0.2-4.1,0.2C59.7,115.1,59.6,115.1,59.5,115.1"/>
</svg>
