<?xml version="1.0" encoding="utf-8"?>
<!-- Generator: Adobe Illustrator 21.0.0, SVG Export Plug-In . SVG Version: 6.00 Build 0)  -->
<svg version="1.1" xmlns="http://www.w3.org/2000/svg" xmlns:xlink="http://www.w3.org/1999/xlink" x="0px" y="0px"
	 viewBox="0 0 113.4 110.7" style="enable-background:new 0 0 113.4 110.7;" xml:space="preserve">
<style type="text/css">
	.st0{fill:#E9547E;}
</style>
<g id="Laag_2">
</g>
<g id="Laag_3">
	<path class="st0" d="M59.4,106.9c-0.4,0-0.8,0-1.3-0.1c-2-0.5-3.7-1.6-5.1-3.1c0,0,0-0.1-0.1-0.3c1.4-0.2,2.7-0.4,4.1-1
		c1.3-0.6,2.3-1.4,3.4-2.3c0.3,0.2,0.6,0.5,0.9,0.7c1.3,1,2.6,1.6,4.2,2c0.2,0,0.3,0.1,0.5,0.1s0.4,0.2,0.5,0.4
		c0.1,0.2-0.1,0.4-0.3,0.5c-0.4,0.3-0.9,0.7-1.4,1c-1.4,0.9-2.7,1.6-4.4,2C60.2,106.9,59.8,106.9,59.4,106.9 M34.5,95.1
		c-0.1,0-0.3,0-0.4-0.1c-1.8-0.8-3.5-1.8-4.7-3.6c-1-1.5-1.3-3.1-1-4.9c0-0.2,0.1-0.5,0.2-0.7c0.1-0.6,0.3-0.7,0.6-0.7
		c0.1,0,0.2,0,0.3,0c1,0.2,1.9,0.4,3,0.5c0.4,2.4,1.6,4.5,3.3,6.2c-0.2,0.6-0.5,1.1-0.6,1.6c-0.1,0.5-0.2,1-0.3,1.6
		c-0.1,0-0.1,0-0.2,0C34.7,95.1,34.6,95.1,34.5,95.1 M44.8,44c0.1-0.3,0-0.7,0-1c-0.2-2,0.2-4,1.1-5.8c0.2-0.4,0.5-0.9,0.8-1.3
		c0.4-0.6,1-0.9,1.6-1.1c1.2-0.3,2.2-0.7,3.4-0.9c1.5-0.3,3-0.5,4.5-0.7c0.3,0,0.5,0,0.8,0c1.1,0,2.1,0.3,3.1,0.9
		c0.4,0.2,0.7,0.6,1,0.9c0.4,0.4,0.2,0.9-0.3,1.1c-0.4,0.2-0.8,0.3-1.2,0.5c-0.9,0.4-1.7,0.9-2.4,1.6c-0.2,0.2-0.4,0.4-0.3,0.7
		C56.9,39,56.9,39,57,39c0.1,0,0.2-0.1,0.3-0.1c1-0.4,2-0.6,3.1-0.9c0.7-0.1,1.4-0.4,2.1-0.5s1.5-0.2,2.2-0.2c0.3,0,0.6,0,0.9,0
		c1.3,0.1,2.4,0.1,3.7,0.2l0,0c0.1,0,0.2-0.1,0.4-0.1c-0.6-0.8-1.5-1-2.1-1.2c-0.8-0.2-1.6-0.4-2.3-0.6c0-0.1,0-0.2,0.1-0.2
		c0.8-0.5,1.6-1.1,2.4-1.3c0.7-0.2,1.5-0.3,2.1-0.3c1.4,0,2.7,0.4,3.9,1.2c0.4,0.3,0.9,0.6,1.3,0.9c1.2,0.8,2.1,1.8,2.8,3.1
		c0.2,0.3,0.4,0.7,0.6,1c0.4-0.2,0.5-0.6,0.5-0.9c0.1-0.5,0.1-0.9,0.2-1.4c0.1-0.8,0.4-1.2,1.2-1.4c0.6-0.1,1.1-0.1,1.6-0.1
		c0.7,0,1.5,0.1,2.1,0.3c0.7,0.2,1.2,0.6,1.6,1.1c0.7,0.8,1.3,1.6,1.6,2.6c0.2,0.6,0.3,1.3,0.4,1.9c0.1,0.8,0.2,1.6-0.2,2.3
		c0.3,0.9,0.6,1.6,0.9,2.4l0,0h0.1h0.1c0.3-0.3,0.6-0.4,1-0.4c0.3,0,0.7,0.1,1,0.3c0.5,0.3,1,0.7,1.4,1.1c1.9,2.1,3.3,4.6,3.9,7.4
		c0.1,0.6,0.1,1.3-0.2,1.8c-0.2,0.4-0.4,0.6-0.8,0.6c-0.1,0-0.3,0-0.4-0.1c-0.5-0.2-1-0.5-1.4-0.9c-1-1.1-1.8-2.1-2.8-3.2
		c-1.3-1.4-2.5-2.6-3.9-3.8c-0.2-0.2-0.5-0.4-0.9-0.7c0.1,0.3,0.1,0.5,0.1,0.6c0.5,0.7,0.9,1.4,1.4,2c1.1,1.6,2.1,3.2,3.1,4.9
		c0.7,1.3,1.3,2.5,1.6,3.9c1,3.1,0.6,6.1-1,9c-0.5,1-1.4,1.6-2.2,2.4c-0.2,0.1-0.4,0.2-0.6,0.3c-0.2,0.1-0.3,0.1-0.5,0.2
		c-0.3,0.2-0.3,0.4-0.3,0.7c0.1,0.3,0.2,0.4,0.5,0.5c0.2,0,0.4,0.1,0.6,0.1c0.4,0,0.8-0.1,1.2-0.3c0.5-0.2,0.9-0.5,1.3-0.9
		c0.6-0.6,1.3-0.8,2-1.2c0.2,3.3-2,9-4.2,10.8c-0.2-0.3-0.1-0.6-0.1-0.9c0-0.4,0-0.7-0.1-1.1c0-0.3-0.1-0.6-0.2-0.9
		c-0.1-0.3-0.1-0.6-0.2-0.9c-0.1-0.3-0.2-0.7-0.3-1c-0.1-0.3-0.2-0.6-0.3-0.9c-0.1-0.3-0.2-0.7-0.4-1c-0.1-0.3-0.3-0.6-0.4-0.9
		c-0.1-0.3-0.3-0.6-0.4-0.8c-0.2-0.3-0.4-0.6-0.6-0.9c-0.2-0.2-0.4-0.5-0.6-0.7c-0.2,0.5-0.2,0.5-0.1,0.9c0.3,1.3,0.6,2.6,0.9,3.9
		c0.5,1.9,0.3,3.9-0.3,5.8c-0.3,1.1-0.9,1.9-1.6,2.8c-0.5,0.6-1.1,1-1.7,1.2c-0.9,0.2-1.7,0.5-2.6,0.6c-0.2,0-0.4,0.1-0.7,0.2
		c0.1,0.2,0.2,0.4,0.3,0.5c0.4,0.3,0.9,0.5,1.4,0.6c0.2,0.1,0.5,0.1,0.8,0.2c0,0.2,0,0.3-0.1,0.4c-1,2-2.5,3.4-4.5,4.4
		c-0.1,0.1-0.3,0-0.5,0.1c0-1.7-0.1-3.5-0.7-5.1c-0.1-0.3-0.2-0.5-0.3-0.8c0,0-0.1-0.1-0.2-0.1c-0.2,0-0.2,0.2-0.2,0.3
		c-0.1,2-0.3,4.1-0.6,6c-0.2,1.6-0.8,3-1.6,4.3c-0.9,1.3-2.1,1.7-3.6,1.8c-0.2,0-0.3,0-0.5,0c-0.8,0-1.5-0.1-2.2-0.3
		c-1-0.2-1.8-0.6-2.5-1.3c-0.6-0.6-1.1-1.3-1.6-1.8c-0.3-0.3-0.3-0.7-0.2-1.1c0.2-0.7,0.3-1.5,0.4-2.1c0-0.2,0-0.4-0.1-0.7
		c-0.1,0.1-0.3,0.2-0.3,0.3c-0.1,0.2-0.3,0.4-0.4,0.6c-0.9,1.5-1.9,2.8-2.9,4.3c-1.2,1.7-3.4,2.8-5.6,2.8c-1,0-1.8-0.2-2.7-0.6
		c-1.1-0.5-2-1.1-2.9-1.9c-1.4-1.5-2.5-3-3.4-4.8c-0.1-0.2-0.2-0.5-0.4-0.7c-0.2,0.1-0.2,0.3-0.2,0.5c0,1.1,0.1,2.1,0.5,3.1
		c0.6,1.6,1.2,3,2.2,4.4c-0.4,0.3-0.8,0.3-1.2,0.4c-0.2,0-0.3,0-0.5,0c-1.1,0-2-0.1-3.1-0.5c-2.3-0.8-3.9-2.7-4.2-5.3
		c0-0.4,0.1-0.8,0.2-1.1c0.1-0.3,0.2-0.4,0.5-0.4c0.1,0,0.2,0,0.4,0.1c0.3,0.1,0.5,0.2,0.8,0.4c0.8,0.4,1.6,0.7,2.4,0.9
		c0.3,0.1,0.5,0,1,0.1c-0.5-0.5-1-0.7-1.4-1s-0.8-0.7-1.2-1c-0.4-0.4-0.7-0.8-1.1-1.2c-0.4-0.4-0.8-0.8-1.1-1.3
		c-0.3-0.4-0.6-0.9-0.9-1.3c-0.3-0.5-0.5-0.9-0.8-1.4c-0.3-0.5-0.5-0.9-0.7-1.4c0.1-0.1,0.2-0.2,0.3-0.2s0.2,0,0.2,0
		c0.7,0.2,1.4,0.2,2.1,0.2s1.6-0.1,2.3-0.2c0.7-0.1,1.4-0.4,2-0.7c0.1-0.1,0.2-0.2,0.5-0.4c-0.2-0.1-0.3-0.1-0.5-0.1h-0.1
		c-0.1,0-0.2,0-0.3,0c-0.3,0-0.6,0-0.9,0c-2.9,0-5.7-0.6-8.3-1.7c-0.3-0.1-0.5-0.2-0.8-0.4c-1.8-1.3-3.6-2.7-4.9-4.6
		c-0.4-0.5-0.7-1.1-1.1-1.6c-0.1-0.2-0.2-0.4-0.4-0.5c0,0.2,0,0.4,0,0.7c0.4,1.5,1,2.8,1.7,4.1c0.2,0.3,0.3,0.5,0.5,0.8
		c-0.1,0.1-0.2,0.1-0.2,0.1c-0.1,0-0.2,0-0.3-0.1c-1.6-0.8-2.8-1.9-3.7-3.4c-1.1-1.8-1.5-3.8-1.6-5.8c0-0.9,0.2-1.6,1-2.2
		c0.3,0.1,0.6,0.2,1,0.4c0.1-0.5,0-1,0-1.5c0-0.5,0-0.9,0-1.4c0,0,0-0.1-0.1-0.2c-1.3-1.3-1.6-2.8-1.7-4.5c0-1.5,0.3-2.9,1-4.2
		c0.2-0.4,0.4-0.9,0.7-1.3c0.8-0.9,0.9-1.9,1-3c0-0.6,0.1-1.2,0.2-1.7c-1.1-1.2-1.5-2.6-1.4-4.2c0.1-1.6,0.7-3.2,1.7-4.6
		c0.3-0.5,0.7-0.9,1-1.3c0,0,0.1,0,0.2-0.1c-0.1,0.4-0.1,0.8-0.2,1.2c-0.3,1.3-0.2,2.6,0.3,3.9c0.4,1.1,0.7,2.1,1,3.1
		c0.1,0.2,0.2,0.4,0.3,0.6c0.3,0,0.2-0.2,0.2-0.3c0-0.8,0-1.6,0.1-2.4c0-1.8,0.6-3.5,1.5-5.1c0.4-0.9,1.1-1.6,1.7-2.1
		c1.3-1.2,2.8-1.8,4.6-2.5c-0.2,1.6-0.2,2.9,0.5,4.3l0,0c0.3,0,0.3-0.2,0.4-0.3c0.4-1.1,0.8-2,1.2-3.1c0.4-0.8,0.8-1.6,1.3-2.2
		c0.2-0.4,0.5-0.7,0.7-1l0,0c0.6,0,1,0.3,1.4,0.6c0.8,0.7,1.4,1.6,1.9,2.4c0.2,0.3,0.2,0.7,0.4,1.1c0.3,0.8,0.5,1.6,0.8,2.3
		C44.4,43.7,44.5,43.9,44.8,44 M67.9,31.8c0.2-0.2,0.2-0.3,0.3-0.4c1.2-0.9,2.5-1.6,3.9-2s2.7-0.9,4-1.3c0.7-0.2,1.5-0.5,2.1-0.9
		c1.3-0.6,2.1-1.6,2.8-2.8c0.1-0.2,0.2-0.5,0.4-0.7c0.7,2.3-1.6,9.4-4,11.8c-1-1.6-2.3-2.8-4.1-3.4c-1.2-0.4-2.3-0.6-3.5-0.6
		C69.3,31.6,68.6,31.7,67.9,31.8 M72.1,27.3c0.7-1,1.3-1.7,1.7-2.5c0.5-0.9,0.9-1.7,1.3-2.7c0.5,1.5,0.6,3.1,0.2,4.3
		c-0.5,0.2-1,0.3-1.6,0.5C73.3,26.9,72.7,27.1,72.1,27.3 M44.8,17.1c0,0.3,0,0.5-0.1,0.7c-0.5,1.7-0.9,3.5-1,5.3
		c-0.1,1.7,0,3.4,0.4,5.1c0,0.1,0,0.3,0.1,0.4v0.1c-0.6-0.5-1.6-1.7-2.9-3.7C41.4,24,43.9,18.7,44.8,17.1 M39.2,34.3
		c-0.1-0.1-0.3-0.3-0.4-0.5c-0.6-1-1.3-1.8-2-2.6c-0.8-0.8-1.6-1.6-2.2-2.4c-1.5-1.6-2.5-3.5-3.1-5.6c-0.3-1.3-0.4-2.5-0.2-3.8
		c0.3-1.8,0.8-3.6,1.4-5.2c0-0.1,0.1-0.2,0.3-0.6c0.3,1.6,0.7,3.1,1.1,4.6c0.8,2.4,2,4.7,3.6,6.7c1.2,1.5,2.2,3,3.4,4.6
		c1.1,1.5,1.8,3,2.3,4.8c-0.1,0.1-0.2,0.1-0.3,0.1c-0.1,0-0.3-0.1-0.4-0.2c-0.5-0.2-1.1-0.4-1.6-0.4c-0.3,0-0.6,0-0.9,0.1
		C40,34,39.6,34.1,39.2,34.3 M53.2,14.4c0.2-1.9,0.5-3.8,0.7-5.6c0.1,0,0.2,0,0.2,0.1c0.2,0.6,0.4,1.3,0.6,1.8
		c0.1,0.2,0.1,0.5,0,0.7C54.2,12.4,53.8,13.5,53.2,14.4C53.4,14.4,53.3,14.4,53.2,14.4 M47,32.8c0-0.2-0.1-0.3-0.1-0.5
		c0.1-1.1,0.5-2.1,1-3.1c1-1.7,1.9-3.6,2.9-5.3c1-1.7,2-3.4,3-5.1c2-3.7,3.7-7.6,4.7-11.7c0.1-0.2,0.1-0.5,0.2-0.7
		c0.1,0,0.1,0,0.2,0c0.1,0.6,0.2,1.1,0.3,1.6c0.7,3.5,1.6,6.9,2.4,10.3c0.4,1.6,0.9,3.2,1.3,4.8c0.5,1.9,0.7,4,0.4,6
		c-0.2,1.3-0.7,2.5-1.4,3.6c-0.2-0.1-0.4-0.2-0.5-0.3c-1.5-0.9-3-1.4-4.8-1.4c0,0,0,0-0.1,0c-2,0-4.1,0.4-6.1,0.8
		c-1.1,0.2-2.1,0.5-3.1,1C47.3,32.7,47.1,32.7,47,32.8 M58.6,0.4c-0.1,0.2-0.2,0.4-0.3,0.6c-0.5,1.5-1.1,2.8-1.6,4.3
		c-0.3,1-0.6,1.9-0.9,2.9c-0.1,0.2,0,0.4-0.4,0.5c-0.2-0.4-0.3-0.8-0.5-1.3c-0.2-0.4-0.3-0.9-0.5-1.3c-0.1-0.4-0.3-0.8-0.4-1.2
		C54,4.5,53.8,4,53.8,3.7c-0.1-0.4-0.2-0.9-0.6-1.3c0,0.2,0,0.3-0.1,0.4c-0.2,1-0.3,1.9-0.4,2.8c-0.2,1.7-0.5,3.5-0.7,5.2
		c-0.3,2.4-0.7,4.9-1,7.3c-0.1,0.6-0.3,1.2-0.6,1.7c-1.4,2.3-2.7,4.7-4,7c-0.1,0.1-0.1,0.2-0.3,0.4C46,26.8,46,26.4,45.9,26
		c-0.2-2.9-0.1-5.8,0.5-8.7c0.4-1.8,0.9-3.6,1.3-5.4c0-0.2,0.2-0.4,0-0.7c-0.3,0.2-0.5,0.4-0.8,0.6c-0.4,0.4-0.8,0.8-1.2,1.2
		c-1.6,1.8-2.9,3.9-4,6c-0.6,1.2-1.2,2.4-1.7,3.6c-0.1,0.2-0.2,0.4-0.4,0.7c-0.2-0.3-0.4-0.6-0.6-0.8c-1.6-2.2-2.6-4.9-3.2-7.6
		c-0.5-2.2-0.7-4.6-0.7-6.9c0-0.2,0.2-0.5-0.2-0.7c-0.2,0.3-0.5,0.5-0.7,0.8c-1.2,1.6-2.3,3.3-3.2,5s-1.6,3.6-2,5.5
		c-0.4,2-0.3,4,0.3,6c0.8,2.4,2.1,4.6,3.9,6.4c0.7,0.8,1.5,1.5,2.1,2.2c0.6,0.6,1.1,1.3,1.6,1.9c0.2,0.3,0.3,0.6,0.5,1
		c-0.4,0.1-0.6,0.2-0.9,0.2c-1.6,0.3-3.1,0.9-4.6,1.6c-1.2,0.5-2.2,1.2-3.1,2.1c-0.3,0.3-0.7,0.5-1.2,0.6c-0.3,0-0.7,0.2-1,0.4
		c-2.6,1.2-4.4,3.1-5,5.9c-0.7,2.6-0.5,5.1,1.2,7.4c0.1,0.2,0.2,0.4,0.3,0.5c-0.4,0.6-0.9,1.1-1.2,1.6c-1.4,1.9-2.1,4.2-2.2,6.5
		c-0.1,1.9,0.3,3.8,1.3,5.4c0.1,0.2,0.2,0.4,0.3,0.6c-0.3,0.7-0.7,1.4-1,1.9c-0.7,1.7-0.7,3.6-0.3,5.3c0.8,3.7,2.7,6.5,6.2,8.1
		c0.2,0.1,0.4,0.2,0.5,0.3c0,0.1,0,0.1,0,0.2c0,0.1,0,0.1-0.1,0.2c-0.6,2-0.4,4.1,0.6,6c0.8,1.6,1.7,2.9,3.1,4
		c1.4,1.1,2.8,1.9,4.5,2.5c0.5,0.1,0.8,0.4,1,0.8c1.1,2.5,2.9,4.1,5.5,4.9c1,0.3,1.9,0.4,2.9,0.4c0.2,0,0.4,0,0.7,0
		c1.5-0.1,2.9-0.3,4.4-0.4c0.3,0,0.5,0,0.8,0c0.2,0.5,0.4,0.9,0.6,1.3c0.3,0.4,0.5,0.8,0.9,1.2c1.2,1.3,2.4,2.3,4,3
		c1.3,0.6,2.6,1,4,1c0.3,0,0.5,0,0.8,0c1.2-0.1,2.2-0.5,3.2-1c1.6-0.8,3.1-1.8,4.4-3c0.7-0.7,1.4-1.3,2-1.9c0.5-0.5,1.2-0.9,1.8-1.1
		c2.2-0.8,3.7-2.3,4.7-4.5c0.2-0.5,0.4-1.1,0.6-1.6c0.1-0.2,0.2-0.5,0.2-0.7c1.3-0.1,2.2-0.8,3.1-1.5c1.3-1,2.4-2.1,3.3-3.5
		c0.4-0.6,0.8-1.2,1.2-1.7c0.4-0.6,0.8-1.2,1.4-1.6c0.2-0.1,0.4-0.3,0.5-0.5c0.3-0.4,0.6-0.6,1-0.9c2.4-1.6,4.4-3.5,5.6-6.2
		c0.6-1.3,1.2-2.5,1.6-3.8c0.7-2.6,1.1-5.2,0-7.9c0-0.1,0-0.1,0-0.2c0.1-0.1,0.1-0.3,0.2-0.4c1.4-2.4,2.3-4.9,2.8-7.7
		c0.4-2,0.4-4.1-0.1-6.1c-0.5-1.7-1.3-3.4-2.2-4.9c-1.4-2-2.9-3.8-5.3-4.7c0-0.2,0-0.4,0-0.7c-0.1-0.8-0.1-1.6-0.2-2.3
		c-0.3-1.9-1.1-3.7-2.4-5.1c-0.9-1-2-1.6-3.3-1.7c-0.3-0.1-0.5-0.1-0.8-0.1c-0.6,0-1.3,0.1-1.8,0.2c-0.2,0-0.4,0-0.7,0.1
		c0.2-0.3,0.3-0.6,0.4-0.9c1-1.9,1.6-4,2.1-6.1c0.5-2.4,0.5-4.9-0.4-7.3c-1.1-3-2.6-5.6-4.7-8.1c-0.1-0.1-0.2-0.2-0.3-0.2h-0.1
		c0,0.1,0,0.1,0,0.1c0.1,0.2,0.2,0.5,0.3,0.7c1.1,2.5,1.6,5,1.7,7.8c0,0.6,0,1.3-0.2,1.8c-0.2,1.1-0.8,2-1.7,2.6
		c-0.1,0.1-0.2,0.1-0.4,0.2c0-0.3,0-0.6,0-0.8c-0.1-0.9-0.1-1.7-0.2-2.5c-0.5-2.7-1.3-5.4-2.3-8c-0.2-0.5-0.5-1-0.8-1.5
		c-0.1-0.1-0.1-0.2-0.3-0.2h-0.1c0,0.1,0,0.1,0,0.2c0.3,1.6,0.3,3.4,0,5c-0.2,1.1-0.5,2.2-0.8,3.3c-0.3,1.5-1,2.7-1.8,3.9
		c-1.3,1.7-2.8,3.2-4.4,4.6c-0.1,0.1-0.2,0.1-0.4,0.2c-0.1-1-0.2-1.9-0.4-2.8c-0.5-3.2-1.5-6.4-2.2-9.5C62.2,11.8,60.3,6.3,59,0.7
		C59,0.6,59,0.4,58.6,0.4 M68.1,102.1c0.1,0,0.1,0,0.2,0H68.1C68.2,102.2,68.1,102.2,68.1,102.1 M87.3,83.8L87.3,83.8L87.3,83.8
		L87.3,83.8 M45.4,34.1C45.4,34.1,45.5,34.1,45.4,34.1c0.1,0.1,0,0.1,0,0.2C45.4,34.2,45.4,34.1,45.4,34.1"/>
</g>
</svg>
