<?xml version="1.0" encoding="utf-8"?>
<!-- Generator: Adobe Illustrator 21.0.0, SVG Export Plug-In . SVG Version: 6.00 Build 0)  -->
<svg version="1.1" id="Laag_3" xmlns="http://www.w3.org/2000/svg" xmlns:xlink="http://www.w3.org/1999/xlink" x="0px" y="0px"
	 viewBox="0 0 113.4 117.3" style="enable-background:new 0 0 113.4 117.3;" xml:space="preserve">
<style type="text/css">
	.st0{fill:#E9547E;}
</style>
<path class="st0" d="M58.4,113.7c-0.4,0-0.8,0-1.3-0.1c-2.1-0.5-3.8-1.7-5.3-3.2c0,0,0-0.1-0.1-0.3c1.4-0.2,2.8-0.4,4.2-1
	c1.3-0.6,2.4-1.4,3.5-2.4c0.3,0.2,0.6,0.5,0.9,0.7c1.3,1,2.7,1.7,4.3,2.1c0.2,0,0.3,0.1,0.5,0.1s0.4,0.2,0.5,0.4
	c0.1,0.2-0.1,0.4-0.3,0.5c-0.4,0.3-0.9,0.7-1.4,1c-1.4,0.9-2.8,1.7-4.5,2.1C59.2,113.7,58.8,113.7,58.4,113.7 M32.8,101.6
	c-0.1,0-0.3,0-0.4-0.1c-1.9-0.8-3.6-1.9-4.8-3.7c-1-1.5-1.3-3.2-1-5c0-0.2,0.1-0.5,0.2-0.7c0.1-0.6,0.3-0.7,0.6-0.7
	c0.1,0,0.2,0,0.3,0c1,0.2,2,0.4,3.1,0.5c0.4,2.5,1.7,4.6,3.4,6.4c-0.2,0.6-0.5,1.1-0.6,1.6s-0.2,1-0.3,1.6c-0.1,0-0.1,0-0.2,0
	C33,101.6,32.9,101.6,32.8,101.6 M43.4,48.9c0.1-0.3,0-0.7,0-1c-0.2-2.1,0.2-4.1,1.1-6c0.2-0.4,0.5-0.9,0.8-1.3
	c0.4-0.6,1-0.9,1.6-1.1c1.2-0.3,2.3-0.7,3.5-0.9c1.5-0.3,3.1-0.5,4.6-0.7c0.3,0,0.5,0,0.8,0c1.1,0,2.2,0.3,3.2,0.9
	c0.4,0.2,0.7,0.6,1,0.9c0.4,0.4,0.2,0.9-0.3,1.1c-0.4,0.2-0.8,0.3-1.2,0.5c-0.9,0.4-1.8,0.9-2.5,1.6c-0.2,0.2-0.4,0.4-0.3,0.7
	c0.1,0.1,0.1,0.1,0.2,0.1c0.1,0,0.2-0.1,0.3-0.1c1-0.4,2.1-0.6,3.2-0.9c0.7-0.1,1.4-0.4,2.2-0.5s1.5-0.2,2.3-0.2c0.3,0,0.6,0,0.9,0
	c1.3,0.1,2.5,0.1,3.8,0.2l0,0c0.1,0,0.2-0.1,0.4-0.1c-0.6-0.8-1.5-1-2.2-1.2c-0.8-0.2-1.6-0.4-2.4-0.6c0-0.1,0-0.2,0.1-0.2
	c0.8-0.5,1.6-1.1,2.5-1.3c0.7-0.2,1.5-0.3,2.2-0.3c1.4,0,2.8,0.4,4,1.2c0.4,0.3,0.9,0.6,1.3,0.9c1.2,0.8,2.2,1.9,2.9,3.2
	c0.2,0.3,0.4,0.7,0.6,1c0.4-0.2,0.5-0.6,0.5-0.9c0.1-0.5,0.1-0.9,0.2-1.4c0.1-0.8,0.4-1.2,1.2-1.4C80.5,41,81,41,81.5,41
	c0.7,0,1.5,0.1,2.2,0.3s1.2,0.6,1.7,1.1c0.7,0.8,1.3,1.7,1.6,2.7c0.2,0.6,0.3,1.3,0.4,2c0.1,0.8,0.2,1.7-0.2,2.4
	c0.3,0.9,0.6,1.7,0.9,2.5l0,0h0.1h0.1c0.3-0.3,0.6-0.4,1-0.4c0.3,0,0.7,0.1,1,0.3c0.5,0.3,1,0.7,1.4,1.1c2,2.2,3.4,4.7,4,7.6
	c0.1,0.6,0.1,1.3-0.2,1.9c-0.2,0.4-0.4,0.6-0.8,0.6c-0.1,0-0.3,0-0.4-0.1c-0.5-0.2-1-0.5-1.4-0.9c-1-1.1-1.9-2.2-2.9-3.3
	c-1.3-1.4-2.6-2.7-4-3.9c-0.2-0.2-0.5-0.4-0.9-0.7c0.1,0.3,0.1,0.5,0.1,0.6c0.5,0.7,0.9,1.4,1.4,2.1c1.1,1.6,2.2,3.3,3.2,5
	c0.7,1.3,1.3,2.6,1.7,4c1,3.2,0.6,6.3-1,9.3c-0.5,1-1.4,1.7-2.3,2.5c-0.2,0.1-0.4,0.2-0.6,0.3c-0.2,0.1-0.3,0.1-0.5,0.2
	c-0.3,0.2-0.3,0.4-0.3,0.7c0.1,0.3,0.2,0.4,0.5,0.5c0.2,0,0.4,0.1,0.6,0.1c0.4,0,0.8-0.1,1.2-0.3c0.5-0.2,0.9-0.5,1.3-0.9
	c0.6-0.6,1.3-0.8,2.1-1.2c0.2,3.4-2.1,9.3-4.3,11.1c-0.2-0.3-0.1-0.6-0.1-0.9c0-0.4,0-0.7-0.1-1.1c0-0.3-0.1-0.6-0.2-0.9
	s-0.1-0.6-0.2-0.9s-0.2-0.7-0.3-1c-0.1-0.3-0.2-0.6-0.3-0.9c-0.1-0.3-0.2-0.7-0.4-1c-0.1-0.3-0.3-0.6-0.4-0.9s-0.3-0.6-0.4-0.8
	c-0.2-0.3-0.4-0.6-0.6-0.9c-0.2-0.2-0.4-0.5-0.6-0.7c-0.2,0.5-0.2,0.5-0.1,0.9c0.3,1.3,0.6,2.7,0.9,4c0.5,2,0.3,4-0.3,6
	c-0.3,1.1-0.9,2-1.6,2.9c-0.5,0.6-1.1,1-1.8,1.2c-0.9,0.2-1.8,0.5-2.7,0.6c-0.2,0-0.4,0.1-0.7,0.2c0.1,0.2,0.2,0.4,0.3,0.5
	c0.4,0.3,0.9,0.5,1.4,0.6c0.2,0.1,0.5,0.1,0.8,0.2c0,0.2,0,0.3-0.1,0.4c-1,2.1-2.6,3.5-4.6,4.5c-0.1,0.1-0.3,0-0.5,0.1
	c0-1.8-0.1-3.6-0.7-5.3c-0.1-0.3-0.2-0.5-0.3-0.8c0,0-0.1-0.1-0.2-0.1c-0.2,0-0.2,0.2-0.2,0.3c-0.1,2.1-0.3,4.2-0.6,6.2
	c-0.2,1.6-0.8,3.1-1.7,4.4c-0.9,1.3-2.2,1.8-3.7,1.9c-0.2,0-0.3,0-0.5,0c-0.8,0-1.5-0.1-2.3-0.3c-1-0.2-1.9-0.6-2.6-1.3
	c-0.6-0.6-1.1-1.3-1.7-1.9c-0.3-0.3-0.3-0.7-0.2-1.1c0.2-0.7,0.3-1.5,0.4-2.2c0-0.2,0-0.4-0.1-0.7c-0.1,0.1-0.3,0.2-0.3,0.3
	c-0.1,0.2-0.3,0.4-0.4,0.6c-0.9,1.5-2,2.9-3,4.4c-1.2,1.8-3.5,2.9-5.8,2.9c-1,0-1.9-0.2-2.8-0.6c-1.1-0.5-2.1-1.1-3-2
	c-1.4-1.5-2.6-3.1-3.5-4.9c-0.1-0.2-0.2-0.5-0.4-0.7c-0.2,0.1-0.2,0.3-0.2,0.5c0,1.1,0.1,2.2,0.5,3.2c0.6,1.6,1.2,3.1,2.3,4.5
	c-0.4,0.3-0.8,0.3-1.2,0.4c-0.2,0-0.3,0-0.5,0c-1.1,0-2.1-0.1-3.2-0.5c-2.4-0.8-4-2.8-4.3-5.5c0-0.4,0.1-0.8,0.2-1.1
	c0.1-0.3,0.2-0.4,0.5-0.4c0.1,0,0.2,0,0.4,0.1c0.3,0.1,0.5,0.2,0.8,0.4c0.8,0.4,1.6,0.7,2.5,0.9c0.3,0.1,0.5,0,1,0.1
	c-0.5-0.5-1-0.7-1.4-1s-0.8-0.7-1.2-1c-0.4-0.4-0.7-0.8-1.1-1.2c-0.4-0.4-0.8-0.8-1.1-1.3c-0.3-0.4-0.6-0.9-0.9-1.3
	c-0.3-0.5-0.5-0.9-0.8-1.4s-0.5-0.9-0.7-1.4c0.1-0.1,0.2-0.2,0.3-0.2s0.2,0,0.2,0c0.7,0.2,1.4,0.2,2.2,0.2s1.6-0.1,2.4-0.2
	c0.7-0.1,1.4-0.4,2.1-0.7c0.1-0.1,0.2-0.2,0.5-0.4C41.1,92,41,92,40.8,92h-0.1c-0.1,0-0.2,0-0.3,0c-0.3,0-0.6,0-0.9,0
	c-3,0-5.9-0.6-8.6-1.8c-0.3-0.1-0.5-0.2-0.8-0.4c-1.9-1.3-3.7-2.8-5.1-4.7c-0.4-0.5-0.7-1.1-1.1-1.7c-0.1-0.2-0.2-0.4-0.4-0.5
	c0,0.2,0,0.4,0,0.7c0.4,1.5,1,2.9,1.8,4.2c0.2,0.3,0.3,0.5,0.5,0.8c-0.1,0.1-0.2,0.1-0.2,0.1c-0.1,0-0.2,0-0.3-0.1
	c-1.7-0.8-2.9-2-3.8-3.5c-1.1-1.9-1.5-3.9-1.6-6c0-0.9,0.2-1.7,1-2.3c0.3,0.1,0.6,0.2,1,0.4c0.1-0.5,0-1,0-1.5s0-0.9,0-1.4
	c0,0,0-0.1-0.1-0.2c-1.3-1.3-1.7-2.9-1.8-4.6c0-1.5,0.3-3,1-4.3c0.2-0.4,0.4-0.9,0.7-1.3c0.8-0.9,0.9-2,1-3.1c0-0.6,0.1-1.2,0.2-1.8
	c-1.1-1.2-1.5-2.7-1.4-4.3c0.1-1.7,0.7-3.3,1.8-4.7c0.3-0.5,0.7-0.9,1-1.3c0,0,0.1,0,0.2-0.1c-0.1,0.4-0.1,0.8-0.2,1.2
	c-0.3,1.3-0.2,2.7,0.3,4c0.4,1.1,0.7,2.2,1,3.2c0.1,0.2,0.2,0.4,0.3,0.6c0.3,0,0.2-0.2,0.2-0.3c0-0.8,0-1.7,0.1-2.5
	c0-1.9,0.6-3.6,1.5-5.3c0.4-0.9,1.1-1.6,1.8-2.2c1.3-1.2,2.9-1.9,4.7-2.6c-0.2,1.6-0.2,3,0.5,4.4l0,0c0.3,0,0.3-0.2,0.4-0.3
	c0.4-1.1,0.8-2.1,1.2-3.2c0.4-0.8,0.8-1.6,1.3-2.3c0.2-0.4,0.5-0.7,0.7-1l0,0c0.6,0,1,0.3,1.4,0.6c0.8,0.7,1.4,1.6,2,2.5
	c0.2,0.3,0.2,0.7,0.4,1.1c0.3,0.8,0.5,1.6,0.8,2.4C43,48.6,43.1,48.8,43.4,48.9 M67.2,36.3c0.2-0.2,0.2-0.3,0.3-0.4
	c1.2-0.9,2.6-1.6,4-2.1s2.8-0.9,4.1-1.3c0.7-0.2,1.5-0.5,2.2-0.9c1.3-0.6,2.2-1.6,2.9-2.9c0.1-0.2,0.2-0.5,0.4-0.7
	c0.7,2.4-1.6,9.7-4.1,12.2c-1-1.6-2.4-2.9-4.2-3.5c-1.2-0.4-2.4-0.6-3.6-0.6C68.6,36.1,67.9,36.2,67.2,36.3 M71.5,31.7
	c0.7-1,1.3-1.8,1.8-2.6c0.5-0.9,0.9-1.8,1.3-2.8c0.5,1.5,0.6,3.2,0.2,4.4c-0.5,0.2-1,0.3-1.6,0.5C72.7,31.3,72.1,31.5,71.5,31.7
	 M43.4,21.2c0,0.3,0,0.5-0.1,0.7c-0.5,1.8-0.9,3.6-1,5.5c-0.1,1.8,0,3.5,0.4,5.3c0,0.1,0,0.3,0.1,0.4v0.1c-0.6-0.5-1.7-1.8-3-3.8
	C39.9,28.3,42.4,22.8,43.4,21.2 M37.6,38.9c-0.1-0.1-0.3-0.3-0.4-0.5c-0.6-1-1.3-1.9-2.1-2.7s-1.6-1.6-2.3-2.5
	c-1.5-1.7-2.6-3.6-3.2-5.8c-0.3-1.3-0.4-2.6-0.2-3.9c0.3-1.9,0.8-3.7,1.4-5.4c0-0.1,0.1-0.2,0.3-0.6c0.3,1.7,0.7,3.2,1.1,4.7
	c0.8,2.5,2.1,4.8,3.7,6.9c1.2,1.5,2.3,3.1,3.5,4.7c1.1,1.5,1.9,3.1,2.4,4.9c-0.1,0.1-0.2,0.1-0.3,0.1s-0.3-0.1-0.4-0.2
	c-0.5-0.2-1.1-0.4-1.6-0.4c-0.3,0-0.6,0-0.9,0.1C38.4,38.6,38,38.7,37.6,38.9 M52,18.4c0.2-2,0.5-3.9,0.7-5.8c0.1,0,0.2,0,0.2,0.1
	c0.2,0.6,0.4,1.3,0.6,1.9c0.1,0.2,0.1,0.5,0,0.7C53.1,16.3,52.6,17.4,52,18.4C52.2,18.4,52.1,18.4,52,18.4 M45.6,37.3
	c0-0.2-0.1-0.3-0.1-0.5c0.1-1.1,0.5-2.2,1-3.2c1-1.8,2-3.7,3-5.5s2.1-3.5,3.1-5.3c2.1-3.8,3.8-7.8,4.8-12.1c0.1-0.2,0.1-0.5,0.2-0.7
	c0.1,0,0.1,0,0.2,0c0.1,0.6,0.2,1.1,0.3,1.7c0.7,3.6,1.6,7.1,2.5,10.6c0.4,1.6,0.9,3.3,1.3,4.9c0.5,2,0.7,4.1,0.4,6.2
	c-0.2,1.3-0.7,2.6-1.4,3.7c-0.2-0.1-0.4-0.2-0.5-0.3c-1.5-0.9-3.1-1.4-4.9-1.4c0,0,0,0-0.1,0c-2.1,0-4.2,0.4-6.3,0.8
	c-1.1,0.2-2.2,0.5-3.2,1C45.9,37.2,45.7,37.2,45.6,37.3 M57.6,3.9c-0.1,0.2-0.2,0.4-0.3,0.6c-0.5,1.5-1.1,2.9-1.6,4.4
	c-0.3,1-0.6,2-0.9,3c-0.1,0.2,0,0.4-0.4,0.5c-0.2-0.4-0.3-0.8-0.5-1.3c-0.2-0.4-0.3-0.9-0.5-1.3C53.3,9.4,53.1,9,53,8.6
	c-0.1-0.4-0.3-0.9-0.4-1.3C52.5,6.9,52.4,6.4,52,6c0,0.2,0,0.3-0.1,0.4c-0.2,1-0.3,2-0.4,2.9c-0.2,1.8-0.5,3.6-0.7,5.4
	c-0.3,2.5-0.7,5-1,7.5c-0.1,0.6-0.3,1.2-0.6,1.8c-1.4,2.4-2.8,4.8-4.1,7.2c-0.1,0.1-0.1,0.2-0.3,0.4c-0.2-0.5-0.2-0.9-0.3-1.3
	c-0.2-3-0.1-6,0.5-9c0.4-1.9,0.9-3.7,1.3-5.6c0-0.2,0.2-0.4,0-0.7c-0.3,0.2-0.5,0.4-0.8,0.6c-0.4,0.4-0.8,0.8-1.2,1.2
	c-1.6,1.9-3,4-4.1,6.2c-0.6,1.2-1.2,2.5-1.8,3.7c-0.1,0.2-0.2,0.4-0.4,0.7c-0.2-0.3-0.4-0.6-0.6-0.8c-1.7-2.3-2.7-5-3.3-7.8
	c-0.5-2.3-0.7-4.7-0.7-7.1c0-0.2,0.2-0.5-0.2-0.7c-0.2,0.3-0.5,0.5-0.7,0.8c-1.2,1.6-2.4,3.4-3.3,5.2s-1.7,3.7-2.1,5.7
	c-0.4,2.1-0.3,4.1,0.3,6.2c0.8,2.5,2.2,4.7,4,6.6c0.7,0.8,1.5,1.5,2.2,2.3c0.6,0.6,1.1,1.3,1.6,2c0.2,0.3,0.3,0.6,0.5,1
	c-0.4,0.1-0.6,0.2-0.9,0.2c-1.6,0.3-3.2,0.9-4.7,1.6c-1.2,0.5-2.3,1.2-3.2,2.2c-0.3,0.3-0.7,0.5-1.2,0.6c-0.3,0-0.7,0.2-1,0.4
	C22,47,20.2,49,19.5,51.9c-0.7,2.7-0.5,5.3,1.2,7.6c0.1,0.2,0.2,0.4,0.3,0.5c-0.4,0.6-0.9,1.1-1.2,1.7c-1.4,2-2.2,4.3-2.3,6.7
	c-0.1,2,0.3,3.9,1.3,5.6c0.1,0.2,0.2,0.4,0.3,0.6c-0.3,0.7-0.7,1.4-1,2c-0.7,1.8-0.7,3.7-0.3,5.5c0.8,3.8,2.8,6.7,6.4,8.4
	c0.2,0.1,0.4,0.2,0.5,0.3c0,0.1,0,0.1,0,0.2s0,0.1-0.1,0.2c-0.6,2.1-0.4,4.2,0.6,6.2c0.8,1.6,1.8,3,3.2,4.1c1.4,1.1,2.9,2,4.6,2.6
	c0.5,0.1,0.8,0.4,1,0.8c1.1,2.6,3,4.2,5.7,5c1,0.3,2,0.4,3,0.4c0.2,0,0.4,0,0.7,0c1.5-0.1,3-0.3,4.5-0.4c0.3,0,0.5,0,0.8,0
	c0.2,0.5,0.4,0.9,0.6,1.3c0.3,0.4,0.5,0.8,0.9,1.2c1.2,1.3,2.5,2.4,4.1,3.1c1.3,0.6,2.7,1,4.1,1c0.3,0,0.5,0,0.8,0
	c1.2-0.1,2.3-0.5,3.3-1c1.7-0.8,3.2-1.9,4.5-3.1c0.7-0.7,1.4-1.3,2.1-2c0.5-0.5,1.2-0.9,1.9-1.1c2.3-0.8,3.8-2.4,4.8-4.6
	c0.2-0.5,0.4-1.1,0.6-1.6c0.1-0.2,0.2-0.5,0.2-0.7c1.3-0.1,2.3-0.8,3.2-1.5c1.3-1,2.5-2.2,3.4-3.6c0.4-0.6,0.8-1.2,1.2-1.8
	c0.4-0.6,0.8-1.2,1.4-1.7c0.2-0.1,0.4-0.3,0.5-0.5c0.3-0.4,0.6-0.6,1-0.9c2.5-1.6,4.5-3.6,5.8-6.4c0.6-1.3,1.2-2.6,1.6-3.9
	c0.7-2.7,1.1-5.4,0-8.1c0-0.1,0-0.1,0-0.2c0.1-0.1,0.1-0.3,0.2-0.4c1.4-2.5,2.4-5.1,2.9-7.9c0.4-2.1,0.4-4.2-0.1-6.3
	c-0.5-1.8-1.3-3.5-2.3-5.1c-1.4-2.1-3-3.9-5.5-4.8c0-0.2,0-0.4,0-0.7c-0.1-0.8-0.1-1.6-0.2-2.4c-0.3-2-1.1-3.8-2.5-5.3
	c-0.9-1-2.1-1.6-3.4-1.8C83.5,39,83.3,39,83,39c-0.6,0-1.3,0.1-1.9,0.2c-0.2,0-0.4,0-0.7,0.1c0.2-0.3,0.3-0.6,0.4-0.9
	c1-2,1.7-4.1,2.2-6.3c0.5-2.5,0.5-5.1-0.4-7.5c-1.1-3.1-2.7-5.8-4.8-8.3c-0.1-0.1-0.2-0.2-0.3-0.2h-0.1c0,0.1,0,0.1,0,0.1
	c0.1,0.2,0.2,0.5,0.3,0.7c1.1,2.6,1.7,5.2,1.8,8c0,0.6,0,1.3-0.2,1.9c-0.2,1.1-0.8,2.1-1.8,2.7c-0.1,0.1-0.2,0.1-0.4,0.2
	c0-0.3,0-0.6,0-0.8C77,28,77,27.1,76.9,26.3c-0.5-2.8-1.3-5.6-2.4-8.2c-0.2-0.5-0.5-1-0.8-1.5c-0.1-0.1-0.1-0.2-0.3-0.2h-0.1
	c0,0.1,0,0.1,0,0.2c0.3,1.7,0.3,3.5,0,5.2c-0.2,1.1-0.5,2.3-0.8,3.4c-0.3,1.5-1,2.8-1.9,4c-1.3,1.8-2.9,3.3-4.5,4.7
	C66,34,65.9,34,65.7,34.1c-0.1-1-0.2-2-0.4-2.9c-0.5-3.3-1.5-6.6-2.3-9.8c-1.7-5.7-3.6-11.4-5-17.2C58,4.1,58,3.9,57.6,3.9
	 M67.4,108.8c0.1,0,0.1,0,0.2,0H67.4C67.5,108.9,67.4,108.9,67.4,108.8 M87.2,89.9L87.2,89.9L87.2,89.9L87.2,89.9 M44,38.7
	C44,38.7,44.1,38.7,44,38.7c0.1,0.1,0,0.1,0,0.2C44,38.8,44,38.7,44,38.7"/>
</svg>
